<svg width="25" height="25" viewBox="0 0 25 25" fill="none" xmlns="http://www.w3.org/2000/svg">
<path d="M24.4059 12.4997L12.5005 0.594299L0.595112 12.4997L12.5005 24.4051L24.4059 12.4997Z" fill="#FFDA00"/>
<path d="M0 12.5017L12.5 0L25 12.5017L24.7026 12.7982L24.4061 12.5L24.7026 12.7982L12.5 25L0 12.5017ZM1.18944 12.5017L12.5 23.8122L23.8114 12.5008L12.5 1.18944L1.18944 12.5017Z" fill="#FF0000"/>
<path d="M8.60735 13.5423C9.29027 13.5423 9.84215 14.0959 9.84215 14.7771C9.84215 14.8552 9.83459 14.9317 9.82115 15.0056H10.1924C10.179 14.9317 10.1714 14.8544 10.1714 14.7771C10.1714 14.095 10.725 13.5423 11.4071 13.5423C12.09 13.5423 12.6419 14.0959 12.6419 14.7771C12.6419 14.8552 12.6343 14.9317 12.6209 15.0056H15.2501C15.1039 14.7292 15.0216 14.4151 15.0216 14.0816C15.0216 12.9955 15.9019 12.1151 16.9872 12.1151C18.0733 12.1151 18.9553 12.9955 18.9553 14.0816C18.9553 15.1677 18.0733 16.048 16.9872 16.048C16.421 16.048 15.9128 15.8086 15.5533 15.4264H12.4587C12.2403 15.7767 11.8506 16.0111 11.4079 16.0111C10.9644 16.0111 10.5746 15.7767 10.3579 15.4264H9.65987C9.44147 15.7767 9.05171 16.0111 8.60903 16.0111C7.92695 16.0111 7.3734 15.4583 7.3734 14.7763C7.37172 14.0959 7.92527 13.5423 8.60735 13.5423ZM6 14.7679L6.89628 13.2491L6.69384 13.2517C6.69384 13.2517 6.69636 12.536 6.69636 12.4637C6.69636 12.3907 6.75012 12.3537 6.80556 12.3537C6.861 12.3537 7.24488 12.3537 7.24488 12.3537V10.835L6.86016 8.78624L7.24488 8H8.96351L9.36587 8.71316L8.96351 10.8174H9.67835V10.4242C9.67835 10.3176 9.76487 10.2319 9.87071 10.2319H11.0223C11.1299 10.2319 11.2147 10.3176 11.2147 10.4242V10.8174H11.5818V10.4242C11.5818 10.3176 11.6683 10.2319 11.7741 10.2319H12.9266C13.0333 10.2319 13.119 10.3176 13.119 10.4242V10.8174H13.6305C13.6305 10.8174 13.8498 9.46328 13.8867 9.33476C13.9237 9.20624 14.106 9.04244 14.2891 9.04244C14.4731 9.04244 19.4299 9.04244 19.4299 9.04244C19.4299 9.04244 19.5038 9.00548 19.5038 9.07856V9.79255C19.5038 9.95719 19.5391 9.97567 19.4668 9.97567C19.3929 9.97567 19.1367 9.97567 19.1367 9.97567C19.1367 9.97567 19.1367 11.1097 19.1367 12.1706C19.7222 12.7006 19.9238 13.5793 19.9238 14.0186C19.9238 14.4579 19.3383 14.4209 19.3383 14.0186C19.3383 13.6162 18.8637 11.7867 16.9242 11.7867C14.9846 11.7867 14.6738 13.8539 14.6738 14.1463C14.6738 14.4394 14.7469 14.7502 14.7469 14.7502C14.7469 14.7502 13.3752 14.7502 12.9905 14.7502C12.9905 14.4755 12.8619 13.213 11.4533 13.213C10.4108 13.213 10.0278 14.0547 10.0278 14.0547C10.0278 14.0547 9.53303 13.1945 8.65439 13.1945C7.3188 13.1945 7.02648 14.4571 7.02648 14.5663C7.02648 14.6763 7.02648 14.767 7.02648 14.767H6V14.7679ZM14.1967 10.835H16.2757C16.3815 10.835 16.468 10.7485 16.468 10.6426V9.58759C16.468 9.48091 16.3815 9.39524 16.2757 9.39524H14.4378C14.3328 9.39524 14.2337 9.48848 14.2101 9.62455C14.1849 9.76147 14.0228 10.5301 14.0052 10.6426C13.9859 10.7552 14.0909 10.835 14.1967 10.835Z" fill="black"/>
</svg>
