<svg width="25" height="25" viewBox="0 0 25 25" fill="none" xmlns="http://www.w3.org/2000/svg">
<path d="M24.4059 12.4997L12.5005 0.594299L0.595112 12.4997L12.5005 24.4051L24.4059 12.4997Z" fill="#FFDA00"/>
<path d="M0 12.5017L12.5 0L25 12.5017L24.7026 12.7982L24.4061 12.5L24.7026 12.7982L12.5 25L0 12.5017ZM1.18944 12.5017L12.5 23.8122L23.8114 12.5008L12.5 1.18944L1.18944 12.5017Z" fill="#FF0000"/>
<path d="M18.6085 12.4278C18.5178 12.4723 18.4279 12.5185 18.3364 12.5614C18.0373 12.7016 17.7332 12.836 17.4275 12.9646C16.5556 13.3325 15.6719 13.6769 14.8445 14.1254C14.5438 14.2875 14.2506 14.4656 13.9692 14.6639C13.9087 14.7059 13.8449 14.742 13.7852 14.7865C13.7676 16.1145 13.8726 17.472 13.5013 18.7639C13.3686 19.1831 13.2023 19.6257 12.852 19.9147C12.7117 20.0155 12.5698 20.0768 12.4538 20.0894V20.0911C12.4488 20.0919 12.4421 20.0911 12.4362 20.0911C12.4295 20.0919 12.4236 20.0919 12.4186 20.0919C12.4135 20.0919 12.4068 20.0919 12.4009 20.0911C12.395 20.0911 12.3892 20.0919 12.3833 20.0911V20.0894C12.2674 20.0768 12.1254 20.0155 11.9851 19.9147C11.6349 19.6266 11.4685 19.1831 11.3358 18.7639C10.9654 17.472 11.0704 16.1145 11.0519 14.7865C10.9931 14.742 10.9293 14.7067 10.8679 14.6639C10.5865 14.4665 10.2934 14.2884 9.99266 14.1254C9.16526 13.6769 8.28158 13.3325 7.40967 12.9646C7.10391 12.836 6.79983 12.7016 6.50079 12.5614C6.40923 12.5185 6.31935 12.4723 6.22863 12.4278C5.86995 12.2506 5.51715 12.0632 5.18115 11.8448C5.26515 11.429 5.53815 11.004 5.98755 10.9452C6.67803 10.9116 7.33155 11.1905 8.00018 11.3081C8.53778 11.4055 9.07202 11.5399 9.6113 11.6441H9.61214C10.1497 11.7482 10.6899 11.8222 11.2401 11.7995C11.2711 11.5702 11.3056 11.2972 11.34 11.0141C11.4433 10.1632 11.5458 9.2106 11.5534 9.01321C11.5551 8.86117 11.571 8.83597 11.4223 8.67217C11.2611 8.47981 11.0704 8.33197 10.8747 8.19085C10.5093 7.92961 10.1161 7.69945 9.79358 7.30465C9.79358 7.30465 9.78518 6.83929 9.8255 6.54445C9.83054 6.50245 9.83726 6.46381 9.84482 6.43021C10.4773 6.57889 11.1703 6.72001 11.755 6.85189C11.8239 6.45877 11.8911 6.22357 12.0129 5.86826C12.1229 5.71034 12.2422 5.67422 12.4186 5.67842C12.595 5.67338 12.7151 5.71034 12.8243 5.86826C12.9461 6.22357 13.0133 6.45877 13.0822 6.85189C13.6676 6.72001 14.3606 6.57889 14.9923 6.43021C15.0007 6.46381 15.0074 6.50161 15.0116 6.54445C15.052 6.83929 15.0436 7.30465 15.0436 7.30465C14.721 7.69945 14.327 7.92961 13.9625 8.19085C13.7668 8.33197 13.5761 8.47981 13.4148 8.67217C13.2653 8.83597 13.2821 8.86117 13.2838 9.01321C13.2913 9.2106 13.3938 10.1632 13.4971 11.0141C13.5316 11.2972 13.566 11.5702 13.5971 11.7995C14.1473 11.8222 14.6882 11.7482 15.225 11.6441H15.2258C15.7651 11.5399 16.2994 11.4055 16.837 11.3081C17.5064 11.1896 18.1591 10.9116 18.8496 10.9452C19.299 11.004 19.572 11.429 19.656 11.8448C19.32 12.0632 18.9672 12.2506 18.6085 12.4278Z" fill="black"/>
</svg>
