<svg width="25" height="25" viewBox="0 0 25 25" fill="none" xmlns="http://www.w3.org/2000/svg">
<path d="M24.4059 12.4997L12.5005 0.594299L0.595112 12.4997L12.5005 24.4051L24.4059 12.4997Z" fill="#FFDA00"/>
<path d="M0 12.5017L12.5 0L25 12.5017L24.7026 12.7982L24.4061 12.5L24.7026 12.7982L12.5 25L0 12.5017ZM1.18944 12.5017L12.5 23.8122L23.8114 12.5008L12.5 1.18944L1.18944 12.5017Z" fill="#FF0000"/>
<path d="M13.9889 15.3479L13.4597 15.8931L13.4756 17.6537L13.7554 18.1527L15.4228 18.5727L16.0141 18.0275L16.062 16.5315L14.9238 15.4101L13.9889 15.3479ZM11.5596 14.7398L12.4786 15.2698L13.101 14.6776L12.6029 13.9922L12.0418 13.93L11.5596 14.0392V14.7398ZM15.306 8.68423L13.2278 8.84803L12.3148 10.5784L13.4614 12.5877L14.6995 13.3823L16.3829 13.3597L16.991 12.6818L17.0355 10.4146L15.306 8.68423ZM11.0405 14.2333L10.3265 9.42595L8.36594 7.19239L8.17778 5L1 12.1778L12.3106 23.4909L14.7088 21.0927L10.2979 15.7158L11.0405 14.2333ZM9.51673 6.96223L8.96066 6.77659V7.45699H9.45457L9.51673 6.96223ZM10.7524 8.19871L12.1736 8.32219L12.6062 7.45699L11.6789 6.90091H10.3811L10.4433 7.64263L10.7524 8.19871ZM9.51673 6.40616C9.76369 6.46832 10.1963 6.344 10.1963 6.344L10.1358 5.23184L8.9615 5.294L9.02281 6.03572C9.02198 6.03572 9.26893 6.34484 9.51673 6.40616Z" fill="black"/>
</svg>
