<svg width="25" height="25" viewBox="0 0 25 25" fill="none" xmlns="http://www.w3.org/2000/svg">
<path d="M24.4059 12.4997L12.5005 0.594299L0.595112 12.4997L12.5005 24.4051L24.4059 12.4997Z" fill="#FFDA00"/>
<path d="M0 12.5017L12.5 0L25 12.5017L24.7026 12.7982L24.4061 12.5L24.7026 12.7982L12.5 25L0 12.5017ZM1.18944 12.5017L12.5 23.8122L23.8114 12.5008L12.5 1.18944L1.18944 12.5017Z" fill="#FF0000"/>
<path d="M17.6129 11.7866C17.8657 10.7853 17.8078 9.70669 17.3634 8.75746C16.4889 6.68512 13.984 5.5242 11.831 6.18614C10.2333 6.63304 8.95642 7.99808 8.59101 9.61009C8.44316 10.2393 8.32556 10.8743 8.20376 11.5085L8.11387 11.59C8.10547 11.611 7.01596 12.5485 7 13.7455C7 14.0026 7.05376 14.2706 7.19069 14.5318C7.85179 15.8145 8.11135 16.1178 8.13403 16.1446L8.18192 16.2009L8.25416 16.2177C8.26256 16.2203 9.41591 16.5092 10.0443 16.5521C10.0611 16.5521 10.0787 16.5521 10.0787 16.5521C10.2887 16.5277 10.4727 16.4235 10.6314 16.2849C10.7448 16.2841 10.8582 16.2774 10.9691 16.2824C10.9775 16.6999 10.9481 17.1199 10.9792 17.5357C11.0498 17.8331 11.3471 18.1078 11.6647 18.0901C12.7643 18.1053 13.863 18.1078 14.9643 18.0943C15.3415 18.1254 15.7304 17.8356 15.7455 17.4433C15.7951 16.4597 15.6943 15.4768 15.7606 14.4932C16.6267 13.9144 17.2357 13.0248 17.5423 12.0428C16.8585 12.3066 15.2113 12.8501 13.9479 13.1802C12.9306 13.4448 11.2816 13.5649 10.4601 13.612C10.3307 13.4574 10.2055 13.3045 10.0863 13.1575C10.6508 13.1306 12.7147 13.0172 13.8286 12.7241C15.1592 12.3755 16.9938 11.7631 17.5171 11.5463V11.548L17.6129 11.7866ZM10.0594 16.08C9.61668 16.0522 8.71533 15.8431 8.44484 15.7784C8.402 15.7221 8.32808 15.6096 8.21552 15.4214L8.73885 15.208L8.64729 14.9905L8.09623 15.2156C8.04835 15.1349 8.00131 15.0476 7.94503 14.9468L8.4818 14.7267L8.39192 14.5083L7.83247 14.7376C7.7913 14.6595 7.74678 14.5755 7.70142 14.4856L8.29028 14.2453L8.2004 14.0278L7.59558 14.2748C7.5099 14.0967 7.47293 13.9211 7.47125 13.7455C7.45613 13.0441 8.06683 12.3284 8.32304 12.0554C8.54481 12.1789 8.9707 12.4519 9.24707 12.8475C9.33275 12.9694 9.44867 13.1214 9.5814 13.2894C10.0459 13.8682 10.7121 14.6402 10.9599 14.9266C10.9011 15.0577 10.7994 15.2677 10.6726 15.4777C10.4777 15.828 10.1652 16.1136 10.0787 16.08H10.0594ZM10.24 11.2725C9.89893 11.2725 9.62004 10.9945 9.62004 10.6526C9.62004 10.3098 9.89893 10.0326 10.24 10.0326C10.5827 10.0326 10.8599 10.3098 10.8599 10.6526C10.8599 10.9945 10.5827 11.2725 10.24 11.2725Z" fill="black"/>
</svg>
