<svg width="25" height="25" viewBox="0 0 25 25" fill="none" xmlns="http://www.w3.org/2000/svg">
<path d="M24.4059 12.4997L12.5005 0.594299L0.595112 12.4997L12.5005 24.4051L24.4059 12.4997Z" fill="#FFDA00"/>
<path d="M0 12.5017L12.5 0L25 12.5017L24.7026 12.7982L24.4061 12.5L24.7026 12.7982L12.5 25L0 12.5017ZM1.18944 12.5017L12.5 23.8122L23.8114 12.5008L12.5 1.18944L1.18944 12.5017Z" fill="#FF0000"/>
<path d="M18.8569 14.5454C18.7351 13.4727 18.0437 12.2866 16.8156 12.358C15.653 12.337 15.0205 13.445 14.892 14.4631C13.1506 14.4589 11.4109 14.4623 9.66868 14.4463C9.54268 13.387 8.84042 12.258 7.64002 12.3294C6.47743 12.3101 5.88941 13.4324 5.64328 14.406C5.01326 13.718 4.68397 12.5857 5.42403 11.8422C6.66055 11.1442 8.18436 11.3029 9.47884 10.7468C10.3886 10.2831 11.0766 9.4532 12.0418 9.09955C13.1758 8.98111 14.3434 8.94079 15.4682 9.13483C16.4796 9.60021 17.1659 10.5965 18.2386 10.9627C18.751 11.1963 19.4457 11.2643 19.7078 11.8414C20.0598 12.8377 19.8498 14.0246 18.8569 14.5454ZM15.0532 9.67077C14.141 9.5666 13.2119 9.55232 12.2996 9.67329C11.6503 9.89085 11.1446 10.3831 10.5835 10.7552C12.6222 10.7813 14.661 10.7779 16.7005 10.7653C16.1629 10.3974 15.6992 9.85389 15.0532 9.67077ZM17.3247 13.0023C18.2554 13.3022 18.4915 14.6916 17.6901 15.2628C17.0273 15.8727 15.8588 15.4829 15.6312 14.6336C15.2557 13.6659 16.3696 12.5924 17.3247 13.0023ZM16.4149 14.7706C17.0592 15.5064 18.1403 14.1515 17.2692 13.6617C16.6191 13.0838 15.7194 14.2371 16.4149 14.7706ZM8.1474 12.9796C9.06134 13.3123 9.29991 14.6698 8.48677 15.2443C7.7383 15.9138 6.44214 15.3376 6.36402 14.3623C6.23466 13.4374 7.28133 12.5957 8.1474 12.9796ZM7.23093 14.7546C7.90127 15.4375 8.87318 14.201 8.13312 13.6315C7.42246 13.0754 6.47659 14.2094 7.23093 14.7546Z" fill="black"/>
</svg>
