<svg width="25" height="25" viewBox="0 0 25 25" fill="none" xmlns="http://www.w3.org/2000/svg">
<path d="M24.4059 12.4997L12.5005 0.594299L0.595112 12.4997L12.5005 24.4051L24.4059 12.4997Z" fill="#FFDA00"/>
<path d="M0 12.5017L12.5 0L25 12.5017L24.7026 12.7982L24.4061 12.5L24.7026 12.7982L12.5 25L0 12.5017ZM1.18944 12.5017L12.5 23.8122L23.8114 12.5008L12.5 1.18944L1.18944 12.5017Z" fill="#FF0000"/>
<path d="M13.3227 19.6059C12.975 19.2052 12.7431 18.8003 12.7414 18.8003L12.4096 18.2283L12.0779 18.8003C12.0779 18.802 11.8427 19.2052 11.4966 19.6059C11.1597 20.0183 10.6751 20.3568 10.4373 20.3333C10.3802 20.3392 10.3071 20.3216 10.2273 20.2896L10.8321 20.8944C11.5562 20.6735 12.093 20.0427 12.4096 19.5866C12.7322 20.0519 13.2816 20.7012 14.0283 20.9095L14.7146 20.2233C14.5861 20.293 14.466 20.3417 14.382 20.3333C14.1426 20.3568 13.6587 20.0183 13.3227 19.6059ZM8.46418 18.2283L8.35498 18.4173L8.89594 18.9582C8.83798 18.8684 8.79682 18.8003 8.79598 18.8003L8.46418 18.2283ZM16.0216 18.7995C16.0216 18.8003 15.9376 18.9406 15.8066 19.1304L16.4836 18.4534L16.3534 18.2283L16.0216 18.7995ZM21.2515 12.4894C20.9045 12.0887 20.6727 11.6839 20.6693 11.6839L20.3375 11.111L20.0074 11.6839C20.0074 11.6855 19.7739 12.0896 19.4261 12.4894C19.0876 12.9019 18.6046 13.2404 18.3669 13.2152C18.2695 13.2253 18.1267 13.1639 17.9738 13.0724L17.9326 8.83375L15.1825 6.11468H14.6701V5H13.5756V6.11468H9.60574L7.15211 8.75227V12.9136L7.16471 12.9052C6.92195 13.0993 6.68087 13.232 6.53219 13.216C6.29615 13.2412 5.81063 12.9027 5.47295 12.4903C5.12771 12.0896 4.89335 11.6839 4.89167 11.6839L4.55904 11.111L4.22892 11.6839C4.22892 11.6855 3.99624 12.0896 3.64764 12.4894C3.45444 12.7263 3.21588 12.9279 3 13.0615L3.47796 13.5394C3.95256 13.2479 4.32216 12.8137 4.55988 12.4709C4.93115 13.006 5.60399 13.7897 6.53219 13.8569C7.46123 13.7897 8.13238 13.006 8.50534 12.4709C8.87662 13.006 9.54862 13.7897 10.4777 13.8569C11.4075 13.7897 12.0787 13.0052 12.45 12.4709C12.8212 13.006 13.4941 13.7897 14.4223 13.8569C15.3522 13.7897 16.025 13.0052 16.3946 12.4709C16.7667 13.006 17.4387 13.7897 18.3686 13.8569C19.2976 13.7897 19.9696 13.0052 20.3401 12.4709C20.5761 12.8103 20.9381 13.2412 21.4069 13.5335L21.8857 13.0547C21.6723 12.9195 21.4405 12.7204 21.2515 12.4894ZM9.8359 12.896C9.68974 12.7775 9.54274 12.6431 9.41758 12.4894C9.0715 12.0887 8.83966 11.6839 8.8363 11.6839L8.55994 11.2084V9.77454H9.83674V12.896H9.8359ZM15.2312 11.1152H12.9556V9.54943H15.2312V11.1152ZM12.2366 8.76487L10.0165 6.57416H13.5756V7.26967L14.0199 7.71403H14.6692V6.57416H14.9926L17.2128 8.76487H12.2366ZM18.3249 14.5231L17.9948 15.0951C17.9948 15.0959 17.7613 15.5008 17.4135 15.9015C17.075 16.3114 16.592 16.6508 16.3534 16.6272C16.1166 16.6508 15.6319 16.3114 15.2942 15.9015C14.9473 15.5008 14.7146 15.0951 14.7104 15.0951L14.3811 14.5231L14.0493 15.0951C14.0493 15.0959 13.8158 15.5008 13.468 15.9015C13.1312 16.3114 12.6457 16.6508 12.4088 16.6272C12.1703 16.6508 11.6881 16.3114 11.3479 15.9015C11.0001 15.5008 10.77 15.0951 10.7666 15.0951L10.4348 14.5231L10.1055 15.0951C10.1055 15.0959 9.87202 15.5008 9.52426 15.9015C9.1849 16.3114 8.7019 16.6508 8.46334 16.6272C8.22646 16.6508 7.74179 16.3114 7.40411 15.9015C7.05719 15.5008 6.82451 15.0951 6.82283 15.0951L6.49271 14.5231L6.16091 15.0951C6.16091 15.0959 5.97359 15.4101 5.69555 15.757L6.19955 16.261C6.31043 16.13 6.41039 16.0006 6.49271 15.883C6.86399 16.4181 7.53599 17.2018 8.46502 17.269C9.3949 17.201 10.0661 16.4181 10.4382 15.883C10.8095 16.4181 11.4798 17.2018 12.4105 17.269C13.3387 17.201 14.0107 16.4181 14.3828 15.883C14.7541 16.4181 15.4269 17.201 16.3551 17.269C17.285 17.201 17.9562 16.4181 18.3274 15.883C18.4156 16.0098 18.5257 16.1501 18.6483 16.2912L19.1498 15.7898C18.8558 15.4294 18.6609 15.0951 18.6592 15.0951L18.3249 14.5231Z" fill="black"/>
</svg>
