<svg width="25" height="25" viewBox="0 0 25 25" fill="none" xmlns="http://www.w3.org/2000/svg">
<path d="M24.4059 12.4997L12.5005 0.594299L0.595112 12.4997L12.5005 24.4051L24.4059 12.4997Z" fill="#FFDA00"/>
<path d="M0 12.5017L12.5 0L25 12.5017L24.7026 12.7982L24.4061 12.5L24.7026 12.7982L12.5 25L0 12.5017ZM1.18944 12.5017L12.5 23.8122L23.8114 12.5008L12.5 1.18944L1.18944 12.5017Z" fill="#FF0000"/>
<path d="M13.6585 8.29159C13.3746 8.16139 13.0755 8.06646 12.7664 8.01354C12.0473 7.90266 11.2888 8.00346 10.6411 8.34367C10.1833 8.58392 9.79272 8.94849 9.52895 9.39286C9.31642 9.76667 9.18286 10.1858 9.14338 10.6143C9.14254 10.7638 9.14002 10.915 9.14422 11.0654C9.18706 11.4728 9.30886 11.8684 9.47771 12.2405C9.48527 12.259 9.50123 12.2952 9.50963 12.3136C9.57935 12.4682 9.66167 12.616 9.74063 12.7647C9.82716 12.9285 9.92628 13.0856 10.0162 13.2461C10.3152 13.7316 10.5874 14.244 10.7201 14.8026C10.768 14.99 10.7688 15.1865 10.8369 15.3688C10.8881 15.52 11.0376 15.6317 11.1998 15.6267C11.8651 15.6275 12.5295 15.6267 13.1923 15.6267C13.3284 15.6301 13.4544 15.5553 13.5292 15.4444C13.5384 15.4268 13.556 15.3915 13.5653 15.3738C13.6274 15.163 13.6342 14.9404 13.698 14.7295C13.8316 14.1961 14.0987 13.7106 14.3851 13.2452C14.7833 12.5707 15.1781 11.8567 15.2504 11.062C15.2924 10.5655 15.1966 10.0624 14.9841 9.61295C14.7195 9.03249 14.2314 8.56796 13.6585 8.29159ZM14.3079 12.6538C14.0029 13.215 13.64 13.7492 13.4275 14.3549C13.3191 14.6422 13.2679 14.9454 13.2192 15.247C12.5404 15.247 11.8609 15.2571 11.1821 15.242C11.13 14.9228 11.0696 14.6035 10.9545 14.2995C10.7159 13.6694 10.332 13.11 10.0195 12.5161C9.75659 12.0238 9.54155 11.4862 9.52055 10.9234C9.49367 10.4479 9.62303 9.96828 9.87084 9.56255C10.1716 9.07197 10.647 8.699 11.188 8.50496C12.0028 8.20591 12.9495 8.28823 13.6946 8.73512C14.0785 8.97117 14.4019 9.30634 14.6094 9.70703C14.8203 10.0993 14.9051 10.5487 14.874 10.9898C14.8354 11.5845 14.5926 12.1406 14.3079 12.6538ZM13.0226 11.3392C12.9865 11.3241 12.9512 11.3098 12.9159 11.2955C12.9042 11.2544 12.8974 11.2115 12.8748 11.1746C12.8294 11.1704 12.7782 11.1611 12.7336 11.1813C12.7194 11.2149 12.7068 11.2502 12.6942 11.2846C12.6656 11.3022 12.6354 11.3199 12.6068 11.3375C12.5774 11.3207 12.5472 11.3039 12.5169 11.2888C12.5018 11.246 12.485 11.2031 12.4674 11.1611C12.4237 11.162 12.38 11.1636 12.3355 11.1645C12.3204 11.2048 12.3044 11.246 12.2876 11.2871C12.2574 11.3039 12.2279 11.3207 12.1969 11.3392C12.1213 11.3056 12.0868 11.2376 12.0608 11.1636C12.0179 11.1645 11.9734 11.1645 11.9289 11.1662C11.9138 11.209 11.8995 11.2527 11.8844 11.2964C11.8533 11.3098 11.8214 11.3232 11.7886 11.3375C11.7517 11.3115 11.713 11.2846 11.6761 11.2569L11.6719 11.1729L11.5307 11.1687C11.5114 11.2401 11.4778 11.3358 11.3854 11.3283C11.3006 11.3266 11.2762 11.2376 11.2535 11.1704C11.2056 11.1704 11.1578 11.1712 11.1074 11.1737C11.0771 11.3165 11.1855 11.4551 11.3216 11.4904C11.4165 11.5265 11.5139 11.4728 11.5946 11.4274C11.6559 11.456 11.7139 11.5005 11.7861 11.508C11.8684 11.5055 11.9398 11.4593 12.0121 11.424C12.1204 11.5374 12.2868 11.5173 12.4044 11.4274C12.522 11.5206 12.6883 11.5324 12.8017 11.424C12.8815 11.4686 12.9739 11.5206 13.0697 11.4929C13.2141 11.4618 13.3158 11.3182 13.2973 11.1712C13.2469 11.1712 13.1957 11.1704 13.1444 11.1704C13.1301 11.2443 13.0898 11.3039 13.0226 11.3392ZM11.419 11.8575H11.3048C11.3921 12.1717 11.4308 12.4959 11.5089 12.8134C11.6131 13.4317 11.7651 14.0416 11.8634 14.6615C11.9549 14.6674 12.0473 14.6674 12.1389 14.6665C12.0751 14.4423 12.0263 14.2121 11.9575 13.9886C11.7886 13.2755 11.5853 12.5707 11.419 11.8575ZM12.2582 14.6665C12.3498 14.6665 12.443 14.6665 12.5354 14.6649C12.6757 13.8668 12.8487 13.0739 13.0041 12.2784C13.0361 12.1372 13.0529 11.9919 13.0974 11.8533C13.0705 11.8533 13.0159 11.8525 12.9899 11.8516C12.7395 12.7874 12.5144 13.7316 12.2582 14.6665ZM10.9965 17.2429C11.0082 17.3949 11.1586 17.5067 11.3056 17.505H13.0907C13.2511 17.5075 13.4132 17.3714 13.404 17.2059C13.4132 16.7473 13.4006 16.2878 13.4107 15.83C12.6051 15.83 11.7995 15.8359 10.9931 15.8275C11.0015 16.2987 10.9923 16.7708 10.9965 17.2429ZM17.3118 6L14.9732 8.33863C15.2487 8.61416 15.4814 8.93589 15.6494 9.29962C15.6998 9.40462 15.7233 9.51887 15.7628 9.62807L18.3509 7.03827L17.3118 6ZM9.49367 13.8181L6 17.3118L7.03911 18.3517L10.0716 15.3176C10.0397 15.1546 10.0246 15.0244 10.0061 14.9732C9.91872 14.6019 9.72803 14.2196 9.49367 13.8181ZM11.8676 17.9561C12.1985 18.1224 12.6597 18.004 12.8126 17.652C12.3985 17.6503 11.9843 17.6587 11.5702 17.647C11.6433 17.7721 11.7382 17.8855 11.8676 17.9561Z" fill="black"/>
</svg>
