<svg width="25" height="25" viewBox="0 0 25 25" fill="none" xmlns="http://www.w3.org/2000/svg">
<path d="M24.4059 12.4997L12.5005 0.594299L0.595112 12.4997L12.5005 24.4051L24.4059 12.4997Z" fill="#FFDA00"/>
<path d="M0 12.5017L12.5 0L25 12.5017L24.7026 12.7982L24.4061 12.5L24.7026 12.7982L12.5 25L0 12.5017ZM1.18944 12.5017L12.5 23.8122L23.8114 12.5008L12.5 1.18944L1.18944 12.5017Z" fill="#FF0000"/>
<path d="M15.4677 4.3516L14.2152 3.09912C13.7968 3.042 13.3735 3 12.9383 3C12.5175 3 12.1076 3.03948 11.7018 3.09408L10.4611 4.3348C11.2491 4.10631 12.0765 3.97275 12.9375 3.97107C13.8195 3.97191 14.6654 4.11219 15.4677 4.3516ZM4.3348 10.4611L3.09408 11.7018C3.04032 12.1076 3 12.5183 3 12.9383C3 13.5314 3.06552 14.1085 3.16549 14.673L4.54565 16.0532C4.1836 15.0812 3.97275 14.0363 3.97191 12.9383C3.97275 12.0765 4.10547 11.2491 4.3348 10.4611ZM12.94 6.11985C9.17167 6.11985 6.12238 9.17167 6.11901 12.9383C6.12154 15.9582 8.09223 18.5002 10.8122 19.3956L10.808 19.4015L9.90669 21.363C9.87897 21.3529 9.85125 21.342 9.82269 21.331L10.2519 21.7847L11.2373 19.6266L12.4898 17.5383L11.6355 15.7709L12.8056 13.9094L13.1425 15.2686L15.4273 16.9957L14.752 19.6938L16.0296 21.3915L16.3774 21.0446L15.2787 19.588L15.3526 19.2948C17.9205 18.3179 19.756 15.8516 19.7568 12.94C19.7551 9.17167 16.7033 6.11985 12.94 6.11985ZM13.5734 14.9855L13.381 14.216C13.9195 14.0295 14.3151 13.5415 14.3151 12.9392C14.3151 12.1781 13.6994 11.5624 12.9383 11.5624C12.1773 11.5624 11.5607 12.1781 11.5607 12.9392C11.5607 13.4004 11.7959 13.7968 12.1454 14.0455L11.4834 15.0972C10.782 14.6243 10.3032 13.8481 10.3015 12.9383C10.3032 11.4834 11.4826 10.304 12.9375 10.3023C14.3924 10.304 15.5718 11.4834 15.5735 12.9383C15.5727 14.006 14.93 14.9082 14.0186 15.3215L13.5734 14.9855ZM15.6516 18.0961L15.975 16.7999L14.862 15.9591C15.8675 15.3198 16.5446 14.216 16.5446 12.9383C16.5446 10.9475 14.9292 9.33295 12.9383 9.33295C10.9483 9.33295 9.33295 10.9483 9.33295 12.9383C9.33295 14.3219 10.1201 15.5113 11.2642 16.1153L11.9404 17.5123L11.3272 18.5371C8.8869 17.8323 7.09596 15.6054 7.09176 12.9375C7.0968 9.7076 9.70844 7.09512 12.9409 7.09008C16.1691 7.09596 18.7832 9.7076 18.7883 12.9375C18.7832 15.1846 17.5072 17.1166 15.6516 18.0961ZM22.7767 11.6607L21.5251 10.409C21.7653 11.2121 21.9056 12.0572 21.9065 12.9383C21.9039 14.0623 21.6813 15.1291 21.3008 16.1187L22.6902 14.7293C22.7994 14.1463 22.875 13.5524 22.875 12.9383C22.875 12.5032 22.8338 12.0798 22.7767 11.6607Z" fill="black"/>
</svg>
