<svg width="25" height="25" viewBox="0 0 25 25" fill="none" xmlns="http://www.w3.org/2000/svg">
<path d="M24.4059 12.4997L12.5005 0.594299L0.595112 12.4997L12.5005 24.4051L24.4059 12.4997Z" fill="#FFDA00"/>
<path d="M0 12.5017L12.5 0L25 12.5017L24.7026 12.7982L24.4061 12.5L24.7026 12.7982L12.5 25L0 12.5017ZM1.18944 12.5017L12.5 23.8122L23.8114 12.5008L12.5 1.18944L1.18944 12.5017Z" fill="#FF0000"/>
<path d="M10.9448 10.9629C11.4472 10.5353 12.089 10.2682 12.7988 10.2682C13.5086 10.2682 14.1504 10.5353 14.6519 10.9629C14.8988 10.7352 15.1021 10.4639 15.2508 10.159C14.5805 9.60707 13.7337 9.26098 12.7988 9.26098C11.8655 9.26098 11.0196 9.60623 10.3493 10.1564C10.4971 10.4622 10.6979 10.7344 10.9448 10.9629ZM9.33284 12.5026C9.21523 12.4959 9.09763 12.506 8.98003 12.5152C8.94559 12.721 8.91703 12.9285 8.91703 13.1436C8.91703 14.8043 9.96538 16.213 11.4321 16.7674C11.6244 16.4844 11.7605 16.1719 11.8344 15.8417C10.7239 15.4436 9.92338 14.391 9.92338 13.1436C9.92338 12.9672 9.94522 12.795 9.9763 12.627C9.76629 12.5614 9.55124 12.5144 9.33284 12.5026ZM13.7589 15.8417C13.8337 16.1719 13.9698 16.4844 14.1621 16.7674C15.6297 16.213 16.6772 14.8043 16.6772 13.1436C16.6772 12.9285 16.6486 12.721 16.6142 12.5152C16.4974 12.5068 16.3807 12.4968 16.2639 12.5026C16.0446 12.5144 15.8296 12.5631 15.6196 12.627C15.6507 12.795 15.6725 12.9672 15.6725 13.1436C15.6734 14.3919 14.8711 15.4444 13.7589 15.8417ZM7.67883 12.6135C9.07999 11.8054 10.855 12.2557 11.721 13.6031L11.9974 13.4401C11.963 13.3469 11.9369 13.2494 11.9369 13.1427C11.9369 12.7185 12.2502 12.3825 12.6543 12.3111V11.9793C11.0566 11.902 9.78141 10.5916 9.78141 8.97453C9.78141 7.50449 10.8331 6.28309 12.225 6.01512V6.00084C10.1166 6.28141 8.48525 8.08242 8.48525 10.2682C8.48525 10.4026 8.49617 10.5345 8.50793 10.6663C8.38781 10.7218 8.26769 10.7789 8.15008 10.8469C6.2575 11.939 5.51408 14.2507 6.32471 16.2172L6.33731 16.2097C5.87445 14.8698 6.40619 13.3485 7.67883 12.6135ZM17.4466 10.8461C17.329 10.7781 17.2098 10.7209 17.0888 10.6655C17.1014 10.5345 17.1115 10.4026 17.1115 10.2673C17.1115 8.08158 15.4827 6.28057 13.3734 6V6.01512C14.7653 6.28393 15.8187 7.50449 15.8187 8.97453C15.8187 10.5924 14.5402 11.9029 12.9399 11.9793V12.3094C13.3448 12.3792 13.659 12.7177 13.659 13.1427C13.659 13.2494 13.6338 13.3469 13.5985 13.4401L13.8749 13.6031C14.7409 12.2565 16.5167 11.8079 17.9179 12.6169C19.1914 13.3519 19.7206 14.8723 19.2561 16.2122L19.272 16.2198C20.0826 14.2524 19.3392 11.939 17.4466 10.8461ZM14.898 17.8444C13.4977 17.0354 13.0012 15.2739 13.7346 13.8517L13.4506 13.6871C13.2927 13.8769 13.0651 14.0063 12.7988 14.0063C12.5317 14.0063 12.3023 13.8778 12.1444 13.6871L11.863 13.8492C12.598 15.2722 12.0974 17.0337 10.697 17.8427C9.42356 18.5777 7.84179 18.2753 6.91272 17.2034L6.8976 17.211C8.19544 18.8969 10.5702 19.4102 12.4636 18.3165C12.5804 18.2484 12.6904 18.1728 12.7979 18.0955C12.9063 18.1728 13.0147 18.2484 13.1323 18.3165C15.0248 19.4093 17.3971 18.8986 18.6958 17.2135L18.6823 17.2059C17.7549 18.2761 16.1698 18.5794 14.898 17.8444Z" fill="black"/>
</svg>
