<svg width="45" height="51" viewBox="0 0 45 51" fill="none" xmlns="http://www.w3.org/2000/svg">
<path d="M49.004 1.00006H1.00012V49.0039H49.004V1.00006Z" fill="#0071BC"/>
<path d="M0 0V50.002H50V0H0ZM1.99616 48.0058V1.99816H47.9998L48.0038 48.0058H1.99616ZM4.44436 11.6089L5.55844 14.3952L25.002 6.61853L44.4456 14.3932L45.5596 11.6069L24.998 3.38027L4.44436 11.6089Z" fill="#FEFEFF"/>
<path d="M38.8531 33.8227C38.4611 33.2847 37.527 32.4006 36.977 31.8905C37.243 31.1585 37.671 29.7984 37.765 28.3903C37.777 28.2163 37.779 28.0402 37.779 27.8602C37.777 26.6821 37.563 25.522 37.397 24.796C37.609 24.81 37.761 24.824 37.761 24.824C38.9851 24.876 38.9851 22.9578 38.4551 22.7638C38.4391 22.7598 38.4211 22.7598 38.4091 22.7538C37.927 22.3638 36.3649 21.0957 34.2087 19.2995C32.6306 17.9874 30.9165 16.8833 30.1344 16.3953C30.0244 16.2593 29.9304 16.1473 29.9304 16.1473C29.9304 16.1473 28.1983 14.5752 24.994 14.6052C19.2335 14.6592 12.633 17.7274 11.7109 24.4039C14.3372 17.0534 22.6898 16.1873 24.338 16.2093C27.1082 16.2493 28.4703 18.4015 28.4703 18.4015C28.4703 18.4015 28.9863 17.7454 29.3224 17.3554C29.3404 17.3354 29.6084 17.2994 29.8884 17.2674C30.7125 17.7834 32.2606 18.7995 33.6867 19.9876C35.0628 21.1337 37.099 22.7378 37.873 23.3699C36.6089 23.5259 34.6368 23.9459 33.1847 24.526C31.0545 25.38 26.8822 28.1382 25.7461 28.7763C24.61 29.4163 24.384 27.6602 25.7341 26.0281C27.0862 24.3939 28.7883 21.7677 28.6463 20.7016C28.5043 19.6356 27.0862 16.7233 22.8938 17.4334C13.3051 18.9255 11.5289 24.82 11.5289 29.3663C11.5289 33.9127 12.807 33.2547 13.0891 35.1028C13.3751 36.9489 12.451 37.819 12.521 39.1671C13.3751 40.1632 17.3574 41.0053 19.4836 41.1573C20.4756 41.2273 20.8317 41.0153 21.3997 40.8733C21.9678 40.7313 23.0339 40.6592 23.1759 39.5232C23.2939 38.5971 23.1999 40.0292 23.1779 37.585C24.866 38.6531 28.3443 40.6272 31.4865 40.7873C31.7766 40.7973 32.0526 40.8033 32.3266 40.8033C36.1029 40.8033 38.0751 39.7272 38.1751 39.6652L38.5071 39.4812L39.2712 35.8049C39.2872 35.7228 39.3032 35.5868 39.3032 35.3848C39.3052 35.0208 39.2591 34.4187 38.8531 33.8227ZM17.7814 33.5367C16.1573 33.5367 14.8392 32.1626 14.8392 30.4684C14.8392 28.7743 16.1573 27.4002 17.7814 27.4002C19.4076 27.4002 20.7237 28.7743 20.7237 30.4684C20.7237 32.1626 19.4076 33.5367 17.7814 33.5367ZM31.9466 36.7089C31.6605 36.7469 31.3725 36.7669 31.0745 36.7669C29.1383 36.7749 26.9482 35.9749 25.246 35.1708C24.546 34.8408 23.9359 34.5148 23.4499 34.2427L23.4299 32.2666C23.4959 31.9666 23.5779 31.7045 23.6719 31.4745L30.0924 27.5482L35.8109 25.402C35.9489 26.0561 36.1029 26.9842 36.1009 27.8562C36.1049 27.9962 36.0969 28.1402 36.0909 28.2903C35.9949 29.9484 35.2128 31.7805 35.2188 31.7865L35.1768 31.8845L35.1748 31.8665C33.4287 32.2326 33.6927 32.6666 31.8906 33.1486C31.6945 33.2027 31.4045 33.2327 31.0625 33.2327C29.9124 33.2367 28.2263 32.9086 26.8342 32.5806C25.448 32.2526 24.346 31.9245 24.346 31.9265L24.28 32.1946C26.6281 32.8926 28.5223 34.0667 31.0645 34.0727C31.4545 34.0727 31.8066 34.0367 32.1126 33.9567C34.1547 33.3747 33.8847 32.9586 35.3388 32.6846L35.3308 32.6486L35.4268 32.7366C35.4348 32.7306 37.221 34.3827 37.473 34.7768C37.565 34.8988 37.603 35.0928 37.617 35.2608C36.7389 35.6348 34.8548 36.3049 31.9466 36.7089Z" fill="#FEFEFF"/>
</svg>
