<svg xmlns="http://www.w3.org/2000/svg" viewBox="0 0 48 48"><defs><style>.cls-1{fill:#418fde;}</style></defs><g id="Layer_2" data-name="Layer 2"><g id="Icons"><path d="M39.39 17.61l-.73.73-3.93 3.93017L22 35.0001H39V24.57017a9.51789 9.51789 0 013 6.92993v10.5a3 3 0 006 0v-10.5A15.51866 15.51866 0 0039.39 17.61zM21 30.34l8.34-8.33985.03-.03 2.6-2.59985h0l3.14-3.14014a15.00022 15.00022 0 00-2.61-.23H3a3 3 0 000 6H21z" class="cls-1"/><path d="M21 39H39V48H21z" class="cls-1"/><path d="M29.5 13.98008a6.50288 6.50288 0 006.33-7.98H23.16a6.50288 6.50288 0 006.34 7.98zM24.44446 4.0001H34.55554A1.41677 1.41677 0 0036 2.61265V1.3878A1.42411 1.42411 0 0034.39606.00865L24.28491 1.088A1.409 1.409 0 0023 2.4669v.14575A1.41677 1.41677 0 0024.44446 4.0001z" class="cls-1"/></g></g></svg>