<svg xmlns="http://www.w3.org/2000/svg" viewBox="0 0 48 30"><defs><style>.cls-1{fill:#418fde;}</style></defs><g id="Layer_2" data-name="Layer 2"><g id="Icons"><path d="M47.40991.58984A1.95514 1.95514 0 0046 0a2.00583 2.00583 0 00-2 2V8l-3 6h3V28a2 2 0 004 0V2A1.95536 1.95536 0 0047.40991.58984zM10 4H6L4 8V2A2 2 0 000 2V28a2 2 0 004 0V14H5z" class="cls-1"/><path d="M14 4L9 14 13 14 18 4 14 4z" class="cls-1"/><path d="M22 4L17 14 21 14 26 4 22 4z" class="cls-1"/><path d="M30 4L25 14 29 14 34 4 30 4z" class="cls-1"/><path d="M38 4L33 14 37 14 42 4 38 4z" class="cls-1"/></g></g></svg>