<svg width="45" height="51" viewBox="0 0 45 51" fill="none" xmlns="http://www.w3.org/2000/svg">
<path d="M49.004 1.00006H1.00012V49.0039H49.004V1.00006Z" fill="#0071BC"/>
<path d="M0 0V50.002H50V0H0ZM1.99616 48.0058V1.99816H47.9998L48.0038 48.0058H1.99616ZM4.44436 11.6089L5.55844 14.3952L25.002 6.61853L44.4456 14.3932L45.5596 11.6069L24.998 3.38027L4.44436 11.6089Z" fill="#FEFEFF"/>
<path d="M10.0068 16.8993C9.91284 26.4981 10.2149 36.1049 10.2909 45.6976C10.8589 45.6696 11.995 45.6196 12.5731 45.6036C12.5731 36.0449 12.6371 26.4841 12.505 16.9173C11.957 16.9173 10.5569 16.9113 10.0068 16.8993ZM40.6513 15.1872C36.549 17.2774 31.4906 16.6633 27.1602 15.6332C22.6699 14.9332 17.7995 14.4811 13.6131 16.6053C13.5831 22.2318 13.6871 27.8562 13.5571 33.4747C17.3954 33.0106 21.3098 31.5245 25.1681 32.7746C29.2344 33.5947 33.3447 34.5327 37.5071 33.8687C38.6211 33.5207 39.7452 33.2006 40.8733 32.9146C40.8693 27.0041 41.3034 21.0597 40.6513 15.1872Z" fill="#FEFEFF"/>
</svg>
