<svg width="25" height="25" viewBox="0 0 25 25" fill="none" xmlns="http://www.w3.org/2000/svg">
<path d="M24.4059 12.4997L12.5005 0.594299L0.595112 12.4997L12.5005 24.4051L24.4059 12.4997Z" fill="#FFDA00"/>
<path d="M0 12.5017L12.5 0L25 12.5017L24.7026 12.7982L24.4061 12.5L24.7026 12.7982L12.5 25L0 12.5017ZM1.18944 12.5017L12.5 23.8122L23.8114 12.5008L12.5 1.18944L1.18944 12.5017Z" fill="#FF0000"/>
<path fill-rule="evenodd" clip-rule="evenodd" d="M14.8905 5C14.5705 5.78372 14.3546 6.16004 14.3546 6.78499C14.3546 7.77535 15.3323 7.70815 15.3323 9.14791C15.3323 9.70482 14.6931 10.8203 14.7695 11.5108C15.4399 10.691 16.0589 9.72751 15.9455 8.79679C16.4739 9.44275 16.6898 9.94842 16.6898 10.5053C16.6898 10.9405 16.363 11.599 16.363 12.0266C16.363 13.3916 17.3408 13.3034 17.3408 14.4164C17.3408 15.4622 16.5335 16.7213 15.1013 17.5697C14.5108 17.9166 13.4852 18.083 12.8056 18.083C10.4914 18.083 8 16.4668 8 13.7108C8 11.9997 9.30368 11.7553 9.30368 10.7783C9.30368 10.2416 8.80052 9.48559 8.32844 8.92111C8.98868 8.87071 10.3957 9.73506 10.5292 10.6423C10.6099 10.4398 10.6611 10.1811 10.6611 10.045C10.6611 9.69138 9.73711 8.34739 9.73711 7.62835C9.73711 6.61699 10.4688 5.90216 11.738 5.05544C11.5465 5.462 11.3675 6.06008 11.3675 6.43304C11.3675 6.98323 12.0589 7.50823 12.5343 8.04499C12.8207 8.36419 13.0484 8.70271 13.1895 9.01351C13.2878 8.87323 13.3222 8.68087 13.3222 8.49775C13.3222 8.36167 13.1593 7.54687 13.1593 7.41163C13.1593 6.6212 13.7867 5.46284 14.8905 5ZM11.659 10.8581C12.0773 11.6536 12.704 12.0257 12.8636 12.7045C13.0005 12.3937 13.1055 12.0207 13.1811 11.6729C13.25 11.7452 13.486 12.5146 13.486 12.6776C13.486 12.8128 13.3768 13.5193 13.3768 13.6553C13.3768 14.0014 13.649 14.8952 14.0488 15.1497C14.4394 14.4029 14.8435 14.66 15.712 13.8989L15.6583 14.8775C15.665 15.7469 14.3546 16.5609 13.5129 16.7037C13.1845 16.7591 12.562 16.833 12.4259 16.833C11.4154 16.833 9.79171 16.2425 9.79171 14.8506C9.79171 14.0627 10.1722 13.9678 10.1722 13.4663C10.1722 13.3303 10.0639 13.1673 10.0731 13.0379C10.4965 13.1135 10.8241 13.5075 10.8241 13.7914C10.8241 13.9275 10.6065 14.4432 10.6065 14.5793C10.6065 14.7154 10.599 14.7776 10.688 14.8784C10.8325 14.723 10.8325 14.3895 11.0643 14.1795C11.465 13.8124 12.0194 12.896 12.0194 12.5432C12.0194 11.9594 11.5843 11.6393 11.5843 11.1311C11.5843 10.9934 11.6389 10.9388 11.659 10.8581Z" fill="black"/>
</svg>
