<svg width="25" height="25" viewBox="0 0 25 25" fill="none" xmlns="http://www.w3.org/2000/svg">
<path d="M24.4059 12.4997L12.5005 0.594299L0.595112 12.4997L12.5005 24.4051L24.4059 12.4997Z" fill="#FFDA00"/>
<path d="M0 12.5017L12.5 0L25 12.5017L24.7026 12.7982L24.4061 12.5L24.7026 12.7982L12.5 25L0 12.5017ZM1.18944 12.5017L12.5 23.8122L23.8114 12.5008L12.5 1.18944L1.18944 12.5017Z" fill="#FF0000"/>
<path d="M8.87281 9.22565C9.12733 9.71116 9.73045 9.964 10.2554 9.8086C10.5654 9.72292 10.8317 9.50789 10.9837 9.22565C10.9921 9.20717 11.0114 9.16853 11.0198 9.14921C11.2542 8.63681 11.0744 7.96481 10.5914 7.66325C10.2235 7.41209 9.71365 7.39781 9.33061 7.62209C9.13321 7.72961 8.97949 7.89761 8.87281 8.09333C8.86357 8.11265 8.84509 8.14961 8.83501 8.16809C8.69977 8.47805 8.70229 8.84093 8.83585 9.15005C8.84593 9.16937 8.86357 9.20717 8.87281 9.22565ZM17.5853 17.1535C17.4786 17.0368 17.3257 16.9897 17.1921 16.9167C16.7856 16.71 16.3757 16.5067 15.9708 16.2976C15.896 16.2648 15.8204 16.2262 15.7474 16.1859C15.6961 16.164 15.6457 16.1388 15.5987 16.1111C15.5491 16.0884 15.4996 16.0657 15.4542 16.0372C15.3778 16.0019 15.3022 15.9666 15.2291 15.9238C15.1888 15.9053 15.1493 15.886 15.109 15.8675C15.0376 15.8263 14.962 15.7911 14.8889 15.7558C14.4092 15.5097 13.9254 15.2719 13.4466 15.0258C13.3937 14.9981 13.3366 14.9771 13.282 14.9561C13.9128 14.5327 14.5226 14.0766 15.1543 13.6516C15.3568 14.2186 15.6004 14.7721 15.8196 15.3341C15.9229 15.6306 16.232 15.8339 16.5445 15.8171C16.799 15.8188 17.0426 15.6709 17.1728 15.4551C17.1837 15.4357 17.2022 15.3988 17.2115 15.3795C17.2585 15.256 17.2929 15.1207 17.2736 14.988C17.2493 14.7789 17.1325 14.5974 17.0603 14.4026C17.0216 14.316 16.983 14.2295 16.9469 14.1413C16.6646 13.4903 16.3908 12.8351 16.1077 12.1833C16.0094 11.9876 15.823 11.8347 15.6079 11.7809C15.4156 11.7515 15.2039 11.7599 15.0359 11.8725C14.3924 12.337 13.7591 12.8158 13.1123 13.2744C12.9174 12.4386 12.7326 11.6003 12.5335 10.7662C12.7586 10.636 12.9779 10.4966 13.2055 10.3689C13.2517 10.3445 13.2962 10.316 13.3206 10.2689C13.9405 9.23489 14.5579 8.20001 15.1778 7.16597C15.3257 6.93077 15.3341 6.61913 15.198 6.37806C15.0115 6.04122 14.5546 5.90178 14.2085 6.07398C13.9758 6.19074 13.8582 6.42761 13.7389 6.64601C13.6507 6.79637 13.5634 6.94589 13.4785 7.09877C13.4248 7.18361 13.3777 7.27181 13.3282 7.35917C13.0896 7.76825 12.8527 8.17901 12.62 8.59061C12.5159 8.76197 12.4201 8.93669 12.3193 9.10973C12.2748 9.18113 12.1933 9.21053 12.1228 9.24665C11.9766 9.33065 11.8262 9.40457 11.6818 9.48941C11.5213 9.57593 11.3584 9.65992 11.1996 9.75064C11.0442 9.82708 10.898 9.91696 10.7435 9.9934C10.5982 10.0782 10.4495 10.153 10.305 10.2362C10.1656 10.3076 10.0295 10.3848 9.89341 10.4604C9.73885 10.5377 9.59269 10.6293 9.43729 10.7049C9.19117 10.8443 8.89213 10.9535 8.76949 11.2341C8.21342 12.6302 7.66574 14.0304 7.10714 15.4257C7.03574 15.5962 6.96434 15.7885 7.01978 15.9742C7.0601 16.2043 7.22138 16.3925 7.42046 16.5067C7.5137 16.5387 7.60694 16.5765 7.70522 16.5874C7.84298 16.6033 7.97654 16.5513 8.10422 16.5051C8.25962 16.4143 8.39821 16.2799 8.46205 16.1086C8.88709 14.9284 9.31633 13.7507 9.73549 12.5697C9.75481 12.5226 9.74389 12.447 9.80941 12.4428C9.82957 12.5159 9.85057 12.589 9.87829 12.6587C10.1462 13.3559 10.4125 14.054 10.7191 14.7352C10.7989 14.9091 10.877 15.0855 10.9904 15.2409C11.1349 15.4307 11.308 15.5987 11.4978 15.7407C11.6003 15.8179 11.7137 15.8793 11.8229 15.9465C11.8867 15.9801 11.9497 16.012 12.0152 16.0397C12.2051 16.1439 12.4277 16.1573 12.6116 16.2682C12.9241 16.4286 13.2349 16.5899 13.5491 16.747C13.597 16.7747 13.6457 16.7991 13.6961 16.8209C14.1404 17.0553 14.5898 17.2762 15.0367 17.5097C15.0863 17.5324 15.1358 17.5559 15.1846 17.5845C15.2224 17.6021 15.261 17.6223 15.3013 17.6416C15.319 17.6508 15.3542 17.6693 15.3736 17.6794C15.786 17.8894 16.1959 18.1053 16.6109 18.3111C16.6445 18.3287 16.6772 18.3489 16.71 18.369C16.9275 18.4707 17.1779 18.4799 17.3946 18.3724C17.6617 18.2304 17.8423 17.9314 17.8129 17.6265C17.7869 17.4509 17.7205 17.2737 17.5853 17.1535ZM15.9615 9.25757L15.7163 9.23405L15.5617 10.8384L15.8095 10.862L15.9615 9.25757ZM17.0829 10.2378L16.8872 10.0866L16.122 11.0795L16.3177 11.2307L17.0829 10.2378ZM14.7419 10.7603L14.9695 11.1442L15.182 11.0165L14.9519 10.6352L14.7419 10.7603ZM16.4966 11.88L17.2593 11.5751L17.1678 11.3458L16.4051 11.6524L16.4966 11.88Z" fill="black"/>
</svg>
