<svg width="25" height="25" viewBox="0 0 25 25" fill="none" xmlns="http://www.w3.org/2000/svg">
<path d="M24.4059 12.4997L12.5005 0.594299L0.595112 12.4997L12.5005 24.4051L24.4059 12.4997Z" fill="#FFDA00"/>
<path d="M0 12.5017L12.5 0L25 12.5017L24.7026 12.7982L24.4061 12.5L24.7026 12.7982L12.5 25L0 12.5017ZM1.18944 12.5017L12.5 23.8122L23.8114 12.5008L12.5 1.18944L1.18944 12.5017Z" fill="#FF0000"/>
<path d="M5.22811 15.3008C6.44275 15.2235 6.44275 14.2374 7.20042 14.3155C7.95894 14.2374 7.95894 15.2244 9.1719 15.3008C10.3849 15.2235 10.3849 14.2374 11.1442 14.3155C11.9019 14.2374 11.9019 15.2244 13.1157 15.3008C14.3286 15.2235 14.3286 14.2374 15.0863 14.3155C15.8448 14.2374 15.8448 15.2244 17.0578 15.3008C18.2724 15.2235 18.2724 14.2374 19.0301 14.3155C19.7349 14.2433 19.797 15.0791 20.7714 15.2622L22.4371 13.5965C21.7483 13.8753 21.6232 14.5171 21.0016 14.4533C20.2447 14.5305 20.2447 13.5444 19.0293 13.4679C17.8163 13.5452 17.8163 14.5314 17.057 14.4533C16.7168 14.4885 16.5278 14.3054 16.3136 14.0895L16.3178 13.6217L15.2854 12.8564C15.3627 12.801 16.0716 12.2835 16.2942 11.9946C16.3665 11.9005 16.3992 11.8216 16.3606 11.777C16.1951 11.5847 15.7256 11.3638 15.7256 11.3638L14.1606 12.0232L13.9641 11.877C13.9641 11.877 14.626 11.4083 14.862 11.1017C14.9343 11.0076 14.967 10.9286 14.9284 10.8841C14.7629 10.6918 14.2934 10.4708 14.2934 10.4708L12.7226 11.1328C12.7226 11.1328 11.6667 10.4036 10.9577 9.94668C10.4697 10.0836 9.79518 10.3835 9.43818 10.5481C8.49486 10.0147 7.54734 9.49056 6.58219 9C6.9123 10.428 7.2567 11.016 7.5339 12.4574L10.1303 13.8879C9.80694 14.1777 9.61962 14.5003 9.1719 14.4541C8.41422 14.5314 8.41422 13.5452 7.20042 13.4688C5.98831 13.5461 5.98831 14.5322 5.22811 14.4541C4.47127 14.5314 4.47127 13.5452 3.2558 13.4688C2.56784 13.5125 2.26796 13.8451 2 14.1122L2.53844 14.6507C2.74256 14.4474 2.93072 14.2827 3.2558 14.3172C4.01431 14.2374 4.01431 15.2235 5.22811 15.3008ZM13.3374 13.9367C13.5474 14.0711 13.487 14.3121 13.34 14.4381C13.2711 14.4533 13.1988 14.4617 13.114 14.4533C13.0586 14.4591 13.014 14.4482 12.9653 14.4432C12.9586 14.4373 12.951 14.4365 12.9443 14.4297C12.6512 14.1878 13.0359 13.6956 13.3374 13.9367ZM11.959 13.3344C11.9405 13.5032 11.8943 13.599 11.8322 13.6544C11.7196 13.5931 11.581 13.5486 11.4265 13.5141C11.4785 13.1269 11.6558 13.0631 11.959 13.3344Z" fill="black"/>
</svg>
