<svg width="25" height="25" viewBox="0 0 25 25" fill="none" xmlns="http://www.w3.org/2000/svg">
<path d="M24.4059 12.4997L12.5005 0.594299L0.595112 12.4997L12.5005 24.4051L24.4059 12.4997Z" fill="#FFDA00"/>
<path d="M0 12.5017L12.5 0L25 12.5017L24.7026 12.7982L24.4061 12.5L24.7026 12.7982L12.5 25L0 12.5017ZM1.18944 12.5017L12.5 23.8122L23.8114 12.5008L12.5 1.18944L1.18944 12.5017Z" fill="#FF0000"/>
<path d="M13.1656 17.0302L12.9027 17.6602L13.5856 17.0823L13.1656 17.0302ZM18.35 9.98177C18.9103 9.42149 18.5684 6.7965 18.5684 6.7965C18.5684 6.7965 17.5033 6.35634 15.4101 6.0615C13.2899 5.76414 8.44396 6.62682 7.18396 6.90654C6.96304 7.97165 7.021 8.70581 7 9.50885C7.42 10.4891 11.898 12.8604 11.9577 13.2183C12.0988 14.0583 10.7892 14.6009 10.7892 15.5812C10.7892 16.5615 11.6611 17.3662 12.3609 18.0659C12.7809 17.7862 12.3516 16.2759 12.9119 15.7156C13.4722 15.1553 16.5289 13.6215 16.9489 12.6412C17.185 12.091 16.8666 11.5702 16.5424 11.2149L14.9691 10.2438L16.2165 10.731C16.67 10.6605 17.8956 10.4354 18.35 9.98177ZM16.2408 11.4249L16.5508 11.3804L16.3282 11.603C16.3265 11.6046 16.2627 11.6685 16.0207 11.881H16.0392C16.1291 11.8793 16.2417 11.8869 16.3752 11.9003C16.5533 11.9415 16.6566 11.897 16.7137 12.0843C16.6516 12.2834 16.5264 12.243 16.4054 12.3052C16.2837 12.3405 16.1669 12.3657 16.1669 12.3657L15.7771 12.4892L15.8032 12.3976C15.8032 12.3968 16.2249 12.1355 16.3257 12.107C16.2097 12.0944 16.1148 12.0902 16.0384 12.0902C15.8847 12.0902 15.8065 12.1044 15.7477 12.1061C15.7477 12.1044 15.6553 12.1061 15.6259 11.9961C15.6839 11.8298 15.7133 11.8961 15.8166 11.7802C15.8553 11.7458 15.8897 11.7155 15.9208 11.6886C15.6763 11.7306 15.379 11.7424 15.2773 11.7945L15.2723 11.8424L15.2731 11.8432H15.2706C15.2715 11.8432 15.2723 11.8432 15.2723 11.8424L15.1782 11.6559C15.442 11.5282 16.2333 11.4266 16.2408 11.4249ZM15.8233 8.01953C15.8233 8.01953 15.9913 7.86497 16.1711 7.67849C15.2782 7.67681 12.549 7.66422 13.4545 7.58526C13.9938 7.53822 14.7145 7.51554 15.3017 7.50546C15.888 7.49454 16.3399 7.49538 16.3399 7.49538C16.1644 7.3383 15.6243 7.21398 15.2723 7.14594C14.9615 7.12578 14.6137 7.10058 14.2509 7.07034C13.1278 6.9771 8.77491 7.39794 8.77491 7.39794C8.77491 7.39794 13.594 6.83682 14.3911 6.78978C15.1866 6.74274 16.6054 6.92922 16.6054 6.92922C17.043 6.97542 18.0636 7.29294 18.0636 7.29294C17.2866 7.1871 17.085 7.38366 16.6961 7.6659C16.9876 7.62222 17.3362 7.95905 17.3362 7.95905C17.3362 7.95905 16.9976 8.12201 16.8599 8.30933C16.723 8.49749 16.917 8.69069 16.917 8.69069L16.2123 8.40593C16.2123 8.40593 16.4626 8.09009 16.56 8.07581C16.2845 7.78181 15.8233 8.01953 15.8233 8.01953ZM10.0156 17.1881L11.4856 17.8181L10.2777 16.9252L10.0156 17.1881ZM13.1656 18.0802L15.0035 17.4502L14.7935 17.0823L13.1656 18.0802Z" fill="black"/>
</svg>
