<svg width="25" height="25" viewBox="0 0 25 25" fill="none" xmlns="http://www.w3.org/2000/svg">
<path d="M24.4059 12.4997L12.5005 0.594299L0.595112 12.4997L12.5005 24.4051L24.4059 12.4997Z" fill="#FFDA00"/>
<path d="M0 12.5017L12.5 0L25 12.5017L24.7026 12.7982L24.4061 12.5L24.7026 12.7982L12.5 25L0 12.5017ZM1.18944 12.5017L12.5 23.8122L23.8114 12.5008L12.5 1.18944L1.18944 12.5017Z" fill="#FF0000"/>
<path d="M8.40532 16.9154C8.40532 16.5853 8.37676 16.2703 8.37172 15.9763L8.59432 15.9494C9.12771 15.8579 9.29067 15.3833 9.41163 15.3673C9.74259 15.1716 10.108 15.0674 10.47 15.0674C10.5003 15.0674 10.5221 15.0674 10.5431 15.0691C10.9371 15.0867 11.31 15.1304 11.6477 15.2505C11.9451 15.3547 12.2491 15.4001 12.544 15.416C12.6028 15.4194 12.6591 15.4194 12.7069 15.4194C12.9657 15.4194 13.2084 15.3824 13.4369 15.3421C13.3437 15.7293 13.3151 16.1233 13.3151 16.508C13.3151 16.671 13.3185 16.8348 13.3277 16.9994C13.4033 17.9494 13.5184 18.8877 13.6217 19.821L14.3743 19.0692C14.2979 18.414 14.2215 17.7638 14.1694 17.1162C14.1568 16.9364 14.1501 16.7499 14.1501 16.5668C14.1501 16.1342 14.1912 15.7151 14.3239 15.3345C14.4231 15.0506 14.5239 14.7827 14.6658 14.5626C14.775 14.3845 14.9783 14.2157 15.1791 13.9855C15.6604 13.416 16.1543 12.8683 16.6936 12.3744C16.9943 12.0997 17.2118 11.7763 17.4151 11.4705C17.5378 11.2815 17.678 11.0489 17.7041 10.754C17.7083 10.7112 17.7066 10.6826 17.7066 10.6608C17.7041 10.4432 17.6629 10.2635 17.6629 10.1333C17.6612 10.0812 17.6596 10.0451 17.6596 10.0106C17.6596 9.58475 17.783 9.14123 17.92 8.6868C17.9972 8.4012 18.0661 8.09376 18.0661 7.77288C18.0661 7.64436 18.0544 7.51164 18.0275 7.3806L18.0443 7.37472L17.9779 7.19412C17.9771 7.18992 17.9754 7.18656 17.9746 7.18236L17.904 6.98328L17.8838 6.99084C17.7234 6.72036 17.4664 6.55152 17.2312 6.43728C17.1614 6.3978 17.0783 6.35664 16.9909 6.31884C16.901 6.28104 16.817 6.25416 16.7507 6.22896C16.7616 6.23064 16.7507 6.21804 16.7507 6.21804C16.5819 5.97864 16.497 5.49061 16.035 5.20669C15.9913 5.17897 15.9535 5.16553 15.9309 5.15713C15.7553 5.04121 15.5655 4.99837 15.3916 5.00005C15.2085 5.00005 15.0413 5.03953 14.8918 5.09329C14.7574 5.15629 14.4718 5.09833 14.1249 5.19577C14.077 5.20837 14.0341 5.22013 14.0039 5.22769C13.9182 5.18737 13.7511 5.09245 13.531 5.08657C13.5285 5.08657 13.5091 5.08657 13.5091 5.08657C13.4982 5.08657 13.4722 5.08489 13.4327 5.09329C12.9497 5.14705 12.5599 5.42845 12.2626 5.72076C12.1391 5.84592 12.0358 5.90388 12.0333 5.90052H12.0173C12.0148 5.90052 12.0097 5.90136 12.0039 5.9022C11.8401 5.88288 11.5847 5.76025 11.2621 5.75521C11.2033 5.75353 11.1387 5.75857 11.0715 5.77284C10.6439 5.85012 10.3801 6.16092 10.1777 6.37092C10.0862 6.48012 10.0055 6.51288 10.0055 6.5196H9.99795C9.80055 6.49104 9.60651 6.4608 9.40323 6.4608C9.21003 6.4608 8.99919 6.48768 8.79255 6.58092C8.4616 6.72624 8.2978 7.01772 8.17432 7.22436C7.99708 7.53852 7.71064 7.84932 7.525 8.27184C7.399 8.55576 7.1974 8.86487 7.11004 9.26723C7.00252 9.72167 7.02016 10.1669 7.00588 10.5717C7.00252 10.6826 7 10.7943 7 10.9044C7 11.2958 7.01764 11.6822 7.02352 12.0627C7.02856 12.3987 7.12768 12.7045 7.23688 12.9775C7.4074 13.4193 7.5628 13.857 7.62328 14.2971C7.63588 14.382 7.64092 14.4643 7.64092 14.5525C7.64092 14.8364 7.5838 15.1506 7.56028 15.4941C7.55272 15.605 7.54852 15.7184 7.54852 15.8318C7.54852 16.0889 7.56364 16.3367 7.56784 16.5752V16.6063C7.56784 16.9641 7.58548 17.3169 7.60732 17.6672L8.49604 18.5559C8.45992 18.0351 8.43388 17.5135 8.40196 16.9834C8.407 16.9734 8.40532 16.9423 8.40532 16.9154ZM14.6095 9.67715V9.67631C14.6247 9.67967 14.6641 9.69899 14.7297 9.73511C14.7372 9.74771 14.7834 9.80483 14.8078 9.85355C14.938 10.0745 15.0648 10.2727 15.2404 10.4197L15.3235 10.5188C15.3723 10.5919 15.5159 10.6843 15.5949 10.686L15.7452 10.691L16.0619 10.6961L15.9023 10.3013C15.7847 9.99971 15.6352 9.72923 15.4999 9.46967C15.5764 9.48815 15.657 9.50495 15.7419 9.51839C15.9451 9.54947 16.1442 9.57047 16.3383 9.59231L16.4298 9.60155L16.6902 9.63011L16.6524 9.27983L16.649 9.25127L16.6398 9.22943C16.5768 9.04295 16.392 8.98667 16.329 8.96399L16.3282 8.96651C16.1963 8.91947 15.7351 8.79767 15.4512 8.69016C15.5772 8.55744 15.6957 8.47428 15.8603 8.42556C16.1257 8.35584 16.2366 8.2626 16.3954 8.15256C16.4727 8.07528 16.5877 8.02152 16.6919 7.91148L16.7372 7.85604L16.7448 7.662L16.7591 7.3134L16.3341 7.51668C16.3189 7.53096 15.4764 7.88628 15.1639 7.8972L15.1413 7.89552C15.0976 7.89552 15.0438 7.88292 14.9724 7.85436C14.9346 7.8258 14.8531 7.7628 14.7834 7.69644C14.6003 7.5318 14.4651 7.32096 14.3878 7.09164C14.3013 6.84048 14.2349 6.59604 14.2349 6.37848C14.2349 6.29952 14.2425 6.23148 14.2576 6.16512C14.2828 6.03912 14.3802 5.93832 14.4625 5.92404C14.5079 5.9148 14.5541 5.90976 14.6062 5.90976C14.7213 5.90976 14.8431 5.93664 14.9607 5.9904C15.0111 6.02484 15.0749 6.1038 15.1606 6.1962H15.0186L15.4151 6.43644C15.4563 6.4692 15.5016 6.50028 15.5487 6.53052C15.5949 6.5574 15.6293 6.57084 15.6486 6.5784L15.6621 6.58596C16.0695 6.82872 16.4895 6.8934 16.8061 7.02612C16.8817 7.06224 16.9548 7.10004 17.0086 7.14288C17.1278 7.2294 17.206 7.37976 17.2228 7.54356C17.2295 7.59564 17.232 7.64772 17.232 7.70904C17.232 8.01228 17.1446 8.33904 17.043 8.67504C16.9254 9.06815 16.8271 9.48815 16.8271 9.93083C16.8271 9.99887 16.8288 10.0711 16.8364 10.1484C16.8439 10.3113 16.8725 10.4642 16.8725 10.5759C16.8725 10.6457 16.8632 10.6961 16.8439 10.7448C16.7776 10.9195 16.6516 11.0951 16.513 11.2925C16.2685 11.6537 15.8947 11.9586 15.5377 12.3307C15.0581 12.7868 14.6793 13.311 14.2441 13.7411C13.9879 13.9998 13.8166 14.3013 13.6872 14.6063C13.657 14.6079 13.6234 14.6105 13.5906 14.6105C13.2706 14.6105 12.9153 14.5155 12.5154 14.4702C12.3961 14.4576 12.2777 14.4072 12.1777 14.3249C11.8879 14.1132 11.5755 13.7654 11.0908 13.6369C11.0933 13.6302 11.0958 13.6243 11.0975 13.6176L11.1076 13.6067V13.526C11.1076 13.4647 11.1017 13.395 11.1017 13.2908C11.1017 12.9473 11.1412 12.3063 11.431 11.7032C11.5956 11.3529 11.9173 11.0673 12.2785 10.8179C12.6045 10.5986 12.8867 10.3651 13.1874 10.245C13.4646 10.1299 13.7519 10.0115 14.0358 9.86951C14.2551 9.76535 14.4567 9.67295 14.6095 9.67715ZM12.9984 6.18864C13.1345 6.06012 13.2924 5.96016 13.4554 5.9022C13.4184 6.01812 13.3949 6.14412 13.3949 6.2802V6.3054C13.4025 6.68676 13.5159 7.03704 13.6284 7.35456C13.7855 7.73508 14.0165 7.9602 14.0022 8.11644C14.0056 8.15592 14.0056 8.18616 14.0056 8.22564C14.0056 8.45748 13.9518 8.67672 13.8351 8.82539C13.6872 8.99675 13.4512 9.10931 13.1925 9.14543C13.1925 9.07991 13.1916 9.01439 13.1916 8.94971C13.1916 8.91611 13.1899 8.89175 13.1899 8.87999L13.1916 8.87411V8.84723C13.1899 8.42304 13.2815 7.9686 13.2815 7.4772C13.2815 7.42176 13.2815 7.36716 13.279 7.3134C13.2647 7.1244 13.2437 6.87156 13.0564 6.65232C12.969 6.56664 12.8833 6.465 12.7909 6.37176C12.8682 6.30708 12.9363 6.24324 12.9984 6.18864ZM11.3134 6.53136C11.3419 6.52464 11.3688 6.52044 11.3907 6.52044L11.3999 6.39108V6.52044C11.5318 6.51036 11.767 6.63972 12.087 6.66408C12.2382 6.948 12.4659 7.08408 12.4213 7.10172C12.439 7.22184 12.4457 7.33692 12.4457 7.46124C12.4457 7.78968 12.3869 8.1492 12.3667 8.53476C12.3609 8.5944 12.3592 8.66076 12.3592 8.72712C12.3592 8.85984 12.3651 8.98751 12.3651 9.11015C12.3651 9.32183 12.3457 9.49991 12.2752 9.65447C12.2004 9.84683 11.9299 9.98543 11.6469 10.0157C11.6292 9.99131 11.6099 9.96443 11.5897 9.93671C11.5503 9.88127 11.5066 9.82583 11.4814 9.78383C11.457 9.74855 11.4637 9.74687 11.457 9.74603V9.73847H11.4562C11.5225 9.45203 11.5503 9.19583 11.5486 8.93963C11.5503 8.66244 11.5192 8.38608 11.4461 8.1156C11.3705 7.83336 11.2865 7.49064 11.0362 7.20168C10.9606 7.11516 10.8791 7.01856 10.7833 6.92364C10.9547 6.75228 11.1664 6.55992 11.3134 6.53136ZM9.22935 7.27896C9.31419 7.2462 9.39987 7.2336 9.49311 7.2336C9.65271 7.23192 9.84843 7.26888 10.071 7.27728C10.1105 7.32684 10.1441 7.35792 10.1542 7.3722C10.3323 7.55364 10.465 7.70064 10.5154 7.84596C10.6481 8.18196 10.717 8.53896 10.717 8.89679C10.717 9.15047 10.6825 9.40415 10.6128 9.64607H10.6111L10.5439 9.84935C10.5087 9.95519 10.444 10.0232 10.3877 10.0434C10.3608 10.0543 10.3482 10.0577 10.3104 10.0594L10.2995 10.0577C10.2399 10.061 10.1181 10.0232 9.96855 9.99299C9.82239 9.95351 9.67707 9.92999 9.56955 9.88883C9.56955 9.88715 9.49563 9.74183 9.48135 9.57971C9.44943 9.34031 9.41751 9.08747 9.34527 8.82875C9.26211 8.5272 9.05547 7.94508 9.03867 7.88712L9.00255 7.76196L8.95047 7.578C9.05127 7.41588 9.14703 7.29996 9.22935 7.27896ZM7.81816 10.9128C7.81816 10.8086 7.81984 10.7095 7.8274 10.6163C7.85344 10.2206 7.84672 9.84935 7.91644 9.52007C7.92484 9.48311 7.9366 9.44279 7.95256 9.39911C8.12308 9.41591 8.407 9.44447 8.57752 9.46799L8.5918 9.43523L8.5792 9.46967C8.5876 9.47219 8.59852 9.47807 8.61279 9.48395C8.62036 9.49151 8.62036 9.49403 8.62287 9.49319C8.67999 9.63431 8.66571 9.95099 8.89167 10.2425C8.92695 10.2836 8.96307 10.3214 8.99835 10.3559C8.88663 10.4239 8.78499 10.4953 8.69092 10.5583C8.39944 10.7523 8.09872 10.9859 7.82152 11.1505C7.81984 11.0707 7.81816 10.9917 7.81816 10.9128ZM7.90804 12.4391L8.12308 12.2366C8.20456 12.1585 8.29024 12.0434 8.4028 11.9267C8.63043 11.8149 9.00759 11.5335 9.19827 11.4504C9.42591 11.3403 9.65691 11.2429 9.88875 11.1698C9.86523 11.2009 9.84003 11.2328 9.81651 11.2656C9.50403 11.7007 9.16635 12.1602 8.94711 12.7045C8.85975 12.9313 8.73543 13.1858 8.68839 13.4949L8.67076 13.6117L8.61784 13.9427L9.05463 13.8074C9.35283 13.6587 9.49311 13.3547 9.59559 13.164C9.77787 12.618 10.1189 12.2324 10.4969 11.7536C10.3633 12.1652 10.302 12.597 10.302 13.022V13.0279C10.3113 13.2715 10.4633 13.5092 10.533 13.6167C10.2415 13.6688 10.0097 13.7814 9.83247 13.7923C9.53175 13.8209 9.21171 13.8301 8.87907 13.8822L8.79927 13.8948L8.74719 13.9595C8.66067 14.0636 8.62792 14.1737 8.62372 14.2089L8.60188 14.2845L8.53552 14.5357L8.88999 14.5525C9.04707 14.5592 9.21087 14.5718 9.38307 14.5785C9.22347 14.6483 9.06807 14.7373 8.92191 14.8524C8.75559 15.0162 8.56576 15.1749 8.40952 15.3883C8.44228 15.1481 8.4658 14.9045 8.4658 14.6583C8.4658 14.5231 8.46076 14.387 8.4406 14.2509C8.37256 13.6436 8.13988 13.0993 7.95592 12.5894C7.93744 12.539 7.92148 12.4895 7.90804 12.4391Z" fill="black"/>
</svg>
