<svg width="25" height="25" viewBox="0 0 25 25" fill="none" xmlns="http://www.w3.org/2000/svg">
<path d="M24.4059 12.4997L12.5005 0.594299L0.595112 12.4997L12.5005 24.4051L24.4059 12.4997Z" fill="#FFDA00"/>
<path d="M0 12.5017L12.5 0L25 12.5017L24.7026 12.7982L24.4061 12.5L24.7026 12.7982L12.5 25L0 12.5017ZM1.18944 12.5017L12.5 23.8122L23.8114 12.5008L12.5 1.18944L1.18944 12.5017Z" fill="#FF0000"/>
<path d="M4.84255 9.01579L4 9.8575L6.55116 12.9429L4.84255 9.01579ZM6.30335 7.55415L5.1962 8.6613L7.38614 12.433C7.38614 12.302 6.57972 8.7621 6.30335 7.55415ZM14.9766 7.28786L14.5373 6.84853L11.3847 11.0814L14.9766 7.28786ZM13.3512 5.66241L12.5641 4.87531L9.05023 13.3831L13.3512 5.66241ZM20.5855 13.2814L20.0562 12.3885L10.868 14.5306L20.5855 13.2814ZM16.681 8.99227L15.8796 8.19005L9.68193 14.25L16.681 8.99227ZM18.3308 10.6421L17.7168 10.0272L11.9013 13.4595L18.3308 10.6421ZM18.8323 15.1866L19.3069 14.712L13.6032 14.9657L18.8323 15.1866ZM17.7059 16.3123L18.2006 15.8175L10.5934 15.4428L17.7059 16.3123ZM15.7343 18.2846L16.0812 17.9377L10.2363 16.8658L15.7343 18.2846ZM14.0828 19.9353L14.9917 19.0264L9.08887 17.0238C9.39044 17.1246 12.7371 19.128 14.0828 19.9353ZM10.6933 6.63348C10.821 6.80401 11.0075 6.74436 11.0856 6.54948C11.1621 6.35963 11.1478 5.85814 11.3099 5.73717C11.4451 5.63553 11.7299 5.53557 11.7299 5.2886C11.7299 5.17016 11.7459 4.92823 11.6182 4.89631C11.4561 4.85599 11.2973 4.85263 11.1419 5.00803C11.0243 5.12563 10.9823 5.29028 10.8899 5.42804C10.8344 5.51205 10.7219 5.57925 10.7219 5.68005V5.70777C10.6748 5.72625 10.627 5.74137 10.5816 5.76405C10.4657 5.82202 10.2011 5.86234 10.3573 6.07234C10.4791 6.23699 10.5463 6.43775 10.6933 6.63348ZM15.5663 12.7959C15.6041 12.8051 15.6411 12.8144 15.6789 12.8236C15.7923 12.8522 16.2459 12.9194 16.2669 12.7682C16.2854 12.6355 16.3459 12.3381 16.1829 12.2079C16.0376 12.092 15.8889 12.0155 15.678 12.0676C15.4899 12.1146 15.1833 12.3171 15.2017 12.2919C15.1833 12.2953 15.0136 12.3112 14.9775 12.3473C14.9262 12.3994 14.6977 12.6422 14.8935 12.7396C15.0766 12.8312 15.3403 12.7396 15.5663 12.7959ZM7.75239 10.779C7.91284 10.779 8.10016 10.9109 8.22785 10.9747C8.23793 10.9798 8.24381 10.9781 8.25221 10.9806L8.21441 12.7069L9.85666 4L8.36981 5.48601L8.29001 9.19052C8.13461 9.17792 7.92796 9.19136 7.72299 9.29384C7.50291 9.40388 7.3727 9.60213 7.49787 9.85414C7.64235 10.1423 7.51215 10.2044 7.38614 10.4144C7.27862 10.5967 7.61127 10.779 7.75239 10.779ZM9.20816 15.1497C9.209 15.1463 8.80159 15.0934 8.67558 15.0934C8.52858 15.0934 8.53614 15.468 8.53614 15.5697C8.53614 15.6923 8.33285 15.7116 8.22785 15.7377C8.0674 15.778 8.55882 15.9334 8.62014 15.9334C8.92423 15.9334 9.10651 15.9233 9.293 15.7377C9.41732 15.6134 9.40472 15.5042 9.40472 15.3177C9.40472 15.1488 9.38792 15.1497 9.20816 15.1497ZM14.8951 16.8305C15.1413 16.8801 15.3454 16.9994 15.5957 17.0826C15.7982 17.1506 15.9754 17.0473 16.0157 16.8868C16.0334 16.8138 15.8192 16.634 15.7629 16.5785C15.5974 16.4131 15.5554 16.5063 15.5109 16.55V16.6617C15.5109 16.3534 14.4432 16.4374 14.2223 16.4374C13.8779 16.4374 13.9652 16.6525 14.1668 16.7734C14.3315 16.8726 14.7406 16.7986 14.8951 16.8305ZM11.7862 10.0793C11.9727 9.98602 11.9315 9.78526 11.8702 9.63069C11.6518 9.41312 11.4275 9.8197 11.3376 9.93898C11.2024 10.1196 11.7131 10.1154 11.7862 10.0793ZM8.11612 16.466C7.86076 16.4021 7.78347 16.3685 7.72383 16.13C7.67595 15.9426 7.75407 15.8158 7.80784 15.71C7.90192 15.5201 7.75155 15.5495 7.61211 15.5142C7.44158 15.4714 7.30634 15.5621 7.16438 15.5982C6.89725 15.6654 6.93337 15.4159 6.96865 15.3462C7.06441 15.1539 7.18706 15.2051 7.13582 14.9548C7.11565 14.8523 6.77124 14.864 6.68808 14.8431C6.51924 14.8002 6.49404 14.486 6.46379 14.3668C6.42515 14.2139 6.49236 14.2744 6.37979 14.0862C3.84124 15.9712 6.13114 18.6652 8.62014 17.1397C8.78899 17.0355 8.53278 16.7894 8.47986 16.7197C8.36309 16.5617 8.29337 16.5105 8.11612 16.466Z" fill="black"/>
</svg>
