<svg width="50" height="50" viewBox="0 0 50 50" fill="none" xmlns="http://www.w3.org/2000/svg">
<path d="M25 49C38.2548 49 49 38.2548 49 25C49 11.7452 38.2548 1 25 1C11.7452 1 1 11.7452 1 25C1 38.2548 11.7452 49 25 49Z" fill="#0071BC"/>
<path d="M0 25C0.002 11.192 11.196 0 25.002 0C38.808 0 50 11.192 50 25C50 38.804 38.808 49.996 25.002 50C11.196 49.996 0.002 38.804 0 25ZM2 25C2.024 37.706 12.3 47.974 25.002 47.998C37.704 47.974 47.978 37.706 48 25C47.978 12.296 37.704 2.022 25.002 1.998C12.3 2.022 2.026 12.296 2 25Z" fill="white"/>
<path d="M33.23 17.558C33.098 16.828 32.868 15.82 31.916 15.874C30.848 15.624 30.382 16.696 30.314 17.564C31.286 17.584 32.26 17.584 33.23 17.558ZM31.162 33.812C31.834 35.784 34.702 36.304 36.028 34.704C37.502 33.186 36.644 30.242 34.504 29.912C32.32 29.308 30.222 31.742 31.162 33.812ZM32.044 32.804C32.044 31.8 32.858 30.986 33.862 30.986C34.868 30.986 35.682 31.8 35.682 32.804C35.682 33.808 34.868 34.622 33.862 34.622C32.86 34.622 32.044 33.808 32.044 32.804ZM9.36401 30.978C10.84 31.41 12.332 31.774 13.818 32.176C14.144 31.42 14.434 30.598 15.072 30.044C16.378 28.852 18.562 28.852 19.886 30.014C20.538 30.544 20.822 31.356 21.192 32.08C21.618 32.294 22.116 32.158 22.57 32.2C25.102 32.194 27.632 32.172 30.164 32.208C30.46 31.446 30.758 30.634 31.406 30.088C32.676 28.864 34.872 28.83 36.188 30C36.908 30.574 37.234 31.462 37.634 32.26C38.946 32.164 40.198 31.712 41.426 31.264C41.396 29.352 41.438 27.44 41.398 25.526C40.656 24.73 39.696 24.256 38.738 23.792C37.722 21.906 37.574 19.022 35.166 18.334C33.198 18.196 31.212 18.316 29.236 18.274C29.232 17.17 29.214 16.064 29.22 14.958C23.29 14.97 17.358 14.94 11.428 14.974C10.408 14.962 9.47401 15.76 9.39401 16.788C9.35601 21.518 9.37801 26.248 9.36401 30.978ZM30.97 19.418C32.288 19.442 33.61 19.334 34.926 19.46C35.562 19.52 35.956 20.096 36.182 20.636C36.74 21.958 37.268 23.294 37.76 24.638C35.5 24.616 33.236 24.638 30.978 24.626C30.958 22.89 30.962 21.154 30.97 19.418ZM14.594 32.514C14.398 34.234 16.004 35.838 17.722 35.652C19.212 35.598 20.452 34.204 20.392 32.722C20.416 31.344 19.328 30.014 17.932 29.878C16.316 29.582 14.66 30.864 14.594 32.514ZM15.668 32.804C15.668 31.8 16.482 30.986 17.486 30.986C18.49 30.986 19.304 31.8 19.304 32.804C19.304 33.808 18.49 34.622 17.486 34.622C16.482 34.622 15.668 33.808 15.668 32.804Z" fill="white"/>
</svg>
