<svg width="45" height="45" viewBox="0 0 45 45" fill="none" xmlns="http://www.w3.org/2000/svg">
<path d="M49.0038 0.999084H1V49.0029H49.0038V0.999084Z" fill="#AEB0B5"/>
<path d="M0 -0.000976562V50.001H50V-0.000976562H0ZM1.99616 48.0049V1.99718H47.9998L48.0038 48.0049H1.99616ZM4.44436 11.608L5.55844 14.3942L25.002 6.61755L44.4456 14.3922L45.5596 11.606L24.998 3.37929L4.44436 11.608Z" fill="#FEFEFF"/>
<path d="M19.1894 37.402L27.3961 20.5926C27.3961 20.5926 23.6078 20.5906 20.2035 20.5926C19.8675 20.5926 19.5315 20.5786 19.1974 20.6126C17.8933 20.7347 16.6272 21.3247 15.7191 22.2708C14.7111 23.2689 14.121 24.675 14.097 26.0891C14.095 30.6274 14.097 35.1558 14.095 39.6922C14.091 40.3202 14.345 40.9623 14.8291 41.3763C15.4371 41.9003 16.3712 41.9664 17.0633 41.5763C17.5393 41.2963 17.8773 40.8143 18.0013 40.2822C18.1213 39.8302 18.0773 39.3621 18.0873 38.9061C18.0453 37.176 18.0973 35.4418 18.0533 33.7057C18.0573 31.8735 18.0593 30.0414 18.0373 28.2093C18.0413 27.9272 17.9933 27.5872 18.2373 27.3892C18.5534 27.0932 19.1494 27.3392 19.1374 27.7832C19.1434 29.7174 19.1674 31.6495 19.1574 33.5817C19.1894 34.8918 19.1694 36.2079 19.1754 37.51L19.1894 37.402ZM23.1417 18.6805C24.2218 19.1845 25.5099 19.2145 26.618 18.7825C27.5801 18.4065 28.4062 17.6844 28.9002 16.7763C29.4722 15.7443 29.5943 14.4762 29.2502 13.3501C28.9682 12.418 28.3742 11.5899 27.5821 11.0279C26.77 10.4438 25.754 10.1538 24.7579 10.2118C23.8658 10.2618 22.9917 10.5818 22.2877 11.1339C21.3876 11.8199 20.7736 12.86 20.6135 13.9801C20.4675 14.9362 20.6395 15.9383 21.1056 16.7843C21.5616 17.6064 22.2817 18.2865 23.1417 18.6805ZM34.9307 23.0288C33.9306 21.5607 33.0505 20.6106 31.2704 20.5886L19.6075 43.1844L30.7664 43.1964V27.7792C30.7924 27.4872 31.0744 27.2372 31.3724 27.2632C31.6284 27.2872 31.8204 27.5312 31.8304 27.7792C31.8504 28.2013 31.8284 28.6313 31.8404 29.0533C31.8744 29.9014 31.8304 30.7455 31.8664 31.5935C31.8724 34.2897 31.9064 36.99 31.9164 39.6922C31.9304 40.2902 32.1445 40.9103 32.5965 41.3203C33.2206 41.9143 34.2506 41.9844 34.9687 41.5243C35.4167 41.2423 35.7187 40.7703 35.8368 40.2622C35.9368 39.8602 35.9168 39.4402 35.9208 39.0281C35.9188 34.7158 35.9208 30.4014 35.9208 26.0891C35.9008 25.001 35.5507 23.9229 34.9307 23.0288Z" fill="#FEFEFF"/>
</svg>
