<svg width="45" height="45" viewBox="0 0 45 45" fill="none" xmlns="http://www.w3.org/2000/svg">
<path d="M49.0038 0.999084H1V49.0029H49.0038V0.999084Z" fill="#AEB0B5"/>
<path d="M0 -0.000976562V50.001H50V-0.000976562H0ZM1.99616 48.0049V1.99718H47.9998L48.0038 48.0049H1.99616ZM4.44436 11.608L5.55844 14.3942L25.002 6.61755L44.4456 14.3922L45.5596 11.606L24.998 3.37929L4.44436 11.608Z" fill="#FEFEFF"/>
<path d="M13.653 31.4015C12.9709 31.2895 12.2449 31.4915 11.7108 31.9316C10.8808 32.5876 10.5787 33.8077 10.9968 34.7778C11.2648 35.4198 11.8128 35.9379 12.4709 36.1619C13.1969 36.4139 14.039 36.3079 14.6711 35.8699C15.1951 35.5158 15.5691 34.9538 15.6971 34.3358C15.8392 33.6897 15.6931 32.9936 15.3211 32.4496C14.9391 31.8916 14.327 31.4975 13.653 31.4015ZM9.10262 31.3195C8.42656 31.1535 7.6765 31.5695 7.46048 32.2336C7.27647 32.7496 7.43448 33.3657 7.84451 33.7297C8.21454 34.0677 8.76459 34.1877 9.23663 34.0217C9.75467 33.8557 10.1487 33.3657 10.1947 32.8196C10.2727 32.1396 9.77467 31.4595 9.10262 31.3195ZM39.449 31.3315C39.105 31.2455 38.733 31.2855 38.419 31.4595C37.9409 31.7155 37.6369 32.2676 37.6969 32.8096C37.7389 33.4957 38.359 34.0797 39.045 34.0917C39.7031 34.1317 40.3371 33.6417 40.4731 32.9956C40.6551 32.2856 40.1651 31.4975 39.449 31.3315ZM42.7953 32.2976C42.4133 32.2716 42.0273 32.2616 41.6392 32.2496C41.7872 32.9216 42.0193 33.6417 41.7752 34.3198C41.5212 34.9818 40.8812 35.3778 40.2751 35.6839C39.073 36.2539 37.8929 36.864 36.6928 37.444C36.5088 37.524 36.3288 37.64 36.1268 37.652C28.2822 37.656 20.4355 37.652 12.5869 37.656C12.3629 37.664 12.1649 37.538 11.9668 37.45C10.7647 36.87 9.57865 36.2619 8.37456 35.6899C7.77251 35.3838 7.13846 34.9918 6.88044 34.3338C6.63442 33.6517 6.86844 32.9316 7.01645 32.2556C6.63042 32.2636 6.24639 32.2836 5.86036 32.3036C5.56833 33.0276 5.49633 33.8677 5.81035 34.5998C6.17838 35.4958 6.96844 36.1239 7.78651 36.5879C8.47457 37 9.17662 37.39 9.89068 37.756C10.7307 38.1721 11.5688 38.6081 12.4829 38.8321H36.1228C36.6088 38.7341 37.0709 38.5421 37.5189 38.3461C38.495 37.91 39.441 37.408 40.3671 36.878C40.9092 36.5579 41.4692 36.2559 41.9392 35.8319C42.4373 35.3878 42.8453 34.8118 42.9853 34.1497C43.1373 33.5297 43.0233 32.8816 42.7953 32.2976ZM20.4715 31.2715C19.2714 31.0615 18.0133 31.8836 17.7193 33.0617C17.5513 33.6697 17.6293 34.3358 17.9313 34.8858C18.2233 35.4178 18.7154 35.8359 19.2874 36.0319C19.9815 36.2779 20.7856 36.1899 21.4096 35.7959C21.9196 35.4798 22.3057 34.9758 22.4697 34.3998C22.6837 33.6937 22.5517 32.8936 22.1237 32.2916C21.7436 31.7455 21.1316 31.3675 20.4715 31.2715ZM27.4741 31.2715C26.816 31.1635 26.112 31.3515 25.5879 31.7615C25.0059 32.2096 24.6359 32.9296 24.6359 33.6677C24.6179 34.3097 24.8739 34.9538 25.3239 35.4158C25.792 35.9019 26.466 36.1859 27.1421 36.1659C27.8521 36.1659 28.5482 35.8259 29.0022 35.2798C29.4562 34.7418 29.6603 33.9977 29.5423 33.3037C29.3822 32.2756 28.5062 31.4115 27.4741 31.2715ZM34.1306 31.2735C33.4006 31.1495 32.6245 31.3895 32.0845 31.8896C31.5864 32.3376 31.2864 32.9936 31.2824 33.6637C31.2664 34.3258 31.5364 34.9898 32.0124 35.4538C32.5065 35.9499 33.2205 36.2159 33.9186 36.1619C34.9907 36.1079 35.9608 35.2678 36.1648 34.2137C36.3288 33.4717 36.1148 32.6596 35.6127 32.0896C35.2327 31.6555 34.7007 31.3595 34.1306 31.2735ZM16.4152 24.871C12.7909 24.0749 9.16462 23.2849 5.53833 22.4868V29.6014C18.3114 29.5834 31.0824 29.5414 43.8534 29.5334C44.1554 29.5594 44.4234 29.3234 44.4574 29.0253V28.7673C44.3874 28.4013 44.1774 27.9972 43.7894 27.8992C40.0871 26.9112 36.3848 25.9291 32.6845 24.939C32.4585 24.883 32.2225 24.905 31.9884 24.901C27.0261 24.901 22.0577 24.901 17.0933 24.901C16.8652 24.897 16.6372 24.915 16.4152 24.871ZM44.4694 18.5525C39.123 18.5505 34.7207 18.5345 29.3742 18.5285C29.3762 19.2625 29.3742 19.9946 29.3742 20.7287C34.7207 20.5446 39.123 20.3586 44.4674 20.1866C44.4734 19.6426 44.4734 19.0965 44.4694 18.5525ZM27.8741 17.7924C22.2977 17.2804 16.7232 16.7703 11.1468 16.2503C11.1528 17.9684 11.1488 19.6866 11.1488 21.4067C13.0189 21.7667 14.8871 22.1328 16.7572 22.4948C16.7572 22.7068 16.7572 22.9228 16.7552 23.1369C19.5515 23.1369 22.3477 23.1349 25.1459 23.1369C25.3139 23.1469 25.4479 23.0268 25.5939 22.9588C26.352 22.5528 27.1061 22.1428 27.8701 21.7447C27.8841 20.4286 27.8681 19.1105 27.8741 17.7924Z" fill="#FEFEFF"/>
</svg>
