<svg width="45" height="45" viewBox="0 0 45 45" fill="none" xmlns="http://www.w3.org/2000/svg">
<path d="M49.0038 0.999084H1V49.0029H49.0038V0.999084Z" fill="#AEB0B5"/>
<path d="M0 -0.000976562V50.001H50V-0.000976562H0ZM1.99616 48.0049V1.99718H47.9998L48.0038 48.0049H1.99616ZM4.44436 11.608L5.55844 14.3942L25.002 6.61755L44.4456 14.3922L45.5596 11.606L24.998 3.37929L4.44436 11.608Z" fill="#FEFEFF"/>
<path d="M12.5011 31.5476C13.5552 33.5437 14.4852 35.8399 16.6314 36.92C21.9398 39.8142 28.7344 39.8382 34.1748 37.27C36.681 36.1779 37.9231 33.6457 39.2032 31.4076C30.7085 34.6158 21.0418 34.6378 12.5011 31.5476ZM32.7927 19.1266C28.4764 16.5724 22.7759 16.5564 18.4896 19.1966C15.0793 21.1787 11.361 22.5289 7.88672 24.373C9.24483 26.4112 10.5889 28.5253 12.4611 30.1435C16.3034 31.4776 20.4477 31.4956 24.47 31.6836C29.2964 31.6516 34.2548 31.6296 38.8912 30.1755C40.8674 28.6433 42.1315 26.4032 43.4676 24.327C39.9533 22.4968 36.213 21.1387 32.7927 19.1266ZM29.5224 27.2112C29.4264 27.4932 29.2724 27.7533 29.0524 27.9513C28.8444 28.1353 28.5964 28.2633 28.3424 28.3633C27.8643 28.5553 27.3583 28.6653 26.8622 28.8054C26.3362 28.9754 25.9562 29.4054 25.6421 29.8414C25.3521 29.3814 24.9421 28.9594 24.41 28.7994C23.92 28.6653 23.42 28.5533 22.9459 28.3613C22.6759 28.2493 22.4119 28.1113 22.2079 27.9013C22.0078 27.7053 21.8758 27.4552 21.7898 27.1932C21.6398 26.7252 21.5718 26.2091 21.7178 25.7291C21.8358 25.3191 22.0839 24.963 22.2459 24.573C22.3919 24.225 22.3759 23.831 22.2699 23.4749C22.1859 23.2049 21.9818 23.0089 21.8038 22.8029C22.1099 22.3788 22.4219 21.9568 22.7279 21.5328C23.2699 21.7248 23.87 21.8168 24.438 21.6808C24.8981 21.5748 25.3181 21.3188 25.6481 20.9807C26.0242 21.3368 26.4882 21.6108 27.0042 21.6948C27.5323 21.7848 28.0743 21.6928 28.5664 21.4988C28.8904 21.9208 29.2104 22.3468 29.5244 22.7749C29.3844 22.9409 29.2284 23.0969 29.1264 23.2949C29.0084 23.5249 28.9744 23.789 28.9764 24.045C28.9704 24.221 29.0124 24.395 29.0764 24.559C29.2484 24.981 29.5205 25.3591 29.6265 25.8091C29.7485 26.2732 29.6725 26.7632 29.5224 27.2112Z" fill="#FEFEFF"/>
</svg>
