<svg width="45" height="45" viewBox="0 0 45 45" fill="none" xmlns="http://www.w3.org/2000/svg">
<g clip-path="url(#clip0_216_1258)">
<path d="M49.0038 0.999084H1V49.0029H49.0038V0.999084Z" fill="#AEB0B5"/>
<path d="M0 -0.000976562V50.001H50V-0.000976562H0ZM1.99616 48.0049V1.99718H47.9998L48.0038 48.0049H1.99616ZM4.44436 11.608L5.55844 14.3942L25.002 6.61755L44.4456 14.3922L45.5596 11.606L24.998 3.37929L4.44436 11.608Z" fill="#FEFEFF"/>
<path d="M36.1548 29.4434C35.2267 28.7153 34.0166 28.5513 32.8725 28.4573C30.6844 28.4593 28.4982 28.4593 26.316 28.4593C26.312 28.1953 26.316 27.9333 26.316 27.6693C26.9521 27.6673 27.5901 27.6713 28.2282 27.6673V25.1051H26.316C26.31 23.887 26.318 22.6649 26.31 21.4448C26.69 21.2367 27.1421 21.1487 27.5721 21.2447C28.1842 21.3508 28.6762 21.7608 29.2582 21.9408C29.8923 22.1388 30.6484 21.8528 30.9544 21.2528C31.3124 20.5567 31.3264 19.7106 31.0784 18.9786C30.8724 18.3765 30.2743 17.9125 29.6283 17.9565C28.7922 18.0525 28.0821 18.6185 27.2361 18.6425C26.436 18.6225 25.732 18.1685 24.9419 18.1065C23.9278 17.9465 23.0617 18.6905 22.0577 18.6425C21.3776 18.6745 20.8536 18.1625 20.2255 18.0085C19.7875 17.8705 19.3114 18.0065 18.9494 18.2605C17.9253 19.0186 17.8093 20.7567 18.8134 21.5768C19.3094 21.9908 20.0135 21.9248 20.5755 21.7048C21.2096 21.5128 21.8256 21.1207 22.5137 21.2287C22.8537 21.3308 22.9137 21.7348 22.9277 22.0408C22.9417 23.0629 22.9277 24.083 22.9357 25.1011C22.3097 25.1071 21.6876 25.1031 21.0596 25.1031C21.0596 25.9591 21.0616 26.8132 21.0596 27.6653C21.6896 27.6673 22.3257 27.6653 22.9577 27.6673V28.4573H17.4373C17.4333 27.6473 17.4473 26.8372 17.4333 26.0271C17.3213 25.7611 17.2813 25.4411 17.0413 25.2491C16.7132 24.979 16.2572 25.001 15.8592 24.949C14.7051 24.925 13.549 24.959 12.3949 24.933C12.3749 25.0591 12.3649 25.1851 12.3589 25.3111V36.572C13.567 36.56 14.7751 36.6 15.9832 36.552C16.5132 36.528 17.1793 36.372 17.3393 35.7859C17.5533 34.8718 17.4293 33.9238 17.4633 32.9957C18.8394 32.9957 20.2135 32.9957 21.5876 32.9957C21.7916 33.8878 22.1737 34.7918 22.9077 35.3719C23.9798 36.1879 25.6079 36.1479 26.65 35.2959C27.3521 34.7318 27.7441 33.8678 27.8981 32.9977C29.3702 33.0037 30.8424 32.9877 32.3125 33.0037C32.7765 33.0057 33.1466 33.3837 33.2746 33.8058C33.5726 34.6958 33.4466 35.6479 33.4746 36.57C34.8747 36.574 36.2768 36.572 37.6789 36.572C37.6729 35.3339 37.6929 34.0958 37.6669 32.8577C37.6029 31.5956 37.1989 30.2375 36.1548 29.4434Z" fill="#FEFEFF"/>
</g>
<defs>
<clipPath id="clip0_216_1258">
<rect width="50" height="50.002" fill="white" transform="translate(0 -0.000976562)"/>
</clipPath>
</defs>
</svg>
