<svg width="45" height="45" viewBox="0 0 45 45" fill="none" xmlns="http://www.w3.org/2000/svg">
<path d="M49.0038 0.999084H1V49.0029H49.0038V0.999084Z" fill="#AEB0B5"/>
<path d="M0 -0.000976562V50.001H50V-0.000976562H0ZM1.99616 48.0049V1.99718H47.9998L48.0038 48.0049H1.99616ZM4.44436 11.608L5.55844 14.3942L25.002 6.61755L44.4456 14.3922L45.5596 11.606L24.998 3.37929L4.44436 11.608Z" fill="#FEFEFF"/>
<path d="M24.6319 45.4867C24.8279 45.6887 25.044 45.8667 25.262 46.0427C25.232 46.3427 25.216 46.6528 25.094 46.9328C25.064 47.0088 25.006 47.0628 24.94 47.1088C24.8459 47.0208 24.7839 46.9048 24.7519 46.7828C24.6319 46.3647 24.6319 45.9207 24.6319 45.4867ZM24.5819 41.0843C24.902 41.3043 25.148 41.6304 25.25 42.0064C25.34 42.2524 25.302 42.5144 25.304 42.7725C25.3 43.4345 25.288 44.0926 25.276 44.7526C24.96 44.2106 24.6899 43.6265 24.6039 42.9985C24.5879 42.3584 24.5859 41.7204 24.5819 41.0843ZM24.0619 40.6783C24.1199 40.7203 24.1759 40.7623 24.2299 40.8043C24.2259 41.4023 24.2599 41.9984 24.2299 42.5944C24.2179 43.3125 24.4759 44.0066 24.8079 44.6326C25.04 45.0726 25.33 45.4787 25.626 45.8747C25.078 45.4787 24.5859 44.9946 24.2199 44.4246C23.7339 43.6625 23.4718 42.7425 23.5738 41.8404C23.6138 41.4123 23.8119 41.0183 24.0619 40.6783ZM24.5219 36.678C24.8219 36.872 25.104 37.088 25.366 37.326C25.362 38.1301 25.348 38.9341 25.34 39.7382C25.076 39.5322 24.8139 39.3202 24.5539 39.1102C24.5459 38.2981 24.5339 37.49 24.5219 36.678ZM22.7358 37.7161C22.8598 37.098 23.2998 36.602 23.7799 36.2239C23.9079 36.3039 24.0419 36.3819 24.1719 36.458C24.1699 36.698 24.1859 36.938 24.1779 37.178C24.1239 37.29 24.0139 37.368 23.9419 37.47C23.7339 37.7421 23.5418 38.0801 23.6159 38.4341C23.7139 38.8101 24.0099 39.0822 24.2879 39.3342C24.6419 39.6322 25.006 39.9202 25.374 40.2043C25.906 40.6223 26.3041 41.2443 26.3501 41.9284C26.4281 42.8445 26.1381 43.7645 25.632 44.5206C25.64 44.0266 25.628 43.5305 25.658 43.0365C25.728 42.4824 25.666 41.8904 25.366 41.4083C25.138 41.0063 24.7299 40.7643 24.3819 40.4783C23.9239 40.1322 23.4638 39.7662 23.1318 39.2862C22.8118 38.8361 22.6158 38.2661 22.7358 37.7161ZM24.4579 31.2475C24.7919 31.3715 25.12 31.5156 25.438 31.6796C25.428 32.8957 25.406 34.1158 25.394 35.3319C25.088 35.1398 24.7899 34.9358 24.5039 34.7178C24.4799 33.5617 24.4719 32.4036 24.4579 31.2475ZM21.9397 32.3816C22.1077 31.6996 22.6058 31.1575 23.1578 30.7555C23.4698 30.8895 23.7859 31.0095 24.1079 31.1235C24.1079 31.2455 24.1099 31.3675 24.1099 31.4876C23.6839 31.7436 23.2598 32.0696 23.0538 32.5376C22.8858 32.9117 22.9338 33.3517 23.1198 33.7077C23.3818 34.2178 23.8179 34.6098 24.2559 34.9658C24.6939 35.3079 25.166 35.6059 25.642 35.8899C26.1741 36.2119 26.6741 36.624 26.9781 37.172C27.2201 37.604 27.2821 38.1361 27.1241 38.6061C26.9101 39.2582 26.4181 39.7762 25.892 40.1922C25.824 40.1222 25.736 40.0662 25.684 39.9822C25.68 39.7442 25.692 39.5062 25.696 39.2682C25.952 39.0302 26.2241 38.7621 26.3021 38.4061C26.3601 38.0441 26.1621 37.7101 25.946 37.438C25.438 36.82 24.7559 36.3819 24.0699 35.9879C23.3618 35.5559 22.7198 34.9818 22.2877 34.2638C21.9557 33.7097 21.7757 33.0257 21.9397 32.3816ZM24.3859 25.8751C24.7619 25.9071 25.14 25.9191 25.514 25.9611C25.488 27.2132 25.49 28.4673 25.462 29.7194C25.116 29.5874 24.7719 29.4534 24.4299 29.3154C24.4179 28.1693 24.3999 27.0232 24.3859 25.8751ZM20.2916 26.3931C20.4796 26.0211 20.7736 25.7131 21.1056 25.4631C21.8277 25.6471 22.5718 25.7311 23.3138 25.7911C22.7898 25.9531 22.2737 26.2251 21.9477 26.6792C21.7137 26.9972 21.6197 27.4192 21.7377 27.7973C21.8737 28.2473 22.2257 28.5913 22.6058 28.8473C23.0118 29.1214 23.4738 29.2974 23.9219 29.4854C24.4499 29.7074 24.98 29.9114 25.514 30.1154C26.1961 30.3655 26.8401 30.7335 27.3361 31.2655C27.7142 31.6616 27.9942 32.1776 28.0302 32.7297C28.0742 33.3137 27.8682 33.8917 27.5582 34.3778C27.1981 34.9438 26.6961 35.4059 26.1581 35.7959C26.018 35.7159 25.886 35.6199 25.744 35.5379C25.748 35.3219 25.748 35.1058 25.752 34.8898C26.1981 34.5318 26.6281 34.1238 26.8681 33.5977C27.0301 33.2397 27.0401 32.8097 26.8541 32.4596C26.6061 31.9816 26.1481 31.6616 25.69 31.4055C24.944 30.9855 24.1019 30.7835 23.3198 30.4415C22.5058 30.0954 21.7137 29.6614 21.0596 29.0594C20.6336 28.6613 20.2556 28.1693 20.1296 27.5892C20.0376 27.1852 20.1016 26.7592 20.2916 26.3931ZM27.7242 20.5047C28.4342 20.3767 29.1583 20.4767 29.8664 20.5647C30.6464 20.6127 31.4445 20.6907 32.1625 21.0187C32.5026 21.1807 32.8506 21.4367 32.9446 21.8228C33.0386 22.2388 32.8306 22.6468 32.5866 22.9689C32.1185 23.5669 31.4745 23.997 30.8104 24.349C30.1884 24.665 29.5363 24.915 28.8643 25.083C28.1382 24.613 27.3061 24.335 26.4741 24.131C27.5862 24.083 28.7043 23.963 29.7703 23.6289C30.3264 23.4529 30.8804 23.2389 31.3685 22.9089C31.5765 22.7629 31.7945 22.5888 31.8725 22.3368C31.9185 22.1268 31.8925 21.8728 31.7165 21.7288C31.5365 21.5808 31.2865 21.5628 31.0644 21.5528C30.6584 21.5448 30.2484 21.5648 29.8443 21.6128C29.5223 21.6508 29.2163 21.7708 28.9323 21.9288C28.6783 22.0548 28.4322 22.2308 28.1362 22.2368C27.6542 22.2608 27.1461 22.1728 26.7341 21.9128C26.5501 21.8168 26.6461 21.5868 26.7121 21.4447C26.9341 21.0367 27.2821 20.6687 27.7242 20.5047ZM20.0016 20.5667C20.5616 20.5047 21.1237 20.4167 21.6897 20.4487C21.9317 20.4667 22.1897 20.4607 22.3998 20.5967C22.7458 20.8047 23.0378 21.1127 23.2158 21.4768C23.2758 21.6128 23.3478 21.8248 23.1798 21.9128C22.7798 22.1648 22.2897 22.2508 21.8197 22.2408C21.4897 22.2448 21.2137 22.0428 20.9296 21.9048C20.6516 21.7528 20.3516 21.6428 20.0396 21.6088C19.6295 21.5648 19.2155 21.5428 18.8035 21.5548C18.5954 21.5648 18.3634 21.5888 18.1954 21.7268C18.0194 21.8708 17.9894 22.1268 18.0374 22.3368C18.1214 22.5988 18.3514 22.7769 18.5694 22.9289C19.0475 23.2469 19.5935 23.4549 20.1376 23.6289C21.1417 23.9349 22.1917 24.083 23.2398 24.125C23.8219 24.149 24.4039 24.141 24.982 24.217C25.97 24.341 26.9501 24.565 27.8702 24.953C28.4302 25.197 28.9803 25.5111 29.3603 25.9951C29.6923 26.3971 29.8884 26.9272 29.8063 27.4512C29.7303 28.0253 29.3883 28.5233 28.9903 28.9253C28.3662 29.5494 27.5922 29.9934 26.7941 30.3555C26.4821 30.1554 26.1501 29.9934 25.81 29.8554C25.81 29.7554 25.81 29.6594 25.81 29.5594C26.4721 29.2774 27.1781 29.0394 27.7082 28.5373C28.0062 28.2613 28.2322 27.8633 28.1802 27.4452C28.1282 26.9772 27.7922 26.5992 27.4222 26.3351C26.8461 25.9311 26.1601 25.7051 25.468 25.6051C24.4739 25.5311 23.4778 25.4631 22.4878 25.3571C21.3977 25.2271 20.3276 24.937 19.3375 24.463C18.6455 24.129 17.9794 23.7129 17.4614 23.1349C17.2113 22.8469 16.9833 22.5048 16.9453 22.1148C16.9173 21.8628 17.0093 21.6068 17.1773 21.4227C17.4114 21.1607 17.7354 21.0027 18.0594 20.8867C18.6855 20.6747 19.3475 20.6027 20.0016 20.5667ZM28.5322 13.2321C28.8043 12.9021 29.1563 12.63 29.5583 12.482C29.8884 12.39 30.2304 12.494 30.5464 12.594C31.3045 12.8581 32.0105 13.2481 32.7266 13.6121C33.6406 14.0802 34.5587 14.5482 35.5228 14.9042C36.6449 15.3143 37.867 15.5903 39.0571 15.3563C39.5711 15.2683 40.0432 14.9842 40.5752 14.9962C40.7052 14.9922 40.8992 15.0582 40.8612 15.2263C40.7972 15.5903 40.5252 15.8743 40.2672 16.1183C39.6891 16.6384 38.9271 16.9704 38.141 16.9564C38.149 17.0744 38.231 17.2184 38.135 17.3204C38.003 17.4484 37.821 17.4884 37.649 17.5224C37.0309 17.6204 36.3989 17.5244 35.8088 17.3324C35.7928 17.5884 35.7728 17.8685 35.5988 18.0725C35.4228 18.2745 35.1448 18.3365 34.8908 18.3345C34.5187 18.3385 34.1627 18.2385 33.8147 18.1265C33.6847 18.4825 33.4546 18.8485 33.0706 18.9546C32.5206 19.1126 31.9845 18.8545 31.4565 18.7305C31.3665 18.9105 31.2725 19.1006 31.1004 19.2166C30.8604 19.3866 30.5464 19.3886 30.2684 19.3366C29.9164 19.2626 29.5823 19.1126 29.2763 18.9285C29.2083 18.8865 29.1323 18.8605 29.0583 18.8365C28.8483 19.0226 28.6603 19.2366 28.4262 19.3906C28.1682 19.5566 27.8442 19.5446 27.5502 19.5066C27.0081 19.4226 26.4841 19.2506 25.966 19.0746C25.98 18.0125 25.994 16.9484 26.012 15.8843C26.3621 15.9663 26.7521 15.9603 27.0641 15.7583C27.3501 15.5783 27.4942 15.2543 27.6262 14.9582C27.8862 14.3582 28.1162 13.7361 28.5322 13.2321ZM18.4014 13.0001C18.9015 12.7701 19.4135 12.524 19.9636 12.456C20.3416 12.398 20.6856 12.618 20.9756 12.8341C21.5937 13.3181 21.9117 14.0562 22.2017 14.7582C22.3537 15.1022 22.4878 15.4903 22.8038 15.7243C23.1118 15.9543 23.5258 15.9703 23.8919 15.8863C23.9059 16.9524 23.9299 18.0145 23.9359 19.0786C23.4098 19.2526 22.8818 19.4306 22.3337 19.5106C22.0497 19.5446 21.7377 19.5506 21.4877 19.3906C21.2537 19.2366 21.0636 19.0226 20.8556 18.8365C20.6816 18.8845 20.5396 18.9986 20.3776 19.0746C19.9756 19.2686 19.5135 19.4426 19.0655 19.3346C18.7655 19.2666 18.5734 19.0006 18.4594 18.7345C17.9314 18.8545 17.3954 19.1146 16.8453 18.9565C16.4593 18.8485 16.2293 18.4825 16.0992 18.1265C15.6032 18.2785 15.0492 18.4465 14.5451 18.2425C14.1891 18.0905 14.1131 17.6724 14.1031 17.3324C13.487 17.5344 12.819 17.6304 12.1729 17.5044C12.0089 17.4584 11.7949 17.4124 11.7329 17.2324C11.7369 17.1384 11.7589 17.0484 11.7749 16.9564C10.9468 16.9724 10.1448 16.6044 9.55873 16.0323C9.33871 15.8063 9.10869 15.5483 9.05669 15.2263C9.01668 15.0802 9.17269 14.9982 9.2947 14.9982C9.82275 14.9642 10.2988 15.2483 10.8028 15.3443C11.8109 15.5563 12.857 15.3943 13.8271 15.0942C15.4352 14.5962 16.8933 13.7321 18.4014 13.0001ZM24.6439 11.3879C25.26 11.2419 25.938 11.558 26.2341 12.116C26.5381 12.66 26.4361 13.4001 25.988 13.8361C25.906 13.9201 25.81 13.9922 25.714 14.0622C25.646 18.0205 25.596 19.9786 25.54 23.9389C25.15 23.8789 24.7559 23.8309 24.3619 23.8109C24.3039 19.8946 24.2539 17.9805 24.1899 14.0662C23.7599 13.7921 23.4758 13.3001 23.4918 12.7881C23.4918 12.128 23.9999 11.516 24.6439 11.3879Z" fill="#FEFEFF"/>
</svg>
