<svg width="45" height="45" viewBox="0 0 45 45" fill="none" xmlns="http://www.w3.org/2000/svg">
<path d="M49.0038 0.999084H1V49.0029H49.0038V0.999084Z" fill="#AEB0B5"/>
<path d="M0 -0.000976562V50.001H50V-0.000976562H0ZM1.99616 48.0049V1.99718H47.9998L48.0038 48.0049H1.99616ZM4.44436 11.608L5.55844 14.3942L25.002 6.61755L44.4456 14.3922L45.5596 11.606L24.998 3.37929L4.44436 11.608Z" fill="#FEFEFF"/>
<path d="M24.652 22.6308C25.03 22.8069 25.4521 22.8989 25.8761 22.8989C26.2461 22.8989 26.6162 22.8289 26.9562 22.6948C27.5922 22.4488 28.1443 21.9648 28.4683 21.3647C28.7023 20.9327 28.8263 20.4407 28.8263 19.9466C28.8263 19.6546 28.7843 19.3666 28.7023 19.0926C28.5163 18.4745 28.1183 17.9205 27.5922 17.5504C27.1002 17.1924 26.4901 17.0044 25.8841 17.0044C25.8361 17.0044 25.7821 17.0044 25.7201 17.0104C25.128 17.0464 24.55 17.2564 24.086 17.6204H24.082C23.4899 18.0745 23.0779 18.7685 22.9719 19.5106C22.9459 19.6506 22.9379 19.8006 22.9379 19.9526C22.9379 20.4447 23.0619 20.9367 23.2999 21.3687C23.5999 21.9168 24.082 22.3708 24.652 22.6308ZM32.8247 26.1271C32.1546 25.137 30.9745 24.493 29.7824 24.481H22.4278C22.3038 24.481 22.1898 24.475 22.0818 24.475C21.9578 24.475 21.8438 24.481 21.7298 24.493C20.8497 24.579 19.9916 24.977 19.3776 25.6191C18.6995 26.2891 18.2975 27.2432 18.2855 28.1893C18.2815 29.8214 18.2815 31.4476 18.2855 33.0837C18.2815 34.7098 18.2815 36.3459 18.2815 37.9801V37.9841C18.2815 38.3661 18.4415 38.7621 18.7255 39.0002C18.9235 39.1722 19.1936 39.2642 19.4656 39.2642C19.6716 39.2642 19.8756 39.2142 20.0436 39.1202C20.3197 38.9602 20.5277 38.6621 20.6017 38.3461C20.6437 38.1701 20.6497 37.9801 20.6497 37.7721V37.518C20.6497 37.478 20.6557 37.44 20.6557 37.422C20.6377 36.998 20.6377 36.58 20.6377 36.1619C20.6377 35.7459 20.6417 35.3299 20.6417 34.9158C20.6417 34.5018 20.6377 34.0858 20.6297 33.6697V32.3536C20.6297 31.4696 20.6297 30.5935 20.6337 29.8014C20.6137 29.7454 20.6137 29.6894 20.6137 29.6814C20.6137 29.6374 20.6177 29.5914 20.6177 29.5514C20.6137 29.3874 20.6257 29.1194 20.8337 28.9514C20.9537 28.8253 21.1097 28.7793 21.2537 28.7793C21.5658 28.7793 21.8978 29.0094 21.9058 29.3994V29.4094C21.9098 30.5915 21.9238 31.7796 21.9238 32.9697V33.5777C21.9318 34.0278 21.9318 34.4778 21.9318 34.9258C21.9318 35.2899 21.9358 35.6519 21.9358 36.0159V36.4099C21.9438 36.774 21.9438 37.14 21.9438 37.506C21.9438 37.9101 21.9398 38.3201 21.9398 38.7261C21.9398 39.1122 21.9478 39.5002 21.9558 39.8982V40.1963C21.9558 40.2143 21.9558 40.2323 21.9578 40.2483H29.7784V29.3854C29.8164 29.0434 30.0864 28.7893 30.4285 28.7813C30.4705 28.7813 30.4925 28.7853 30.4845 28.7853C30.8225 28.8213 31.0265 29.1014 31.0425 29.4014C31.0465 29.5014 31.0465 29.6034 31.0465 29.7094V30.1154C31.0465 30.1774 31.0465 30.2415 31.0505 30.3135C31.0545 30.5215 31.0545 30.7275 31.0545 30.9355V31.5356C31.0545 31.7376 31.0605 31.9376 31.0685 32.1476C31.0725 34.0918 31.0965 36.0339 31.1065 37.9741C31.1145 38.3501 31.2525 38.7341 31.5166 38.9722C31.7146 39.1562 32.0006 39.2642 32.2946 39.2642C32.5146 39.2642 32.7386 39.2022 32.9207 39.0862C33.1767 38.9261 33.3607 38.6421 33.4347 38.3301C33.4787 38.1321 33.4847 37.9121 33.4847 37.67V37.63C33.4847 37.582 33.4847 37.536 33.4887 37.496C33.4847 36.462 33.4847 35.4279 33.4847 34.3938C33.4847 32.3216 33.4847 30.2555 33.4887 28.1933C33.4767 27.4612 33.2427 26.7312 32.8247 26.1271ZM37.9811 29.4494C38.1991 29.5514 38.4431 29.6054 38.6891 29.6054C38.9031 29.6054 39.1172 29.5654 39.3152 29.4874C39.6852 29.3454 40.0032 29.0634 40.1912 28.7153C40.3273 28.4653 40.3993 28.1793 40.3993 27.8933C40.3993 27.7253 40.3753 27.5572 40.3293 27.3992C40.2212 27.0412 39.9912 26.7192 39.6872 26.5052C39.3992 26.2971 39.0492 26.1871 38.6951 26.1871C38.6671 26.1871 38.6371 26.1871 38.5991 26.1911C38.2571 26.2111 37.9211 26.3331 37.651 26.5432H37.649C37.305 26.8052 37.067 27.2092 37.007 27.6392C36.991 27.7213 36.987 27.8053 36.987 27.8953C36.987 28.1813 37.059 28.4653 37.195 28.7153C37.369 29.0354 37.649 29.2974 37.9811 29.4494ZM44.2016 32.7957C44.1916 32.3716 44.0556 31.9476 43.8135 31.5976C43.4255 31.0235 42.7415 30.6495 42.0514 30.6435H37.7871C37.715 30.6435 37.649 30.6395 37.585 30.6395C37.515 30.6395 37.447 30.6435 37.381 30.6495C36.869 30.6975 36.3729 30.9295 36.0169 31.3015C35.6249 31.6896 35.3909 32.2436 35.3829 32.7917C35.3809 33.7397 35.3809 34.6798 35.3829 35.6299C35.3809 36.574 35.3809 37.52 35.3809 38.4681V38.4701C35.3809 38.6921 35.4749 38.9221 35.6389 39.0582C35.7529 39.1582 35.9109 39.2122 36.0689 39.2122C36.1869 39.2122 36.3049 39.1822 36.4029 39.1282C36.563 39.0362 36.685 38.8621 36.727 38.6801C36.751 38.5781 36.757 38.4681 36.757 38.3461V38.2021C36.757 38.1801 36.759 38.1581 36.759 38.1461C36.749 37.9001 36.749 37.658 36.749 37.416C36.749 37.174 36.751 36.934 36.751 36.694C36.751 36.454 36.749 36.2119 36.745 35.9719V35.2079C36.745 34.6958 36.745 34.1878 36.747 33.7277C36.735 33.6937 36.735 33.6637 36.735 33.6577C36.735 33.6317 36.737 33.6057 36.737 33.5817C36.735 33.4877 36.743 33.3317 36.863 33.2337C36.931 33.1617 37.023 33.1337 37.105 33.1337C37.287 33.1337 37.481 33.2677 37.483 33.4937V33.4997C37.485 34.1838 37.493 34.8738 37.493 35.5639V35.9159C37.497 36.1759 37.497 36.4379 37.497 36.698C37.497 36.908 37.501 37.12 37.501 37.33V37.558C37.505 37.7681 37.505 37.9821 37.505 38.1941C37.505 38.4281 37.503 38.6661 37.503 38.9021C37.503 39.1262 37.507 39.3502 37.513 39.5802V39.7842H42.0494V33.4877C42.0714 33.2897 42.2274 33.1417 42.4254 33.1377C42.4494 33.1377 42.4654 33.1397 42.4594 33.1397C42.6554 33.1597 42.7734 33.3237 42.7835 33.4957C42.7854 33.5537 42.7855 33.6137 42.7855 33.6737V33.9097C42.7855 33.9458 42.7855 33.9838 42.7895 34.0238C42.7915 34.1438 42.7915 34.2638 42.7915 34.3838V34.7298C42.7915 34.8478 42.7935 34.9638 42.7975 35.0838C42.8015 36.2099 42.8155 37.338 42.8195 38.4621C42.8255 38.6801 42.9055 38.9021 43.0595 39.0422C43.1735 39.1482 43.3395 39.2122 43.5095 39.2122C43.6375 39.2122 43.7675 39.1742 43.8735 39.1082C44.0215 39.0162 44.1296 38.8521 44.1716 38.6701C44.1976 38.5561 44.2016 38.4281 44.2016 38.2881V38.2661C44.2016 38.2381 44.2016 38.2121 44.2036 38.1881C44.2016 37.59 44.2016 36.988 44.2016 36.3899C44.1996 35.1898 44.1996 33.9918 44.2016 32.7957ZM16.6874 37.9841V37.9501C16.6874 37.9461 16.6894 37.9381 16.6914 37.9301V28.1793L16.6934 28.1753C16.1373 27.7253 15.4433 27.4452 14.7272 27.4372H8.82474C8.62872 27.4372 8.4367 27.4292 8.24269 27.4492C7.48863 27.5192 6.75857 27.8593 6.23253 28.4073C5.65048 28.9834 5.31046 29.7954 5.29645 30.6135C5.29445 33.2357 5.29645 35.8519 5.29445 38.4781C5.29245 38.8381 5.43847 39.2082 5.71849 39.4502C6.07052 39.7502 6.61056 39.7862 7.01059 39.5642C7.28261 39.4042 7.47863 39.1222 7.55263 38.8181C7.62064 38.5561 7.59664 38.2861 7.60064 38.0221C7.57664 37.02 7.60864 36.0179 7.58264 35.0158C7.58464 33.9578 7.58464 32.8977 7.57264 31.8396C7.57464 31.6756 7.54463 31.4796 7.68865 31.3675C7.87066 31.1935 8.21469 31.3355 8.20669 31.5936C8.21069 32.7116 8.22669 33.8277 8.22069 34.9438C8.23869 35.7039 8.22669 36.462 8.23069 37.218C8.25469 38.1501 8.22269 39.0802 8.24869 40.0122C8.24869 40.1762 8.25069 40.3363 8.24669 40.5003H14.9292V31.5936C14.9452 31.4235 15.1072 31.2775 15.2793 31.2935C15.4273 31.3095 15.5393 31.4475 15.5453 31.5936C15.5573 31.8336 15.5453 32.0816 15.5513 32.3276C15.5713 32.8157 15.5453 33.3037 15.5653 33.7917C15.5693 35.3519 15.5893 36.914 15.5973 38.4761C15.6053 38.8201 15.7273 39.1802 15.9893 39.4142C16.3493 39.7582 16.9454 39.7982 17.3614 39.5322C17.3934 39.5122 17.4094 39.4782 17.4394 39.4542C17.3974 39.4262 17.3474 39.4142 17.3094 39.3802C16.8974 39.0242 16.6874 38.5021 16.6874 37.9841ZM10.5209 26.3351C11.1469 26.6252 11.889 26.6432 12.531 26.3891C13.0871 26.1751 13.5631 25.7571 13.8491 25.2331C14.1792 24.635 14.2492 23.9049 14.0512 23.2529C13.8891 22.7149 13.5451 22.2348 13.0891 21.9108C12.619 21.5728 12.033 21.4067 11.4569 21.4408C10.9429 21.4708 10.4369 21.6508 10.0288 21.9728C9.50879 22.3688 9.15476 22.9709 9.06276 23.6169C8.97875 24.169 9.07876 24.749 9.34878 25.2371C9.6088 25.7151 10.0248 26.1051 10.5209 26.3351Z" fill="#FEFEFF"/>
</svg>
