<svg width="50" height="50" viewBox="0 0 50 50" fill="none" xmlns="http://www.w3.org/2000/svg">
<path d="M25 49C38.2548 49 49 38.2548 49 25C49 11.7452 38.2548 1 25 1C11.7452 1 1 11.7452 1 25C1 38.2548 11.7452 49 25 49Z" fill="#AEB0B5"/>
<path d="M0 25C0.002 11.192 11.196 0 25.002 0C38.808 0 50 11.192 50 25C50 38.804 38.808 49.996 25.002 50C11.196 49.996 0.002 38.804 0 25ZM2 25C2.024 37.706 12.3 47.974 25.002 47.998C37.704 47.974 47.978 37.706 48 25C47.978 12.296 37.704 2.022 25.002 1.998C12.3 2.022 2.026 12.296 2 25Z" fill="#FEFEFF"/>
<path d="M25.198 17.386C20.922 17.386 17.46 20.848 17.46 25.124C17.46 29.394 20.922 32.858 25.198 32.858C29.468 32.858 32.93 29.396 32.93 25.124C32.93 20.848 29.466 17.386 25.198 17.386ZM25.198 30.858C22.026 30.854 19.464 28.292 19.46 25.124C19.464 21.956 22.026 19.394 25.198 19.386C28.36 19.394 30.926 21.956 30.93 25.124C30.926 28.292 28.36 30.852 25.198 30.858ZM22.246 39.596H24.194V46.278H26.196V39.596H28.146L25.196 34.488L22.246 39.596ZM28.144 10.338H26.194V3.65601H24.192V10.338H22.244L25.194 15.446L28.144 10.338ZM10.372 24.124H3.68799V26.126H10.372V28.074L15.48 25.124L10.372 22.174V24.124ZM39.628 24.124V22.174L34.52 25.124L39.628 28.074V26.126H46.31V24.124H39.628Z" fill="#FEFEFF"/>
</svg>
