<svg width="45" height="45" viewBox="0 0 45 45" fill="none" xmlns="http://www.w3.org/2000/svg">
<path d="M49.004 0.999084H1.00012V49.0029H49.004V0.999084Z" fill="#AEB0B5"/>
<path d="M0 -0.000976562V50.001H50V-0.000976562H0ZM1.99616 48.0049V1.99718H47.9998L48.0038 48.0049H1.99616ZM4.44436 11.608L5.55844 14.3942L25.002 6.61755L44.4456 14.3922L45.5596 11.606L24.998 3.37929L4.44436 11.608Z" fill="#FEFEFF"/>
<path d="M10.0068 16.8984C9.91284 26.4971 10.2149 36.1039 10.2909 45.6967C10.8589 45.6687 11.995 45.6186 12.5731 45.6026C12.5731 36.0439 12.6371 26.4831 12.505 16.9164C11.957 16.9164 10.5569 16.9104 10.0068 16.8984ZM40.6513 15.1862C36.549 17.2764 31.4906 16.6623 27.1602 15.6323C22.6699 14.9322 17.7995 14.4802 13.6131 16.6043C13.5831 22.2308 13.6871 27.8552 13.5571 33.4737C17.3954 33.0096 21.3098 31.5235 25.1681 32.7736C29.2344 33.5937 33.3447 34.5318 37.5071 33.8677C38.6211 33.5197 39.7452 33.1997 40.8733 32.9136C40.8693 27.0032 41.3034 21.0587 40.6513 15.1862Z" fill="#FEFEFF"/>
</svg>
