<svg width="45" height="45" viewBox="0 0 45 45" fill="none" xmlns="http://www.w3.org/2000/svg">
<path d="M49.004 0.999084H1.00012V49.0029H49.004V0.999084Z" fill="#AEB0B5"/>
<path d="M0 -0.000976562V50.001H50V-0.000976562H0ZM1.99616 48.0049V1.99718H47.9998L48.0038 48.0049H1.99616ZM4.44436 11.608L5.55844 14.3942L25.002 6.61755L44.4456 14.3922L45.5596 11.606L24.998 3.37929L4.44436 11.608Z" fill="#FEFEFF"/>
<path d="M38.8531 33.8217C38.4611 33.2837 37.527 32.3996 36.977 31.8896C37.243 31.1575 37.671 29.7974 37.765 28.3893C37.777 28.2153 37.779 28.0393 37.779 27.8592C37.777 26.6812 37.563 25.5211 37.397 24.795C37.609 24.809 37.761 24.823 37.761 24.823C38.9851 24.875 38.9851 22.9569 38.4551 22.7628C38.4391 22.7588 38.4211 22.7588 38.4091 22.7528C37.927 22.3628 36.3649 21.0947 34.2087 19.2986C32.6306 17.9865 30.9165 16.8824 30.1344 16.3943C30.0244 16.2583 29.9304 16.1463 29.9304 16.1463C29.9304 16.1463 28.1983 14.5742 24.994 14.6042C19.2335 14.6582 12.633 17.7264 11.7109 24.403C14.3372 17.0524 22.6898 16.1863 24.338 16.2083C27.1082 16.2483 28.4703 18.4005 28.4703 18.4005C28.4703 18.4005 28.9863 17.7444 29.3224 17.3544C29.3404 17.3344 29.6084 17.2984 29.8884 17.2664C30.7125 17.7824 32.2606 18.7985 33.6867 19.9866C35.0628 21.1327 37.099 22.7368 37.873 23.3689C36.6089 23.5249 34.6368 23.9449 33.1847 24.525C31.0545 25.379 26.8822 28.1373 25.7461 28.7753C24.61 29.4154 24.384 27.6592 25.7341 26.0271C27.0862 24.393 28.7883 21.7668 28.6463 20.7007C28.5043 19.6346 27.0862 16.7224 22.8938 17.4324C13.3051 18.9245 11.5289 24.819 11.5289 29.3654C11.5289 33.9117 12.807 33.2537 13.0891 35.1018C13.3751 36.948 12.451 37.818 12.521 39.1662C13.3751 40.1622 17.3574 41.0043 19.4836 41.1563C20.4756 41.2263 20.8317 41.0143 21.3997 40.8723C21.9678 40.7303 23.0339 40.6583 23.1759 39.5222C23.2939 38.5961 23.1999 40.0282 23.1779 37.584C24.866 38.6521 28.3443 40.6263 31.4865 40.7863C31.7766 40.7963 32.0526 40.8023 32.3266 40.8023C36.1029 40.8023 38.0751 39.7262 38.1751 39.6642L38.5071 39.4802L39.2712 35.8039C39.2872 35.7219 39.3032 35.5859 39.3032 35.3838C39.3052 35.0198 39.2591 34.4178 38.8531 33.8217ZM17.7814 33.5357C16.1573 33.5357 14.8392 32.1616 14.8392 30.4675C14.8392 28.7733 16.1573 27.3992 17.7814 27.3992C19.4076 27.3992 20.7237 28.7733 20.7237 30.4675C20.7237 32.1616 19.4076 33.5357 17.7814 33.5357ZM31.9466 36.708C31.6605 36.746 31.3725 36.766 31.0745 36.766C29.1383 36.774 26.9482 35.9739 25.246 35.1698C24.546 34.8398 23.9359 34.5138 23.4499 34.2418L23.4299 32.2656C23.4959 31.9656 23.5779 31.7036 23.6719 31.4735L30.0924 27.5472L35.8109 25.401C35.9489 26.0551 36.1029 26.9832 36.1009 27.8552C36.1049 27.9953 36.0969 28.1393 36.0909 28.2893C35.9949 29.9474 35.2128 31.7796 35.2188 31.7856L35.1768 31.8836L35.1748 31.8656C33.4287 32.2316 33.6927 32.6656 31.8906 33.1477C31.6945 33.2017 31.4045 33.2317 31.0625 33.2317C29.9124 33.2357 28.2263 32.9076 26.8342 32.5796C25.448 32.2516 24.346 31.9236 24.346 31.9256L24.28 32.1936C26.6281 32.8916 28.5223 34.0657 31.0645 34.0717C31.4545 34.0717 31.8066 34.0357 32.1126 33.9557C34.1547 33.3737 33.8847 32.9577 35.3388 32.6836L35.3308 32.6476L35.4268 32.7356C35.4348 32.7296 37.221 34.3818 37.473 34.7758C37.565 34.8978 37.603 35.0918 37.617 35.2598C36.7389 35.6339 34.8548 36.3039 31.9466 36.708Z" fill="#FEFEFF"/>
</svg>
