<svg width="45" height="45" viewBox="0 0 45 45" fill="none" xmlns="http://www.w3.org/2000/svg">
<path d="M49.004 0.999084H1.00012V49.0029H49.004V0.999084Z" fill="#AEB0B5"/>
<path d="M0 -0.000976562V50.001H50V-0.000976562H0ZM1.99616 48.0049V1.99718H47.9998L48.0038 48.0049H1.99616ZM4.44436 11.608L5.55844 14.3942L25.002 6.61755L44.4456 14.3922L45.5596 11.606L24.998 3.37929L4.44436 11.608Z" fill="#FEFEFF"/>
<path d="M28.3203 14.4922C27.6442 14.1801 26.9322 13.9541 26.1961 13.8281C24.484 13.5661 22.6778 13.8041 21.1357 14.6162C20.0456 15.1882 19.1155 16.0563 18.4875 17.1144C17.9814 18.0025 17.6634 19.0005 17.5694 20.0206C17.5674 20.3786 17.5614 20.7367 17.5714 21.0947C17.6734 22.0648 17.9634 23.0069 18.3655 23.8929C18.3835 23.9369 18.4215 24.0229 18.4415 24.0669C18.6075 24.437 18.8035 24.787 18.9915 25.141C19.1975 25.5291 19.4336 25.9051 19.6476 26.2871C20.3596 27.4432 21.0077 28.6633 21.3237 29.9934C21.4377 30.4415 21.4397 30.9055 21.6017 31.3435C21.7237 31.7036 22.0798 31.9696 22.4658 31.9576C24.0499 31.9576 25.6321 31.9576 27.2102 31.9576C27.5342 31.9656 27.8342 31.7856 28.0122 31.5235C28.0343 31.4815 28.0763 31.3975 28.0983 31.3555C28.2463 30.8515 28.2623 30.3214 28.4143 29.8194C28.7323 28.5493 29.3684 27.3932 30.0504 26.2851C30.9985 24.679 31.9386 22.9789 32.1106 21.0867C32.2106 19.9026 31.9826 18.7085 31.4765 17.6364C30.8445 16.2543 29.6824 15.1482 28.3203 14.4922ZM29.4824 24.723C28.8123 25.9551 28.0142 27.1292 27.5462 28.4633C27.3082 29.0933 27.1942 29.7614 27.0882 30.4254C25.5961 30.4254 24.1019 30.4455 22.6098 30.4135C22.4958 29.7094 22.3618 29.0093 22.1098 28.3413C21.5837 26.9552 20.7397 25.7251 20.0536 24.417C19.4756 23.3349 19.0015 22.1548 18.9555 20.9167C18.8955 19.8706 19.1795 18.8165 19.7256 17.9244C20.3876 16.8464 21.4337 16.0263 22.6218 15.5983C24.414 14.9402 26.4961 15.1222 28.1363 16.1043C28.9803 16.6243 29.6904 17.3624 30.1484 18.2445C30.6105 19.1045 30.7965 20.0966 30.7305 21.0647C30.6425 22.3688 30.1084 23.5909 29.4824 24.723ZM26.0501 21.7108C26.2301 21.8928 26.6621 22.0308 27.1442 22.0308C27.6262 22.0308 28.1923 21.3867 28.1923 20.4487C27.8802 20.4487 27.4562 20.4487 27.4562 20.4487C27.4562 20.4487 27.2302 21.1527 26.8362 21.1527C26.4461 21.1527 26.3801 20.5007 26.3801 20.4387C26.1721 20.4427 25.9521 20.4467 25.7381 20.4507C25.6661 20.6587 25.5461 21.2827 25.054 21.2827C24.562 21.2827 24.488 20.4827 24.488 20.4827L23.8019 20.4587C23.7059 20.8087 23.5419 21.2707 23.0939 21.2347C22.6838 21.2267 22.5618 20.7927 22.4518 20.4687C22.2218 20.4707 21.9838 20.4747 21.7417 20.4867C21.5937 21.1827 22.1198 21.8588 22.7838 22.0308C23.2459 22.2068 23.7179 21.9448 24.1119 21.7228C24.412 21.8608 24.692 21.9948 25.044 22.0308C25.542 22.0308 25.8541 21.9468 26.0501 21.7108ZM22.6558 22.9809H22.0198L23.3499 29.6574L24.372 29.6694L22.6558 22.9809ZM25.152 29.6674L26.3081 29.6634L27.6462 22.9689L26.8942 22.9629L25.152 29.6674ZM21.6217 36.86C21.6537 37.266 22.0578 37.568 22.4498 37.56H27.2342C27.6642 37.568 28.0983 37.204 28.0743 36.76C28.0983 35.5299 28.0643 34.2998 28.0923 33.0737C25.9341 33.0757 23.7759 33.0897 21.6157 33.0677C21.6357 34.3298 21.6117 35.5939 21.6217 36.86ZM24.0539 39.3262C24.842 39.7242 25.9401 39.4402 26.3041 38.6041C25.318 38.6001 24.332 38.6201 23.3459 38.5921C23.5199 38.8881 23.7479 39.1582 24.0539 39.3262Z" fill="#FEFEFF"/>
</svg>
