<svg width="50" height="50" viewBox="0 0 50 50" fill="none" xmlns="http://www.w3.org/2000/svg">
<path d="M25 49C38.2548 49 49 38.2548 49 25C49 11.7452 38.2548 1 25 1C11.7452 1 1 11.7452 1 25C1 38.2548 11.7452 49 25 49Z" fill="#0071BC"/>
<path d="M0 25C0.002 11.192 11.196 0 25.002 0C38.808 0 50 11.192 50 25C50 38.804 38.808 49.996 25.002 50C11.196 49.996 0.002 38.804 0 25ZM2 25C2.024 37.706 12.3 47.974 25.002 47.998C37.704 47.974 47.978 37.706 48 25C47.978 12.296 37.704 2.022 25.002 1.998C12.3 2.022 2.026 12.296 2 25Z" fill="white"/>
<path d="M24.6739 44.648C24.8699 44.85 25.0859 45.028 25.3039 45.204C25.2739 45.504 25.2579 45.814 25.1359 46.094C25.1059 46.17 25.0479 46.224 24.9819 46.27C24.8879 46.182 24.8259 46.066 24.7939 45.944C24.6739 45.524 24.6739 45.082 24.6739 44.648ZM24.6239 40.244C24.9439 40.464 25.1899 40.79 25.2919 41.166C25.3819 41.412 25.3439 41.674 25.3459 41.932C25.3419 42.594 25.3299 43.252 25.3179 43.912C25.0019 43.37 24.7319 42.786 24.6459 42.158C24.6299 41.52 24.6279 40.88 24.6239 40.244ZM24.1039 39.838C24.1619 39.88 24.2179 39.922 24.2719 39.964C24.2679 40.562 24.3019 41.158 24.2719 41.754C24.2599 42.472 24.5179 43.166 24.8499 43.792C25.0819 44.232 25.3719 44.638 25.6679 45.034C25.1199 44.638 24.6279 44.154 24.2619 43.584C23.7759 42.822 23.5139 41.902 23.6159 41C23.6559 40.574 23.8539 40.178 24.1039 39.838ZM24.5639 35.838C24.8639 36.032 25.1459 36.248 25.4079 36.486C25.4039 37.29 25.3899 38.094 25.3819 38.898C25.1179 38.692 24.8559 38.48 24.5959 38.27C24.5879 37.458 24.5759 36.65 24.5639 35.838ZM22.7779 36.876C22.9019 36.258 23.3419 35.762 23.8219 35.384C23.9499 35.464 24.0839 35.542 24.2139 35.618C24.2119 35.858 24.2279 36.098 24.2199 36.338C24.1659 36.45 24.0559 36.528 23.9839 36.63C23.7759 36.902 23.5839 37.24 23.6579 37.594C23.7559 37.97 24.0519 38.242 24.3299 38.494C24.6839 38.792 25.0479 39.08 25.4159 39.364C25.9479 39.782 26.3459 40.404 26.3919 41.088C26.4699 42.004 26.1799 42.924 25.6739 43.68C25.6819 43.186 25.6699 42.69 25.6999 42.196C25.7699 41.642 25.7079 41.05 25.4079 40.568C25.1799 40.166 24.7719 39.924 24.4239 39.638C23.9659 39.292 23.5059 38.926 23.1739 38.446C22.8539 37.998 22.6579 37.428 22.7779 36.876ZM24.4999 30.408C24.8339 30.532 25.1619 30.676 25.4799 30.84C25.4699 32.056 25.4479 33.276 25.4359 34.492C25.1299 34.3 24.8319 34.096 24.5459 33.878C24.5219 32.722 24.5139 31.566 24.4999 30.408ZM21.9819 31.544C22.1499 30.862 22.6479 30.32 23.1999 29.918C23.5119 30.052 23.8279 30.172 24.1499 30.286C24.1499 30.408 24.1519 30.53 24.1519 30.65C23.7259 30.906 23.3019 31.232 23.0959 31.7C22.9279 32.074 22.9759 32.514 23.1619 32.87C23.4239 33.38 23.8599 33.772 24.2979 34.128C24.7359 34.47 25.2079 34.768 25.6839 35.052C26.2159 35.374 26.7159 35.786 27.0199 36.334C27.2619 36.766 27.3239 37.298 27.1659 37.768C26.9519 38.42 26.4599 38.938 25.9339 39.354C25.8659 39.284 25.7779 39.228 25.7259 39.144C25.7219 38.906 25.7339 38.668 25.7379 38.43C25.9939 38.192 26.2659 37.924 26.3439 37.568C26.4019 37.206 26.2039 36.872 25.9879 36.6C25.4799 35.982 24.7979 35.544 24.1119 35.15C23.4039 34.718 22.7619 34.144 22.3299 33.426C21.9979 32.872 21.8179 32.188 21.9819 31.544ZM24.4279 25.038C24.8039 25.07 25.1819 25.082 25.5559 25.124C25.5299 26.376 25.5319 27.63 25.5039 28.882C25.1579 28.75 24.8139 28.616 24.4719 28.478C24.4599 27.332 24.4419 26.184 24.4279 25.038ZM20.3339 25.554C20.5219 25.182 20.8159 24.874 21.1479 24.624C21.8699 24.808 22.6139 24.892 23.3559 24.952C22.8319 25.114 22.3159 25.386 21.9899 25.84C21.7559 26.158 21.6619 26.58 21.7799 26.958C21.9159 27.408 22.2679 27.752 22.6479 28.008C23.0539 28.282 23.5159 28.458 23.9639 28.646C24.4919 28.868 25.0219 29.072 25.5559 29.276C26.2379 29.526 26.8819 29.894 27.3779 30.426C27.7559 30.822 28.0359 31.338 28.0719 31.89C28.1159 32.474 27.9099 33.052 27.5999 33.538C27.2399 34.104 26.7379 34.566 26.1999 34.956C26.0599 34.876 25.9279 34.78 25.7859 34.698C25.7899 34.482 25.7899 34.266 25.7939 34.05C26.2399 33.692 26.6699 33.284 26.9099 32.758C27.0719 32.4 27.0819 31.97 26.8959 31.62C26.6479 31.142 26.1899 30.822 25.7319 30.566C24.9859 30.146 24.1439 29.944 23.3619 29.602C22.5479 29.256 21.7559 28.822 21.1019 28.22C20.6759 27.822 20.2979 27.33 20.1719 26.75C20.0799 26.348 20.1439 25.92 20.3339 25.554ZM27.7659 19.666C28.4759 19.538 29.1999 19.638 29.9079 19.726C30.6879 19.774 31.4859 19.852 32.2039 20.18C32.5439 20.342 32.8919 20.598 32.9859 20.984C33.0799 21.4 32.8719 21.808 32.6279 22.13C32.1599 22.728 31.5159 23.158 30.8519 23.51C30.2299 23.826 29.5779 24.076 28.9059 24.244C28.1799 23.774 27.3479 23.496 26.5159 23.292C27.6279 23.244 28.7459 23.124 29.8119 22.79C30.3679 22.614 30.9219 22.4 31.4099 22.07C31.6179 21.924 31.8359 21.75 31.9139 21.498C31.9599 21.288 31.9339 21.034 31.7579 20.89C31.5779 20.742 31.3279 20.724 31.1059 20.714C30.6999 20.706 30.2899 20.726 29.8859 20.774C29.5639 20.812 29.2579 20.932 28.9739 21.09C28.7199 21.216 28.4739 21.392 28.1779 21.398C27.6959 21.422 27.1879 21.334 26.7759 21.074C26.5919 20.978 26.6879 20.748 26.7539 20.606C26.9759 20.2 27.3239 19.832 27.7659 19.666ZM20.0439 19.73C20.6039 19.668 21.1659 19.58 21.7319 19.612C21.9739 19.63 22.2319 19.624 22.4419 19.76C22.7879 19.968 23.0799 20.276 23.2579 20.64C23.3179 20.776 23.3899 20.988 23.2219 21.076C22.8219 21.328 22.3319 21.414 21.8619 21.404C21.5319 21.408 21.2559 21.206 20.9719 21.068C20.6939 20.916 20.3939 20.806 20.0819 20.772C19.6719 20.728 19.2579 20.706 18.8459 20.718C18.6379 20.728 18.4059 20.752 18.2379 20.89C18.0619 21.034 18.0319 21.29 18.0799 21.5C18.1639 21.762 18.3939 21.94 18.6119 22.092C19.0899 22.41 19.6359 22.618 20.1799 22.792C21.1839 23.098 22.2339 23.246 23.2819 23.288C23.8639 23.312 24.4459 23.304 25.0239 23.38C26.0119 23.504 26.9919 23.728 27.9119 24.116C28.4719 24.36 29.0219 24.674 29.4019 25.158C29.7339 25.56 29.9299 26.09 29.8479 26.614C29.7719 27.188 29.4299 27.686 29.0319 28.088C28.4079 28.712 27.6339 29.156 26.8359 29.518C26.5239 29.318 26.1919 29.156 25.8519 29.018C25.8519 28.918 25.8519 28.822 25.8519 28.722C26.5139 28.44 27.2199 28.202 27.7499 27.7C28.0479 27.424 28.2739 27.026 28.2219 26.608C28.1699 26.14 27.8339 25.762 27.4639 25.498C26.8879 25.094 26.2019 24.868 25.5099 24.768C24.5159 24.694 23.5199 24.626 22.5299 24.52C21.4399 24.39 20.3699 24.1 19.3799 23.626C18.6879 23.292 18.0219 22.876 17.5039 22.298C17.2539 22.01 17.0259 21.668 16.9879 21.278C16.9599 21.026 17.0519 20.77 17.2199 20.586C17.4539 20.324 17.7779 20.166 18.1019 20.05C18.7279 19.838 19.3899 19.766 20.0439 19.73ZM28.5739 12.396C28.8459 12.066 29.1979 11.794 29.5999 11.646C29.9299 11.554 30.2719 11.658 30.5879 11.758C31.3459 12.022 32.0519 12.412 32.7679 12.776C33.6819 13.244 34.5999 13.712 35.5639 14.068C36.6859 14.478 37.9079 14.754 39.0979 14.52C39.6119 14.432 40.0839 14.148 40.6159 14.16C40.7459 14.156 40.9399 14.222 40.9019 14.39C40.8379 14.754 40.5659 15.038 40.3079 15.282C39.7299 15.802 38.9679 16.134 38.1819 16.12C38.1899 16.238 38.2719 16.382 38.1759 16.484C38.0459 16.612 37.8619 16.652 37.6899 16.686C37.0719 16.784 36.4399 16.688 35.8499 16.496C35.8339 16.752 35.8139 17.032 35.6399 17.236C35.4639 17.438 35.1859 17.5 34.9319 17.498C34.5599 17.502 34.2039 17.402 33.8559 17.29C33.7259 17.646 33.4959 18.012 33.1119 18.118C32.5619 18.276 32.0259 18.018 31.4979 17.894C31.4079 18.074 31.3139 18.264 31.1419 18.38C30.9019 18.55 30.5879 18.552 30.3099 18.5C29.9579 18.426 29.6239 18.276 29.3179 18.092C29.2499 18.05 29.1739 18.024 29.0999 18C28.8899 18.186 28.7019 18.4 28.4679 18.554C28.2099 18.72 27.8859 18.708 27.5919 18.67C27.0499 18.586 26.5259 18.414 26.0079 18.238C26.0219 17.176 26.0359 16.112 26.0539 15.048C26.4039 15.13 26.7939 15.124 27.1059 14.922C27.3919 14.742 27.5359 14.418 27.6679 14.122C27.9279 13.52 28.1579 12.9 28.5739 12.396ZM18.4439 12.162C18.9439 11.932 19.4559 11.686 20.0059 11.618C20.3839 11.56 20.7279 11.78 21.0179 11.996C21.6359 12.48 21.9539 13.218 22.2439 13.92C22.3959 14.264 22.5299 14.652 22.8459 14.886C23.1539 15.116 23.5679 15.132 23.9339 15.048C23.9479 16.114 23.9719 17.176 23.9779 18.24C23.4519 18.414 22.9239 18.592 22.3759 18.672C22.0919 18.706 21.7799 18.712 21.5299 18.552C21.2959 18.398 21.1059 18.184 20.8979 17.998C20.7239 18.046 20.5819 18.16 20.4199 18.236C20.0179 18.43 19.5559 18.604 19.1079 18.496C18.8079 18.428 18.6159 18.162 18.5019 17.896C17.9739 18.018 17.4379 18.276 16.8879 18.118C16.5019 18.012 16.2719 17.646 16.1419 17.29C15.6459 17.442 15.0919 17.608 14.5879 17.404C14.2319 17.254 14.1559 16.836 14.1459 16.496C13.5299 16.696 12.8619 16.794 12.2159 16.666C12.0519 16.622 11.8379 16.574 11.7759 16.394C11.7799 16.3 11.7999 16.21 11.8179 16.12C10.9899 16.134 10.1879 15.766 9.6019 15.196C9.3799 14.968 9.1519 14.71 9.0999 14.388C9.0599 14.242 9.2159 14.162 9.3379 14.16C9.8659 14.126 10.3419 14.41 10.8459 14.506C11.8539 14.72 12.8999 14.558 13.8699 14.256C15.4779 13.758 16.9359 12.894 18.4439 12.162ZM24.6859 10.55C25.3019 10.404 25.9799 10.72 26.2759 11.278C26.5799 11.822 26.4779 12.562 26.0299 12.998C25.9479 13.082 25.8519 13.154 25.7559 13.224C25.6879 17.182 25.6379 19.14 25.5819 23.1C25.1919 23.04 24.7979 22.992 24.4039 22.972C24.3459 19.056 24.2959 17.142 24.2319 13.228C23.8019 12.954 23.5179 12.462 23.5339 11.95C23.5339 11.292 24.0419 10.678 24.6859 10.55Z" fill="white"/>
</svg>
