<svg width="50" height="50" viewBox="0 0 50 50" fill="none" xmlns="http://www.w3.org/2000/svg">
<path d="M25 49C38.2548 49 49 38.2548 49 25C49 11.7452 38.2548 1 25 1C11.7452 1 1 11.7452 1 25C1 38.2548 11.7452 49 25 49Z" fill="#0071BC"/>
<path d="M0 25C0.002 11.192 11.196 0 25.002 0C38.808 0 50 11.192 50 25C50 38.804 38.808 49.996 25.002 50C11.196 49.996 0.002 38.804 0 25ZM2 25C2.024 37.706 12.3 47.974 25.002 47.998C37.704 47.974 47.978 37.706 48 25C47.978 12.296 37.704 2.022 25.002 1.998C12.3 2.022 2.026 12.296 2 25Z" fill="white"/>
<path d="M23.852 14.034C25.004 12.13 22.944 9.51 20.808 10.256C19.138 10.674 18.072 12.958 19.392 14.308C20.432 15.882 23.046 15.788 23.852 14.034ZM26.742 22.288C25.334 22.288 22.38 22.288 22.38 22.288C22.38 22.288 22.416 18.968 22.386 17.308C21.214 17.252 20.496 17.424 19.452 16.75C18.576 16.292 17.766 15.538 16.712 15.584C14.572 15.524 12.428 15.558 10.284 15.584C9.42397 17.276 8.23997 18.846 7.57197 20.626C7.21797 21.69 8.80597 22.646 9.60997 21.896C10.652 20.884 11.144 19.466 11.806 18.2C13.22 18.172 14.634 18.168 16.048 18.206C14.846 20.76 13.258 23.1 11.856 25.546C10.384 27.762 11.196 30.542 10.99 33.028C9.56997 33.048 8.13597 32.92 6.72797 33.146C5.76597 33.278 5.46997 34.52 5.93997 35.266C6.48197 35.782 7.26997 35.828 7.97797 35.888C9.88597 35.98 13.718 35.858 13.718 35.858L13.78 28.288L19.662 31.562C19.662 31.562 19.662 35.848 19.662 37.714C19.662 38.834 22.508 38.924 22.508 37.714V30.106C20.638 29 19.22 28.126 17.33 27.056C18.038 25.576 18.848 24.132 19.908 22.874C19.972 23.594 20.072 25.04 20.072 25.04C20.072 25.04 23.848 25.13 25.74 25.094C26.39 25.052 27.108 25.094 27.668 24.692C28.242 24.112 28.15 22.288 26.742 22.288ZM29.644 10.912V37.968H41.27V10.912H29.644Z" fill="white"/>
</svg>
