<svg width="50" height="50" viewBox="0 0 50 50" fill="none" xmlns="http://www.w3.org/2000/svg">
<path d="M25 49C38.2548 49 49 38.2548 49 25C49 11.7452 38.2548 1 25 1C11.7452 1 1 11.7452 1 25C1 38.2548 11.7452 49 25 49Z" fill="#0071BC"/>
<path d="M0 25C0.002 11.192 11.196 0 25.002 0C38.808 0 50 11.192 50 25C50 38.804 38.808 49.996 25.002 50C11.196 49.996 0.002 38.804 0 25ZM2 25C2.024 37.706 12.3 47.974 25.002 47.998C37.704 47.974 47.978 37.706 48 25C47.978 12.296 37.704 2.022 25.002 1.998C12.3 2.022 2.026 12.296 2 25Z" fill="white"/>
<path d="M11.7219 28.772C12.7739 30.77 13.7039 33.066 15.8499 34.144C21.1579 37.04 27.9519 37.062 33.3939 34.494C35.8999 33.402 37.1399 30.872 38.4219 28.632C29.9279 31.84 20.2639 31.864 11.7219 28.772ZM32.0139 16.35C27.6959 13.796 21.9959 13.782 17.7119 16.42C14.2999 18.404 10.5839 19.754 7.10791 21.596C8.46791 23.634 9.80991 25.75 11.6839 27.366C15.5259 28.7 19.6699 28.716 23.6919 28.904C28.5159 28.872 33.4739 28.85 38.1119 27.398C40.0859 25.866 41.3519 23.626 42.6859 21.55C39.1719 19.722 35.4339 18.364 32.0139 16.35ZM28.7439 24.438C28.6479 24.718 28.4919 24.98 28.2719 25.178C28.0659 25.362 27.8179 25.49 27.5639 25.592C27.0839 25.782 26.5779 25.894 26.0819 26.032C25.5579 26.202 25.1779 26.632 24.8639 27.066C24.5719 26.606 24.1639 26.186 23.6319 26.024C23.1399 25.89 22.6419 25.778 22.1679 25.586C21.8959 25.476 21.6319 25.336 21.4279 25.126C21.2279 24.932 21.0959 24.68 21.0099 24.42C20.8619 23.95 20.7939 23.434 20.9399 22.956C21.0579 22.544 21.3039 22.188 21.4659 21.798C21.6139 21.45 21.5959 21.056 21.4899 20.702C21.4079 20.432 21.2019 20.236 21.0239 20.03C21.3299 19.608 21.6439 19.186 21.9479 18.76C22.4919 18.954 23.0899 19.044 23.6579 18.908C24.1179 18.802 24.5379 18.548 24.8679 18.21C25.2439 18.564 25.7099 18.84 26.2259 18.924C26.7519 19.012 27.2959 18.922 27.7879 18.728C28.1119 19.15 28.4319 19.574 28.7459 20.004C28.6059 20.17 28.4479 20.326 28.3479 20.524C28.2299 20.754 28.1959 21.018 28.1979 21.274C28.1919 21.45 28.2339 21.624 28.2979 21.786C28.4679 22.208 28.7419 22.588 28.8459 23.036C28.9659 23.498 28.8919 23.988 28.7439 24.438Z" fill="white"/>
</svg>
