<svg width="45" height="51" viewBox="0 0 45 51" fill="none" xmlns="http://www.w3.org/2000/svg">
<path d="M49.0038 1.00006H1V49.0039H49.0038V1.00006Z" fill="#0071BC"/>
<path d="M0 0V50.002H50V0H0ZM1.99616 48.0058V1.99816H47.9998L48.0038 48.0058H1.99616ZM4.44436 11.6089L5.55844 14.3952L25.002 6.61853L44.4456 14.3932L45.5596 11.6069L24.998 3.38027L4.44436 11.6089Z" fill="#FEFEFF"/>
<path d="M24.652 22.6318C25.03 22.8078 25.4521 22.8998 25.8761 22.8998C26.2461 22.8998 26.6162 22.8298 26.9562 22.6958C27.5922 22.4498 28.1443 21.9658 28.4683 21.3657C28.7023 20.9337 28.8263 20.4416 28.8263 19.9476C28.8263 19.6556 28.7843 19.3676 28.7023 19.0935C28.5163 18.4755 28.1183 17.9214 27.5922 17.5514C27.1002 17.1934 26.4901 17.0054 25.8841 17.0054C25.8361 17.0054 25.7821 17.0054 25.7201 17.0114C25.128 17.0474 24.55 17.2574 24.086 17.6214H24.082C23.4899 18.0755 23.0779 18.7695 22.9719 19.5116C22.9459 19.6516 22.9379 19.8016 22.9379 19.9536C22.9379 20.4456 23.0619 20.9377 23.2999 21.3697C23.5999 21.9178 24.082 22.3718 24.652 22.6318ZM32.8247 26.1281C32.1546 25.138 30.9745 24.494 29.7824 24.482H22.4278C22.3038 24.482 22.1898 24.476 22.0818 24.476C21.9578 24.476 21.8438 24.482 21.7298 24.494C20.8497 24.58 19.9916 24.978 19.3776 25.6201C18.6995 26.2901 18.2975 27.2442 18.2855 28.1903C18.2815 29.8224 18.2815 31.4485 18.2855 33.0847C18.2815 34.7108 18.2815 36.3469 18.2815 37.9811V37.985C18.2815 38.3671 18.4415 38.7631 18.7255 39.0011C18.9235 39.1731 19.1936 39.2652 19.4656 39.2652C19.6716 39.2652 19.8756 39.2151 20.0436 39.1211C20.3197 38.9611 20.5277 38.6631 20.6017 38.3471C20.6437 38.1711 20.6497 37.9811 20.6497 37.773V37.519C20.6497 37.479 20.6557 37.441 20.6557 37.423C20.6377 36.999 20.6377 36.5809 20.6377 36.1629C20.6377 35.7469 20.6417 35.3308 20.6417 34.9168C20.6417 34.5028 20.6377 34.0867 20.6297 33.6707V32.3546C20.6297 31.4705 20.6297 30.5945 20.6337 29.8024C20.6137 29.7464 20.6137 29.6904 20.6137 29.6824C20.6137 29.6384 20.6177 29.5924 20.6177 29.5524C20.6137 29.3884 20.6257 29.1203 20.8337 28.9523C20.9537 28.8263 21.1097 28.7803 21.2537 28.7803C21.5658 28.7803 21.8978 29.0103 21.9058 29.4004V29.4104C21.9098 30.5925 21.9238 31.7806 21.9238 32.9706V33.5787C21.9318 34.0287 21.9318 34.4788 21.9318 34.9268C21.9318 35.2908 21.9358 35.6529 21.9358 36.0169V36.4109C21.9438 36.775 21.9438 37.141 21.9438 37.507C21.9438 37.911 21.9398 38.3211 21.9398 38.7271C21.9398 39.1131 21.9478 39.5012 21.9558 39.8992V40.1972C21.9558 40.2152 21.9558 40.2332 21.9578 40.2492H29.7784V29.3864C29.8164 29.0443 30.0864 28.7903 30.4285 28.7823C30.4705 28.7823 30.4925 28.7863 30.4845 28.7863C30.8225 28.8223 31.0265 29.1023 31.0425 29.4024C31.0465 29.5024 31.0465 29.6044 31.0465 29.7104V30.1164C31.0465 30.1784 31.0465 30.2424 31.0505 30.3144C31.0545 30.5225 31.0545 30.7285 31.0545 30.9365V31.5365C31.0545 31.7386 31.0605 31.9386 31.0685 32.1486C31.0725 34.0927 31.0965 36.0349 31.1065 37.975C31.1145 38.3511 31.2525 38.7351 31.5166 38.9731C31.7146 39.1571 32.0006 39.2652 32.2946 39.2652C32.5146 39.2652 32.7386 39.2031 32.9207 39.0871C33.1767 38.9271 33.3607 38.6431 33.4347 38.3311C33.4787 38.1331 33.4847 37.913 33.4847 37.671V37.631C33.4847 37.583 33.4847 37.537 33.4887 37.497C33.4847 36.4629 33.4847 35.4288 33.4847 34.3948C33.4847 32.3226 33.4847 30.2564 33.4887 28.1943C33.4767 27.4622 33.2427 26.7321 32.8247 26.1281ZM37.9811 29.4504C38.1991 29.5524 38.4431 29.6064 38.6891 29.6064C38.9031 29.6064 39.1172 29.5664 39.3152 29.4884C39.6852 29.3464 40.0032 29.0643 40.1912 28.7163C40.3273 28.4663 40.3993 28.1803 40.3993 27.8942C40.3993 27.7262 40.3753 27.5582 40.3293 27.4002C40.2212 27.0422 39.9912 26.7201 39.6872 26.5061C39.3992 26.2981 39.0492 26.1881 38.6951 26.1881C38.6671 26.1881 38.6371 26.1881 38.5991 26.1921C38.2571 26.2121 37.9211 26.3341 37.651 26.5441H37.649C37.305 26.8062 37.067 27.2102 37.007 27.6402C36.991 27.7222 36.987 27.8062 36.987 27.8962C36.987 28.1823 37.059 28.4663 37.195 28.7163C37.369 29.0363 37.649 29.2984 37.9811 29.4504ZM44.2016 32.7966C44.1916 32.3726 44.0556 31.9486 43.8135 31.5985C43.4255 31.0245 42.7415 30.6505 42.0514 30.6445H37.7871C37.715 30.6445 37.649 30.6405 37.585 30.6405C37.515 30.6405 37.447 30.6445 37.381 30.6505C36.869 30.6985 36.3729 30.9305 36.0169 31.3025C35.6249 31.6905 35.3909 32.2446 35.3829 32.7926C35.3809 33.7407 35.3809 34.6808 35.3829 35.6309C35.3809 36.5749 35.3809 37.521 35.3809 38.4691V38.4711C35.3809 38.6931 35.4749 38.9231 35.6389 39.0591C35.7529 39.1591 35.9109 39.2131 36.0689 39.2131C36.1869 39.2131 36.3049 39.1831 36.4029 39.1291C36.563 39.0371 36.685 38.8631 36.727 38.6811C36.751 38.5791 36.757 38.4691 36.757 38.3471V38.2031C36.757 38.1811 36.759 38.1591 36.759 38.1471C36.749 37.901 36.749 37.659 36.749 37.417C36.749 37.175 36.751 36.935 36.751 36.6949C36.751 36.4549 36.749 36.2129 36.745 35.9729V35.2088C36.745 34.6968 36.745 34.1887 36.747 33.7287C36.735 33.6947 36.735 33.6647 36.735 33.6587C36.735 33.6327 36.737 33.6067 36.737 33.5827C36.735 33.4887 36.743 33.3327 36.863 33.2347C36.931 33.1627 37.023 33.1347 37.105 33.1347C37.287 33.1347 37.481 33.2687 37.483 33.4947V33.5007C37.485 34.1847 37.493 34.8748 37.493 35.5649V35.9169C37.497 36.1769 37.497 36.4389 37.497 36.6989C37.497 36.909 37.501 37.121 37.501 37.331V37.559C37.505 37.769 37.505 37.9831 37.505 38.1951C37.505 38.4291 37.503 38.6671 37.503 38.9031C37.503 39.1271 37.507 39.3512 37.513 39.5812V39.7852H42.0494V33.4887C42.0714 33.2907 42.2274 33.1427 42.4254 33.1387C42.4494 33.1387 42.4654 33.1407 42.4594 33.1407C42.6554 33.1607 42.7734 33.3247 42.7835 33.4967C42.7854 33.5547 42.7855 33.6147 42.7855 33.6747V33.9107C42.7855 33.9467 42.7855 33.9847 42.7895 34.0247C42.7915 34.1447 42.7915 34.2648 42.7915 34.3848V34.7308C42.7915 34.8488 42.7935 34.9648 42.7975 35.0848C42.8015 36.2109 42.8155 37.339 42.8195 38.4631C42.8255 38.6811 42.9055 38.9031 43.0595 39.0431C43.1735 39.1491 43.3395 39.2131 43.5095 39.2131C43.6375 39.2131 43.7675 39.1751 43.8735 39.1091C44.0215 39.0171 44.1296 38.8531 44.1716 38.6711C44.1976 38.5571 44.2016 38.4291 44.2016 38.2891V38.2671C44.2016 38.2391 44.2016 38.2131 44.2036 38.1891C44.2016 37.591 44.2016 36.989 44.2016 36.3909C44.1996 35.1908 44.1996 33.9927 44.2016 32.7966ZM16.6874 37.985V37.951C16.6874 37.947 16.6894 37.939 16.6914 37.931V28.1803L16.6934 28.1763C16.1373 27.7262 15.4433 27.4462 14.7272 27.4382H8.82474C8.62872 27.4382 8.4367 27.4302 8.24269 27.4502C7.48863 27.5202 6.75857 27.8602 6.23253 28.4083C5.65048 28.9843 5.31046 29.7964 5.29645 30.6145C5.29445 33.2367 5.29645 35.8529 5.29445 38.4791C5.29245 38.8391 5.43847 39.2091 5.71849 39.4512C6.07052 39.7512 6.61056 39.7872 7.01059 39.5652C7.28261 39.4052 7.47863 39.1231 7.55263 38.8191C7.62064 38.5571 7.59664 38.2871 7.60064 38.0231C7.57664 37.021 7.60864 36.0189 7.58264 35.0168C7.58464 33.9587 7.58464 32.8986 7.57264 31.8406C7.57464 31.6765 7.54463 31.4805 7.68865 31.3685C7.87066 31.1945 8.21469 31.3365 8.20669 31.5945C8.21069 32.7126 8.22669 33.8287 8.22069 34.9448C8.23869 35.7049 8.22669 36.4629 8.23069 37.219C8.25469 38.1511 8.22269 39.0811 8.24869 40.0132C8.24869 40.1772 8.25069 40.3372 8.24669 40.5013H14.9292V31.5945C14.9452 31.4245 15.1072 31.2785 15.2793 31.2945C15.4273 31.3105 15.5393 31.4485 15.5453 31.5945C15.5573 31.8346 15.5453 32.0826 15.5513 32.3286C15.5713 32.8166 15.5453 33.3047 15.5653 33.7927C15.5693 35.3528 15.5893 36.915 15.5973 38.4771C15.6053 38.8211 15.7273 39.1811 15.9893 39.4152C16.3493 39.7592 16.9454 39.7992 17.3614 39.5332C17.3934 39.5132 17.4094 39.4792 17.4394 39.4552C17.3974 39.4272 17.3474 39.4152 17.3094 39.3812C16.8974 39.0251 16.6874 38.5031 16.6874 37.985ZM10.5209 26.3361C11.1469 26.6261 11.889 26.6441 12.531 26.3901C13.0871 26.1761 13.5631 25.7581 13.8491 25.234C14.1792 24.636 14.2492 23.9059 14.0512 23.2539C13.8891 22.7158 13.5451 22.2358 13.0891 21.9118C12.619 21.5737 12.033 21.4077 11.4569 21.4417C10.9429 21.4717 10.4369 21.6517 10.0288 21.9738C9.50879 22.3698 9.15476 22.9718 9.06276 23.6179C8.97875 24.1699 9.07876 24.75 9.34878 25.238C9.6088 25.7161 10.0248 26.1061 10.5209 26.3361Z" fill="#FEFEFF"/>
</svg>
