<?xml version="1.0" encoding="UTF-8" standalone="no"?>
<!DOCTYPE svg PUBLIC "-//W3C//DTD SVG 1.1//EN" "http://www.w3.org/Graphics/SVG/1.1/DTD/svg11.dtd">
<svg width="100%" height="100%" viewBox="0 0 50 52" version="1.1" xmlns="http://www.w3.org/2000/svg" xmlns:xlink="http://www.w3.org/1999/xlink" xml:space="preserve" xmlns:serif="http://www.serif.com/" style="fill-rule:evenodd;clip-rule:evenodd;stroke-linejoin:round;stroke-miterlimit:2;">
    <g transform="matrix(1.85417,0,0,1.875,25.25,25.5)">
        <g id="Ebene1">
            <g transform="matrix(1,0,0,1,-12,-12)">
                <path d="M8,2L3,2C2.451,2 2,2.451 2,3L2,8C2,8.549 2.451,9 3,9C3.549,9 4,8.549 4,8L4,4L8,4C8.549,4 9,3.549 9,3C9,2.451 8.549,2 8,2ZM8,20L4,20L4,16C4,15.451 3.549,15 3,15C2.451,15 2,15.451 2,16L2,21C2,21.549 2.451,22 3,22L8,22C8.549,22 9,21.549 9,21C9,20.451 8.549,20 8,20ZM21,2L16,2C15.451,2 15,2.451 15,3C15,3.549 15.451,4 16,4L20,4L20,8C20,8.549 20.451,9 21,9C21.549,9 22,8.549 22,8L22,3C22,2.451 21.549,2 21,2ZM21,15C20.451,15 20,15.451 20,16L20,20L16,20C15.451,20 15,20.451 15,21C15,21.549 15.451,22 16,22L21,22C21.549,22 22,21.549 22,21L22,16C22,15.451 21.549,15 21,15Z" style="fill:white;fill-rule:nonzero;"/>
            </g>
        </g>
    </g>
</svg>
