<svg width="51" height="50" viewBox="0 0 51 50" fill="none" xmlns="http://www.w3.org/2000/svg">
<path fill-rule="evenodd" clip-rule="evenodd" d="M40.83 25C40.83 25.7084 40.7675 26.375 40.6842 27.0417L45.08 30.4792C45.4758 30.7917 45.58 31.3542 45.33 31.8125L41.1633 39.0209C40.9133 39.4792 40.3717 39.6667 39.8925 39.4792L34.705 37.3959C33.6217 38.2084 32.455 38.9167 31.1842 39.4375L30.3925 44.9584C30.33 45.4584 29.8925 45.8334 29.3717 45.8334H21.0383C20.5175 45.8334 20.08 45.4584 20.0175 44.9584L19.2258 39.4375C17.955 38.9167 16.7883 38.2292 15.705 37.3959L10.5175 39.4792C10.0592 39.6459 9.49665 39.4792 9.24665 39.0209L5.07999 31.8125C4.82999 31.3542 4.93415 30.7917 5.32999 30.4792L9.72582 27.0417C9.64249 26.375 9.57999 25.6875 9.57999 25C9.57999 24.3125 9.64249 23.625 9.72582 22.9584L5.32999 19.5209C4.93415 19.2084 4.80915 18.6459 5.07999 18.1875L9.24665 10.9792C9.49665 10.5209 10.0383 10.3334 10.5175 10.5209L15.705 12.6042C16.7883 11.7917 17.955 11.0834 19.2258 10.5625L20.0175 5.04169C20.08 4.54169 20.5175 4.16669 21.0383 4.16669H29.3717C29.8925 4.16669 30.33 4.54169 30.3925 5.04169L31.1842 10.5625C32.455 11.0834 33.6217 11.7709 34.705 12.6042L39.8925 10.5209C40.3508 10.3542 40.9133 10.5209 41.1633 10.9792L45.33 18.1875C45.58 18.6459 45.4758 19.2084 45.08 19.5209L40.6842 22.9584C40.7675 23.625 40.83 24.2917 40.83 25ZM17.9133 25C17.9133 29.0209 21.1842 32.2917 25.205 32.2917C29.2258 32.2917 32.4967 29.0209 32.4967 25C32.4967 20.9792 29.2258 17.7084 25.205 17.7084C21.1842 17.7084 17.9133 20.9792 17.9133 25Z" fill="#494440"/>
</svg>
