<svg width="50" height="54" viewBox="0 0 50 54" fill="none" xmlns="http://www.w3.org/2000/svg">
<g filter="url(#filter0_d_138_1405)">
<path fill-rule="evenodd" clip-rule="evenodd" d="M40.625 25C40.625 25.7084 40.5625 26.375 40.4792 27.0417L44.875 30.4792C45.2709 30.7917 45.375 31.3542 45.125 31.8125L40.9584 39.0209C40.7084 39.4792 40.1667 39.6667 39.6875 39.4792L34.5 37.3959C33.4167 38.2084 32.25 38.9167 30.9792 39.4375L30.1875 44.9584C30.125 45.4584 29.6875 45.8334 29.1667 45.8334H20.8334C20.3125 45.8334 19.875 45.4584 19.8125 44.9584L19.0209 39.4375C17.75 38.9167 16.5834 38.2292 15.5 37.3959L10.3125 39.4792C9.8542 39.6459 9.2917 39.4792 9.0417 39.0209L4.87503 31.8125C4.62503 31.3542 4.7292 30.7917 5.12503 30.4792L9.52086 27.0417C9.43753 26.375 9.37503 25.6875 9.37503 25C9.37503 24.3125 9.43753 23.625 9.52086 22.9584L5.12503 19.5209C4.7292 19.2084 4.6042 18.6459 4.87503 18.1875L9.0417 10.9792C9.2917 10.5209 9.83336 10.3334 10.3125 10.5209L15.5 12.6042C16.5834 11.7917 17.75 11.0834 19.0209 10.5625L19.8125 5.04169C19.875 4.54169 20.3125 4.16669 20.8334 4.16669H29.1667C29.6875 4.16669 30.125 4.54169 30.1875 5.04169L30.9792 10.5625C32.25 11.0834 33.4167 11.7709 34.5 12.6042L39.6875 10.5209C40.1459 10.3542 40.7084 10.5209 40.9584 10.9792L45.125 18.1875C45.375 18.6459 45.2709 19.2084 44.875 19.5209L40.4792 22.9584C40.5625 23.625 40.625 24.2917 40.625 25ZM17.7084 25C17.7084 29.0209 20.9792 32.2917 25 32.2917C29.0209 32.2917 32.2917 29.0209 32.2917 25C32.2917 20.9792 29.0209 17.7084 25 17.7084C20.9792 17.7084 17.7084 20.9792 17.7084 25Z" fill="#FEFEFF"/>
</g>
<defs>
<filter id="filter0_d_138_1405" x="-4" y="0" width="58" height="58" filterUnits="userSpaceOnUse" color-interpolation-filters="sRGB">
<feFlood flood-opacity="0" result="BackgroundImageFix"/>
<feColorMatrix in="SourceAlpha" type="matrix" values="0 0 0 0 0 0 0 0 0 0 0 0 0 0 0 0 0 0 127 0" result="hardAlpha"/>
<feOffset dy="4"/>
<feGaussianBlur stdDeviation="2"/>
<feComposite in2="hardAlpha" operator="out"/>
<feColorMatrix type="matrix" values="0 0 0 0 0 0 0 0 0 0 0 0 0 0 0 0 0 0 0.25 0"/>
<feBlend mode="normal" in2="BackgroundImageFix" result="effect1_dropShadow_138_1405"/>
<feBlend mode="normal" in="SourceGraphic" in2="effect1_dropShadow_138_1405" result="shape"/>
</filter>
</defs>
</svg>
