<svg width="25" height="25" viewBox="0 0 25 25" fill="none" xmlns="http://www.w3.org/2000/svg">
<path d="M24.4059 12.4997L12.5005 0.594299L0.595112 12.4997L12.5005 24.4051L24.4059 12.4997Z" fill="#FFDA00"/>
<path d="M0 12.5017L12.5 0L25 12.5017L24.7026 12.7982L24.4061 12.5L24.7026 12.7982L12.5 25L0 12.5017ZM1.18944 12.5017L12.5 23.8122L23.8114 12.5008L12.5 1.18944L1.18944 12.5017Z" fill="#FF0000"/>
<path d="M11.318 14.0257L9.05759 17.7167C10.8837 18.7986 13.2248 18.8902 15.1938 17.7528L13.0308 14.0064C12.4831 14.3231 11.8346 14.308 11.318 14.0257ZM13.8834 12.2206L18.211 12.3331C18.2337 10.2105 17.1434 8.13652 15.1736 7L13.0106 10.7472C13.5583 11.0631 13.8699 11.6309 13.8834 12.2206ZM11.1643 10.9539L9.09875 7.1512C7.24908 8.19112 6 10.1735 6 12.4465H10.3251C10.3251 11.814 10.662 11.2605 11.1643 10.9539ZM12.1244 13.6603C12.7947 13.6603 13.3382 13.1169 13.3382 12.4465C13.3382 11.7762 12.7947 11.2319 12.1244 11.2319C11.4533 11.2319 10.9106 11.7754 10.9106 12.4465C10.9106 13.116 11.4533 13.6603 12.1244 13.6603Z" fill="black"/>
</svg>
