<svg width="25" height="25" viewBox="0 0 25 25" fill="none" xmlns="http://www.w3.org/2000/svg">
<path d="M24.4059 12.4997L12.5005 0.594284L0.595112 12.4997L12.5005 24.405L24.4059 12.4997Z" fill="#FFDA00"/>
<path d="M0 12.5017L12.5 0L25 12.5017L24.7026 12.7982L24.4061 12.5L24.7026 12.7982L12.5 25L0 12.5017ZM1.18944 12.5017L12.5 23.8122L23.8114 12.5008L12.5 1.18944L1.18944 12.5017Z" fill="#FF0000"/>
<path d="M16.8032 12.3731C16.4092 12.0639 15.896 11.9951 15.4122 11.9547C14.4848 11.9564 13.5583 11.9564 12.6309 11.9564C12.6293 11.8439 12.6309 11.7321 12.6309 11.6213C12.9014 11.6213 13.1727 11.6221 13.4415 11.6213V10.5343H12.6309C12.6293 10.0177 12.6326 9.50027 12.6293 8.98115C12.7897 8.89379 12.9821 8.85683 13.1643 8.89631C13.4239 8.94167 13.6322 9.11555 13.88 9.19199C14.1488 9.27599 14.4689 9.15503 14.5982 8.89967C14.7494 8.60567 14.7561 8.24615 14.6511 7.93619C14.5638 7.68167 14.3101 7.48512 14.0363 7.50276C13.6818 7.54308 13.3802 7.78331 13.0207 7.79423C12.683 7.78583 12.384 7.59347 12.048 7.56659C11.6196 7.49856 11.2508 7.81439 10.8258 7.79423C10.5368 7.80767 10.3159 7.59096 10.0479 7.52544C9.86399 7.46664 9.66239 7.5246 9.50951 7.63211C9.07439 7.95383 9.02567 8.69051 9.45071 9.03827C9.66071 9.21467 9.95891 9.18695 10.1991 9.09371C10.4663 9.01223 10.7292 8.84507 11.0198 8.89043C11.1643 8.93411 11.1903 9.10547 11.1971 9.23483C11.2021 9.66911 11.1971 10.1009 11.1987 10.5335C10.9333 10.536 10.6704 10.5343 10.4049 10.5343C10.4049 10.8972 10.4066 11.2592 10.4049 11.6213H11.2105V11.9564H8.86775C8.86607 11.612 8.87111 11.2693 8.86607 10.9249C8.81651 10.8115 8.80055 10.6754 8.70059 10.5939C8.55947 10.4789 8.36795 10.4881 8.19827 10.4663C7.70939 10.4562 7.21884 10.4696 6.72996 10.4595C6.72156 10.5125 6.71652 10.5662 6.71484 10.62V15.3954C7.2264 15.3895 7.73879 15.4071 8.25035 15.3861C8.47547 15.3752 8.75771 15.3097 8.82491 15.0611C8.91647 14.673 8.86271 14.2731 8.87783 13.8792C9.46163 13.8792 10.0446 13.8783 10.6267 13.8792C10.7124 14.2572 10.8745 14.6402 11.1861 14.8855C11.6406 15.2316 12.3311 15.2148 12.7729 14.8536C13.0703 14.6142 13.2374 14.2479 13.3029 13.8783C13.9279 13.8809 14.5512 13.875 15.1753 13.8809C15.3719 13.8825 15.5281 14.043 15.5818 14.2211C15.7095 14.5991 15.6541 15.0023 15.6675 15.3937C16.2614 15.3945 16.8553 15.3937 17.4492 15.3945C17.4475 14.8687 17.4559 14.3437 17.4458 13.8179C17.4189 13.2861 17.2467 12.7099 16.8032 12.3731ZM14.1707 11.2265H14.8351L18.6873 7.37676L17.3106 6L15.3945 7.91687C15.4256 8.06555 15.4483 8.21591 15.4483 8.36711C15.4483 8.65523 15.3861 8.95175 15.2467 9.23147C15.0123 9.66995 14.5999 9.90179 14.1707 9.93959V11.2265ZM9.97823 14.6075C9.85223 14.6075 9.72707 14.6066 9.60275 14.6066C9.59603 14.7931 9.58175 15.0023 9.52883 15.2517C9.25835 16.0447 8.56115 16.0976 8.27723 16.1136C8.05379 16.1245 7.83455 16.1245 7.62456 16.1245C7.47336 16.1245 7.33224 16.1236 7.18944 16.1228L6 17.3122L7.37424 18.6873L10.6712 15.392C10.4041 15.1568 10.2168 14.8847 10.0967 14.6083H9.97823V14.6075Z" fill="black"/>
</svg>
