<svg width="25" height="25" viewBox="0 0 25 25" fill="none" xmlns="http://www.w3.org/2000/svg">
<path d="M24.4059 12.4997L12.5005 0.594299L0.595112 12.4997L12.5005 24.4051L24.4059 12.4997Z" fill="#FFDA00"/>
<path d="M0 12.5017L12.5 0L25 12.5017L24.7026 12.7982L24.4061 12.5L24.7026 12.7982L12.5 25L0 12.5017ZM1.18944 12.5017L12.5 23.8122L23.8114 12.5008L12.5 1.18944L1.18944 12.5017Z" fill="#FF0000"/>
<path d="M13.5458 10.3877C13.5869 9.93406 13.6995 9.48297 13.6785 9.02683C13.5643 8.6967 13.1762 8.63454 12.9048 8.47914C13.0569 8.23889 13.2879 7.92136 13.6147 8.07677C13.7356 8.12885 13.8423 8.20193 13.9549 8.27165C14.1581 8.37413 14.4051 8.14229 14.4463 8.07592C14.4874 8.0062 14.6042 7.66347 14.3413 7.4081C14.3211 7.3871 14.2926 7.36106 14.2682 7.33754C13.8154 7.10318 13.2904 7.00069 12.8259 7.25858C12.3731 7.44843 12.1429 7.91212 11.9598 8.33801C11.6078 8.39513 11.1803 8.40018 10.9392 8.69754C10.8232 9.12932 10.819 9.58125 10.7476 10.0214C8.83071 10.3583 7.23802 12.0232 7.03809 13.9679C6.74408 16.1024 8.18389 18.3024 10.2579 18.8845C12.0959 19.4625 14.2363 18.7115 15.3191 17.1205C16.1414 15.9436 16.375 14.3602 15.8693 13.0069C15.4871 11.8678 14.6218 10.9161 13.5458 10.3877ZM11.7884 9.299C11.9254 9.29144 12.064 9.30068 12.1992 9.31664L12.0992 9.99454C11.969 9.97858 11.838 9.9559 11.707 9.94414C11.7355 9.72909 11.7607 9.51321 11.7884 9.299ZM14.2909 14.7474C14.0699 14.9532 13.6399 14.865 13.5659 14.555C13.4878 14.1611 13.5264 13.7243 13.2694 13.3874C13.0317 13.0044 12.6226 12.796 12.2202 12.6322C11.9472 12.5507 11.8061 12.1996 11.9648 11.956C12.0766 11.7174 12.3622 11.6872 12.5856 11.7628C13.5315 12.0644 14.3127 12.9002 14.432 13.9032C14.453 14.1846 14.5605 14.5441 14.2909 14.7474ZM15.1889 7.24514C15.5425 6.92005 15.5526 6.92173 15.8558 6.5496C16.0196 6.32615 15.8004 5.99014 15.5383 6.00022C15.3039 6.02458 15.1704 6.23879 15.0133 6.38495C14.7907 6.6294 14.8747 6.5076 14.6806 6.77725C14.5093 7.07209 14.9159 7.46691 15.1889 7.24514ZM16.9664 7.47615C16.4959 7.47279 16.0264 7.49463 15.5543 7.49967C15.4022 7.50639 15.2241 7.49883 15.1217 7.63323C14.9192 7.83568 15.0763 8.24981 15.3779 8.23049C15.8752 8.23721 16.3741 8.22629 16.8698 8.19689C17.2494 8.15825 17.257 7.64583 16.9664 7.47615ZM15.2905 9.96094C15.5921 10.1525 15.9928 9.73918 15.7786 9.45189C15.535 9.07304 15.3468 8.62614 15.0041 8.33213C14.7025 8.19521 14.3808 8.58498 14.5605 8.85715C14.7932 9.23012 14.9999 9.63081 15.2905 9.96094Z" fill="black"/>
</svg>
