<svg width="25" height="25" viewBox="0 0 25 25" fill="none" xmlns="http://www.w3.org/2000/svg">
<path d="M24.4059 12.4997L12.5005 0.594299L0.595112 12.4997L12.5005 24.4051L24.4059 12.4997Z" fill="#FFDA00"/>
<path d="M0 12.5017L12.5 0L25 12.5017L24.7026 12.7982L24.4061 12.5L24.7026 12.7982L12.5 25L0 12.5017ZM1.18944 12.5017L12.5 23.8122L23.8114 12.5008L12.5 1.18944L1.18944 12.5017Z" fill="#FF0000"/>
<path d="M16.2387 7.58644L14.5679 5L11.5262 9.90239L9.19341 8.27778L5 16.0144H9.51682C9.35721 16.9258 9.86879 17.6516 10.4837 17.6516C10.6593 17.6516 10.8441 17.5928 11.0238 17.4609C10.8634 17.7566 11.4329 19.4644 13.3767 19.4644C13.5725 19.4644 13.7816 19.4468 14.0068 19.4098C16.8124 18.7311 16.3991 17.2249 15.8086 16.605C16.2236 16.9443 16.6848 17.0871 17.114 17.0871C17.8852 17.0871 18.5513 16.626 18.663 16.0144H21.6863L16.2387 7.58644ZM9.48406 9.5059L11.049 10.5752L10.2955 11.758L8.72635 10.8642L9.48406 9.5059ZM17.1132 16.4588C16.8889 16.4588 16.5504 16.4 16.2059 16.1186C16.1505 16.0724 16.0875 16.0388 16.0228 16.0153H15.6179C15.518 16.0472 15.4222 16.0959 15.3458 16.1782C15.1198 16.4227 15.1223 16.7998 15.3525 17.0409C15.4802 17.1753 15.6734 17.4819 15.5852 17.7801C15.465 18.1884 14.8443 18.5572 13.8808 18.7941C13.706 18.8226 13.5372 18.8369 13.3767 18.8369C12.0655 18.8369 11.6715 17.8616 11.632 17.6298C11.695 17.4013 11.6244 17.151 11.4396 16.9888C11.3204 16.8847 11.1733 16.8326 11.0238 16.8326C10.8945 16.8326 10.7634 16.8729 10.6525 16.9536C10.6097 16.9855 10.545 17.0233 10.4845 17.0233C10.4005 17.0233 10.3274 16.9519 10.2922 16.9082C10.141 16.7284 10.0838 16.4353 10.1384 16.1245C10.1452 16.0841 10.1561 16.0505 10.1662 16.0153C10.1662 16.0153 10.4123 15.7658 10.7013 15.4482C10.9558 15.1693 10.9541 14.7292 10.6937 14.4503C10.5467 14.2999 10.3535 14.2176 10.1561 14.2176C9.99059 14.2176 9.82763 14.2739 9.69574 14.378C9.37401 14.6401 9.15309 14.7628 9.01784 14.8191C9.02624 14.7426 9.0464 14.6393 9.09344 14.5167C9.24045 14.1193 9.60082 13.6539 10.1368 13.6539C10.3199 13.6539 10.5492 13.5993 10.7055 13.4448C10.876 13.2818 10.9659 13.0987 10.9608 12.9072C10.9432 12.0823 11.0255 11.9621 11.4825 11.3036C11.6757 11.0247 11.8932 10.7097 12.152 10.2854L14.5788 6.37344L15.2206 7.36467C14.1647 8.30802 13.8413 10.1368 14.0916 11.522C14.3394 12.9046 15.1559 13.764 16.2185 13.764C16.2698 13.764 16.321 13.7623 16.3748 13.7589C16.4521 13.7522 16.5285 13.7489 16.6024 13.7489C16.8217 13.7489 16.9947 13.7749 17.1283 13.8127C17.0199 13.8967 16.9351 14.0126 16.8864 14.1479C16.7738 14.4847 16.9107 14.8527 17.2123 15.0257C17.6961 15.3113 17.9843 15.649 17.9414 15.8834C17.933 15.9271 17.991 16.0153 17.991 16.0153C17.8734 16.2454 17.5525 16.4588 17.1132 16.4588ZM11.9294 13.932C11.8487 13.9261 12.1377 12.2209 12.3376 11.9016C12.4502 11.5992 12.4661 11.3968 12.4661 11.1053C12.2687 11.3279 12.152 11.4741 12.0293 11.7882C11.8193 12.1024 11.5144 13.9228 11.6009 13.9362C11.4548 13.9488 11.9075 15.7918 12.2603 16.0346C12.4729 16.3025 12.6409 16.4227 12.8853 16.5655C12.7896 16.2757 12.7266 16.1009 12.5317 15.8515C12.2141 15.623 11.7958 13.9522 11.9294 13.932ZM13.6951 13.0071C13.6271 13.0222 13.5548 11.3531 13.6413 11.0121C13.6674 10.7013 13.6271 10.5215 13.5481 10.2468C13.4204 10.4954 13.3465 10.671 13.3154 10.9869C13.2213 11.3229 13.3011 13.0726 13.3742 13.071C13.2692 13.0995 13.9715 14.7695 14.3386 14.9417C14.5528 15.1836 14.7317 15.2601 14.9871 15.3743C14.8779 15.1105 14.7813 14.9551 14.5822 14.7233C14.2327 14.5419 13.6061 13.0424 13.6951 13.0071Z" fill="black"/>
</svg>
