<svg width="25" height="25" viewBox="0 0 25 25" fill="none" xmlns="http://www.w3.org/2000/svg">
<path d="M24.4059 12.4997L12.5005 0.594299L0.595112 12.4997L12.5005 24.4051L24.4059 12.4997Z" fill="#FFDA00"/>
<path d="M0 12.5017L12.5 0L25 12.5017L24.7026 12.7982L24.4061 12.5L24.7026 12.7982L12.5 25L0 12.5017ZM1.18944 12.5017L12.5 23.8122L23.8114 12.5008L12.5 1.18944L1.18944 12.5017Z" fill="#FF0000"/>
<path d="M15.2411 12.251L14.5137 12.8508L15.2067 13.9118H11.2611L11.151 14.0554L11.7012 13.2305L10.9578 12.8315L8.80484 16.0572L8.79812 16.0673C8.55367 16.4755 8.43187 16.8913 8.43187 17.2761V17.2803C8.43187 17.6726 8.55955 18.0363 8.81072 18.3017C9.06357 18.5672 9.43234 18.7209 9.85487 18.7184C9.88847 18.7184 9.92292 18.7184 9.95736 18.7167L16.5751 18.7234C17.0169 18.7226 17.3991 18.589 17.6738 18.3421C17.946 18.0968 18.0947 17.7423 18.0947 17.3601V17.3525C18.0947 16.9006 17.9048 16.4125 17.8637 16.2672L15.2411 12.251ZM9.37438 9.58648C9.4441 9.6562 9.51802 9.73264 9.60119 9.8158C9.62135 9.83596 9.64235 9.85612 9.66419 9.87629L11.1897 11.3757L11.335 12.1074C11.4988 12.0083 11.666 11.9058 11.8298 11.8041L11.7071 11.1876C11.6962 11.1338 11.6702 11.0834 11.6307 11.0464L10.043 9.48819C10.0237 9.46887 10.0044 9.45123 9.98592 9.43191C9.90779 9.35379 9.83471 9.27735 9.75911 9.20258C9.5827 9.02702 9.40126 8.85817 9.16101 8.73553C9.06861 8.68849 8.96865 8.64901 8.86028 8.61961L10.6269 6.85219C10.6521 6.94208 10.684 7.02692 10.7226 7.10588C10.8318 7.33353 10.9855 7.50909 11.1468 7.67038C11.2661 7.78966 11.3904 7.90223 11.5206 8.02991L13.1335 9.57136C13.1713 9.6058 13.2175 9.631 13.2662 9.64108L13.43 9.67552C13.4762 9.50247 13.5249 9.32607 13.5745 9.1505L13.4527 9.12446L11.897 7.64014C11.7617 7.50573 11.6349 7.39233 11.5299 7.28649C11.3846 7.142 11.2821 7.01768 11.2115 6.87067C11.141 6.72367 11.0948 6.54474 11.0922 6.26922C11.0914 6.15917 11.025 6.06173 10.9234 6.02057C10.8209 5.97857 10.705 6.00209 10.6277 6.08021L8.0799 8.62969C8.00094 8.70865 7.97826 8.82541 8.02194 8.92706C8.06478 9.02954 8.1639 9.09506 8.27479 9.09422C8.57299 9.0917 8.7578 9.14126 8.91488 9.22023C9.06945 9.29919 9.20637 9.41931 9.37438 9.58648ZM18.5441 7.06052L15.2806 8.85397L16.5448 9.589L13.4283 11.6471L18.1333 10.0006L16.8397 8.70697L18.5441 7.06052Z" fill="black"/>
</svg>
