<svg width="45" height="51" viewBox="0 0 45 51" fill="none" xmlns="http://www.w3.org/2000/svg">
<path d="M49.0038 1.00006H1V49.0039H49.0038V1.00006Z" fill="#0071BC"/>
<path d="M0 0V50.002H50V0H0ZM1.99616 48.0058V1.99816H47.9998L48.0038 48.0058H1.99616ZM4.44436 11.6089L5.55844 14.3952L25.002 6.61853L44.4456 14.3932L45.5596 11.6069L24.998 3.38027L4.44436 11.6089Z" fill="#FEFEFF"/>
<path d="M19.1894 37.403L27.3961 20.5936C27.3961 20.5936 23.6078 20.5916 20.2035 20.5936C19.8675 20.5936 19.5315 20.5796 19.1974 20.6136C17.8933 20.7356 16.6272 21.3257 15.7191 22.2718C14.7111 23.2698 14.121 24.6759 14.097 26.0901C14.095 30.6284 14.097 35.1568 14.095 39.6931C14.091 40.3212 14.345 40.9632 14.8291 41.3773C15.4371 41.9013 16.3712 41.9673 17.0633 41.5773C17.5393 41.2973 17.8773 40.8152 18.0013 40.2832C18.1213 39.8312 18.0773 39.3631 18.0873 38.9071C18.0453 37.1769 18.0973 35.4428 18.0533 33.7067C18.0573 31.8745 18.0593 30.0424 18.0373 28.2102C18.0413 27.9282 17.9933 27.5882 18.2373 27.3902C18.5534 27.0941 19.1494 27.3402 19.1374 27.7842C19.1434 29.7183 19.1674 31.6505 19.1574 33.5827C19.1894 34.8928 19.1694 36.2089 19.1754 37.511L19.1894 37.403ZM23.1417 18.6815C24.2218 19.1855 25.5099 19.2155 26.618 18.7835C27.5801 18.4074 28.4062 17.6854 28.9002 16.7773C29.4722 15.7452 29.5943 14.4771 29.2502 13.351C28.9682 12.419 28.3742 11.5909 27.5821 11.0289C26.77 10.4448 25.754 10.1548 24.7579 10.2128C23.8658 10.2628 22.9917 10.5828 22.2877 11.1349C21.3876 11.8209 20.7736 12.861 20.6135 13.9811C20.4675 14.9372 20.6395 15.9392 21.1056 16.7853C21.5616 17.6074 22.2817 18.2874 23.1417 18.6815ZM34.9307 23.0298C33.9306 21.5617 33.0505 20.6116 31.2704 20.5896L19.6075 43.1854L30.7664 43.1974V27.7802C30.7924 27.4882 31.0744 27.2381 31.3724 27.2642C31.6284 27.2882 31.8204 27.5322 31.8304 27.7802C31.8504 28.2022 31.8284 28.6323 31.8404 29.0543C31.8744 29.9024 31.8304 30.7464 31.8664 31.5945C31.8724 34.2907 31.9064 36.9909 31.9164 39.6931C31.9304 40.2912 32.1445 40.9112 32.5965 41.3213C33.2206 41.9153 34.2506 41.9853 34.9687 41.5253C35.4167 41.2433 35.7187 40.7712 35.8368 40.2632C35.9368 39.8612 35.9168 39.4411 35.9208 39.0291C35.9188 34.7167 35.9208 30.4024 35.9208 26.0901C35.9008 25.002 35.5507 23.9239 34.9307 23.0298Z" fill="#FEFEFF"/>
</svg>
