<svg width="45" height="51" viewBox="0 0 45 51" fill="none" xmlns="http://www.w3.org/2000/svg">
<path d="M49.004 1.00006H1.00012V49.0039H49.004V1.00006Z" fill="#0071BC"/>
<path d="M0 0V50.002H50V0H0ZM1.99616 48.0058V1.99816H47.9998L48.0038 48.0058H1.99616ZM4.44436 11.6089L5.55844 14.3952L25.002 6.61853L44.4456 14.3932L45.5596 11.6069L24.998 3.38027L4.44436 11.6089Z" fill="#FEFEFF"/>
<path d="M28.3203 14.4932C27.6442 14.1811 26.9322 13.9551 26.1961 13.8291C24.484 13.5671 22.6778 13.8051 21.1357 14.6172C20.0456 15.1892 19.1155 16.0573 18.4875 17.1154C17.9814 18.0034 17.6634 19.0015 17.5694 20.0216C17.5674 20.3796 17.5614 20.7377 17.5714 21.0957C17.6734 22.0658 17.9634 23.0078 18.3655 23.8939C18.3835 23.9379 18.4215 24.0239 18.4415 24.0679C18.6075 24.4379 18.8035 24.788 18.9915 25.142C19.1975 25.53 19.4336 25.9061 19.6476 26.2881C20.3596 27.4442 21.0077 28.6643 21.3237 29.9944C21.4377 30.4424 21.4397 30.9065 21.6017 31.3445C21.7237 31.7045 22.0798 31.9706 22.4658 31.9585C24.0499 31.9585 25.6321 31.9585 27.2102 31.9585C27.5342 31.9665 27.8342 31.7865 28.0122 31.5245C28.0343 31.4825 28.0763 31.3985 28.0983 31.3565C28.2463 30.8525 28.2623 30.3224 28.4143 29.8204C28.7323 28.5503 29.3684 27.3942 30.0504 26.2861C30.9985 24.68 31.9386 22.9798 32.1106 21.0877C32.2106 19.9036 31.9826 18.7095 31.4765 17.6374C30.8445 16.2553 29.6824 15.1492 28.3203 14.4932ZM29.4824 24.724C28.8123 25.9561 28.0142 27.1302 27.5462 28.4643C27.3082 29.0943 27.1942 29.7624 27.0882 30.4264C25.5961 30.4264 24.1019 30.4464 22.6098 30.4144C22.4958 29.7104 22.3618 29.0103 22.1098 28.3423C21.5837 26.9561 20.7397 25.7261 20.0536 24.4179C19.4756 23.3359 19.0015 22.1558 18.9555 20.9177C18.8955 19.8716 19.1795 18.8175 19.7256 17.9254C20.3876 16.8473 21.4337 16.0273 22.6218 15.5992C24.414 14.9412 26.4961 15.1232 28.1363 16.1053C28.9803 16.6253 29.6904 17.3634 30.1484 18.2455C30.6105 19.1055 30.7965 20.0976 30.7305 21.0657C30.6425 22.3698 30.1084 23.5919 29.4824 24.724ZM26.0501 21.7117C26.2301 21.8937 26.6621 22.0318 27.1442 22.0318C27.6262 22.0318 28.1923 21.3877 28.1923 20.4496C27.8802 20.4496 27.4562 20.4496 27.4562 20.4496C27.4562 20.4496 27.2302 21.1537 26.8362 21.1537C26.4461 21.1537 26.3801 20.5016 26.3801 20.4396C26.1721 20.4436 25.9521 20.4476 25.7381 20.4516C25.6661 20.6596 25.5461 21.2837 25.054 21.2837C24.562 21.2837 24.488 20.4836 24.488 20.4836L23.8019 20.4596C23.7059 20.8097 23.5419 21.2717 23.0939 21.2357C22.6838 21.2277 22.5618 20.7937 22.4518 20.4696C22.2218 20.4716 21.9838 20.4756 21.7417 20.4876C21.5937 21.1837 22.1198 21.8597 22.7838 22.0318C23.2459 22.2078 23.7179 21.9457 24.1119 21.7237C24.412 21.8617 24.692 21.9958 25.044 22.0318C25.542 22.0318 25.8541 21.9477 26.0501 21.7117ZM22.6558 22.9818H22.0198L23.3499 29.6584L24.372 29.6704L22.6558 22.9818ZM25.152 29.6684L26.3081 29.6644L27.6462 22.9698L26.8942 22.9638L25.152 29.6684ZM21.6217 36.8609C21.6537 37.267 22.0578 37.569 22.4498 37.561H27.2342C27.6642 37.569 28.0983 37.205 28.0743 36.7609C28.0983 35.5308 28.0643 34.3007 28.0923 33.0746C25.9341 33.0766 23.7759 33.0906 21.6157 33.0686C21.6357 34.3307 21.6117 35.5948 21.6217 36.8609ZM24.0539 39.3271C24.842 39.7252 25.9401 39.4412 26.3041 38.6051C25.318 38.6011 24.332 38.6211 23.3459 38.5931C23.5199 38.8891 23.7479 39.1591 24.0539 39.3271Z" fill="#FEFEFF"/>
</svg>
