<svg width="45" height="51" viewBox="0 0 45 51" fill="none" xmlns="http://www.w3.org/2000/svg">
<path d="M49.0038 1.00006H1V49.0039H49.0038V1.00006Z" fill="#0071BC"/>
<path d="M0 0V50.002H50V0H0ZM1.99616 48.0058V1.99816H47.9998L48.0038 48.0058H1.99616ZM4.44436 11.6089L5.55844 14.3952L25.002 6.61853L44.4456 14.3932L45.5596 11.6069L24.998 3.38027L4.44436 11.6089Z" fill="#FEFEFF"/>
<path d="M24.6319 45.4877C24.8279 45.6897 25.044 45.8677 25.262 46.0437C25.232 46.3437 25.216 46.6537 25.094 46.9338C25.064 47.0098 25.006 47.0638 24.94 47.1098C24.8459 47.0218 24.7839 46.9058 24.7519 46.7838C24.6319 46.3657 24.6319 45.9217 24.6319 45.4877ZM24.5819 41.0853C24.902 41.3053 25.148 41.6313 25.25 42.0074C25.34 42.2534 25.302 42.5154 25.304 42.7734C25.3 43.4355 25.288 44.0935 25.276 44.7536C24.96 44.2115 24.6899 43.6275 24.6039 42.9994C24.5879 42.3594 24.5859 41.7213 24.5819 41.0853ZM24.0619 40.6793C24.1199 40.7213 24.1759 40.7633 24.2299 40.8053C24.2259 41.4033 24.2599 41.9994 24.2299 42.5954C24.2179 43.3135 24.4759 44.0075 24.8079 44.6336C25.04 45.0736 25.33 45.4797 25.626 45.8757C25.078 45.4797 24.5859 44.9956 24.2199 44.4256C23.7339 43.6635 23.4718 42.7434 23.5738 41.8414C23.6138 41.4133 23.8119 41.0193 24.0619 40.6793ZM24.5219 36.6789C24.8219 36.873 25.104 37.089 25.366 37.327C25.362 38.1311 25.348 38.9351 25.34 39.7392C25.076 39.5332 24.8139 39.3212 24.5539 39.1111C24.5459 38.2991 24.5339 37.491 24.5219 36.6789ZM22.7358 37.717C22.8598 37.099 23.2998 36.6029 23.7799 36.2249C23.9079 36.3049 24.0419 36.3829 24.1719 36.4589C24.1699 36.6989 24.1859 36.939 24.1779 37.179C24.1239 37.291 24.0139 37.369 23.9419 37.471C23.7339 37.743 23.5418 38.0811 23.6159 38.4351C23.7139 38.8111 24.0099 39.0831 24.2879 39.3352C24.6419 39.6332 25.006 39.9212 25.374 40.2052C25.906 40.6233 26.3041 41.2453 26.3501 41.9294C26.4281 42.8454 26.1381 43.7655 25.632 44.5216C25.64 44.0275 25.628 43.5315 25.658 43.0375C25.728 42.4834 25.666 41.8914 25.366 41.4093C25.138 41.0073 24.7299 40.7653 24.3819 40.4792C23.9239 40.1332 23.4638 39.7672 23.1318 39.2872C22.8118 38.8371 22.6158 38.2671 22.7358 37.717ZM24.4579 31.2485C24.7919 31.3725 25.12 31.5165 25.438 31.6805C25.428 32.8966 25.406 34.1167 25.394 35.3328C25.088 35.1408 24.7899 34.9368 24.5039 34.7188C24.4799 33.5627 24.4719 32.4046 24.4579 31.2485ZM21.9397 32.3826C22.1077 31.7005 22.6058 31.1585 23.1578 30.7565C23.4698 30.8905 23.7859 31.0105 24.1079 31.1245C24.1079 31.2465 24.1099 31.3685 24.1099 31.4885C23.6839 31.7446 23.2598 32.0706 23.0538 32.5386C22.8858 32.9126 22.9338 33.3527 23.1198 33.7087C23.3818 34.2188 23.8179 34.6108 24.2559 34.9668C24.6939 35.3088 25.166 35.6069 25.642 35.8909C26.1741 36.2129 26.6741 36.6249 26.9781 37.173C27.2201 37.605 27.2821 38.1371 27.1241 38.6071C26.9101 39.2592 26.4181 39.7772 25.892 40.1932C25.824 40.1232 25.736 40.0672 25.684 39.9832C25.68 39.7452 25.692 39.5072 25.696 39.2692C25.952 39.0311 26.2241 38.7631 26.3021 38.4071C26.3601 38.0451 26.1621 37.711 25.946 37.439C25.438 36.821 24.7559 36.3829 24.0699 35.9889C23.3618 35.5569 22.7198 34.9828 22.2877 34.2648C21.9557 33.7107 21.7757 33.0267 21.9397 32.3826ZM24.3859 25.8761C24.7619 25.9081 25.14 25.9201 25.514 25.9621C25.488 27.2142 25.49 28.4683 25.462 29.7204C25.116 29.5884 24.7719 29.4544 24.4299 29.3164C24.4179 28.1703 24.3999 27.0242 24.3859 25.8761ZM20.2916 26.3941C20.4796 26.0221 20.7736 25.7141 21.1056 25.464C21.8277 25.6481 22.5718 25.7321 23.3138 25.7921C22.7898 25.9541 22.2737 26.2261 21.9477 26.6801C21.7137 26.9982 21.6197 27.4202 21.7377 27.7982C21.8737 28.2483 22.2257 28.5923 22.6058 28.8483C23.0118 29.1223 23.4738 29.2984 23.9219 29.4864C24.4499 29.7084 24.98 29.9124 25.514 30.1164C26.1961 30.3664 26.8401 30.7345 27.3361 31.2665C27.7142 31.6625 27.9942 32.1786 28.0302 32.7306C28.0742 33.3147 27.8682 33.8927 27.5582 34.3788C27.1981 34.9448 26.6961 35.4068 26.1581 35.7969C26.018 35.7169 25.886 35.6209 25.744 35.5389C25.748 35.3228 25.748 35.1068 25.752 34.8908C26.1981 34.5328 26.6281 34.1247 26.8681 33.5987C27.0301 33.2407 27.0401 32.8106 26.8541 32.4606C26.6061 31.9826 26.1481 31.6625 25.69 31.4065C24.944 30.9865 24.1019 30.7845 23.3198 30.4424C22.5058 30.0964 21.7137 29.6624 21.0596 29.0603C20.6336 28.6623 20.2556 28.1703 20.1296 27.5902C20.0376 27.1862 20.1016 26.7602 20.2916 26.3941ZM27.7242 20.5057C28.4342 20.3776 29.1583 20.4776 29.8664 20.5657C30.6464 20.6137 31.4445 20.6917 32.1625 21.0197C32.5026 21.1817 32.8506 21.4377 32.9446 21.8238C33.0386 22.2398 32.8306 22.6478 32.5866 22.9698C32.1185 23.5679 31.4745 23.9979 30.8104 24.35C30.1884 24.666 29.5363 24.916 28.8643 25.084C28.1382 24.614 27.3061 24.336 26.4741 24.1319C27.5862 24.0839 28.7043 23.9639 29.7703 23.6299C30.3264 23.4539 30.8804 23.2399 31.3685 22.9098C31.5765 22.7638 31.7945 22.5898 31.8725 22.3378C31.9185 22.1278 31.8925 21.8738 31.7165 21.7297C31.5365 21.5817 31.2865 21.5637 31.0644 21.5537C30.6584 21.5457 30.2484 21.5657 29.8443 21.6137C29.5223 21.6517 29.2163 21.7718 28.9323 21.9298C28.6783 22.0558 28.4322 22.2318 28.1362 22.2378C27.6542 22.2618 27.1461 22.1738 26.7341 21.9138C26.5501 21.8178 26.6461 21.5877 26.7121 21.4457C26.9341 21.0377 27.2821 20.6697 27.7242 20.5057ZM20.0016 20.5677C20.5616 20.5057 21.1237 20.4176 21.6897 20.4496C21.9317 20.4676 22.1897 20.4616 22.3998 20.5977C22.7458 20.8057 23.0378 21.1137 23.2158 21.4777C23.2758 21.6137 23.3478 21.8258 23.1798 21.9138C22.7798 22.1658 22.2897 22.2518 21.8197 22.2418C21.4897 22.2458 21.2137 22.0438 20.9296 21.9058C20.6516 21.7537 20.3516 21.6437 20.0396 21.6097C19.6295 21.5657 19.2155 21.5437 18.8035 21.5557C18.5954 21.5657 18.3634 21.5897 18.1954 21.7277C18.0194 21.8718 17.9894 22.1278 18.0374 22.3378C18.1214 22.5998 18.3514 22.7778 18.5694 22.9298C19.0475 23.2479 19.5935 23.4559 20.1376 23.6299C21.1417 23.9359 22.1917 24.0839 23.2398 24.1259C23.8219 24.1499 24.4039 24.1419 24.982 24.2179C25.97 24.342 26.9501 24.566 27.8702 24.954C28.4302 25.198 28.9803 25.5121 29.3603 25.9961C29.6923 26.3981 29.8884 26.9282 29.8063 27.4522C29.7303 28.0263 29.3883 28.5243 28.9903 28.9263C28.3662 29.5504 27.5922 29.9944 26.7941 30.3564C26.4821 30.1564 26.1501 29.9944 25.81 29.8564C25.81 29.7564 25.81 29.6604 25.81 29.5604C26.4721 29.2784 27.1781 29.0403 27.7082 28.5383C28.0062 28.2623 28.2322 27.8642 28.1802 27.4462C28.1282 26.9782 27.7922 26.6001 27.4222 26.3361C26.8461 25.9321 26.1601 25.7061 25.468 25.6061C24.4739 25.5321 23.4778 25.464 22.4878 25.358C21.3977 25.228 20.3276 24.938 19.3375 24.464C18.6455 24.1299 17.9794 23.7139 17.4614 23.1359C17.2113 22.8478 16.9833 22.5058 16.9453 22.1158C16.9173 21.8638 17.0093 21.6077 17.1773 21.4237C17.4114 21.1617 17.7354 21.0037 18.0594 20.8877C18.6855 20.6757 19.3475 20.6037 20.0016 20.5677ZM28.5322 13.2331C28.8043 12.903 29.1563 12.631 29.5583 12.483C29.8884 12.391 30.2304 12.495 30.5464 12.595C31.3045 12.859 32.0105 13.2491 32.7266 13.6131C33.6406 14.0811 34.5587 14.5492 35.5228 14.9052C36.6449 15.3152 37.867 15.5913 39.0571 15.3572C39.5711 15.2692 40.0432 14.9852 40.5752 14.9972C40.7052 14.9932 40.8992 15.0592 40.8612 15.2272C40.7972 15.5913 40.5252 15.8753 40.2672 16.1193C39.6891 16.6393 38.9271 16.9714 38.141 16.9574C38.149 17.0754 38.231 17.2194 38.135 17.3214C38.003 17.4494 37.821 17.4894 37.649 17.5234C37.0309 17.6214 36.3989 17.5254 35.8088 17.3334C35.7928 17.5894 35.7728 17.8694 35.5988 18.0735C35.4228 18.2755 35.1448 18.3375 34.8908 18.3355C34.5187 18.3395 34.1627 18.2395 33.8147 18.1275C33.6847 18.4835 33.4546 18.8495 33.0706 18.9555C32.5206 19.1135 31.9845 18.8555 31.4565 18.7315C31.3665 18.9115 31.2725 19.1015 31.1004 19.2175C30.8604 19.3876 30.5464 19.3896 30.2684 19.3376C29.9164 19.2636 29.5823 19.1135 29.2763 18.9295C29.2083 18.8875 29.1323 18.8615 29.0583 18.8375C28.8483 19.0235 28.6603 19.2375 28.4262 19.3916C28.1682 19.5576 27.8442 19.5456 27.5502 19.5076C27.0081 19.4236 26.4841 19.2516 25.966 19.0755C25.98 18.0135 25.994 16.9494 26.012 15.8853C26.3621 15.9673 26.7521 15.9613 27.0641 15.7593C27.3501 15.5793 27.4942 15.2552 27.6262 14.9592C27.8862 14.3592 28.1162 13.7371 28.5322 13.2331ZM18.4014 13.0011C18.9015 12.771 19.4135 12.525 19.9636 12.457C20.3416 12.399 20.6856 12.619 20.9756 12.835C21.5937 13.3191 21.9117 14.0571 22.2017 14.7592C22.3537 15.1032 22.4878 15.4913 22.8038 15.7253C23.1118 15.9553 23.5258 15.9713 23.8919 15.8873C23.9059 16.9534 23.9299 18.0155 23.9359 19.0795C23.4098 19.2536 22.8818 19.4316 22.3337 19.5116C22.0497 19.5456 21.7377 19.5516 21.4877 19.3916C21.2537 19.2375 21.0636 19.0235 20.8556 18.8375C20.6816 18.8855 20.5396 18.9995 20.3776 19.0755C19.9756 19.2696 19.5135 19.4436 19.0655 19.3356C18.7655 19.2676 18.5734 19.0015 18.4594 18.7355C17.9314 18.8555 17.3954 19.1155 16.8453 18.9575C16.4593 18.8495 16.2293 18.4835 16.0992 18.1275C15.6032 18.2795 15.0492 18.4475 14.5451 18.2435C14.1891 18.0915 14.1131 17.6734 14.1031 17.3334C13.487 17.5354 12.819 17.6314 12.1729 17.5054C12.0089 17.4594 11.7949 17.4134 11.7329 17.2334C11.7369 17.1394 11.7589 17.0494 11.7749 16.9574C10.9468 16.9734 10.1448 16.6053 9.55873 16.0333C9.33871 15.8073 9.10869 15.5493 9.05669 15.2272C9.01668 15.0812 9.17269 14.9992 9.2947 14.9992C9.82275 14.9652 10.2988 15.2492 10.8028 15.3452C11.8109 15.5573 12.857 15.3952 13.8271 15.0952C15.4352 14.5972 16.8933 13.7331 18.4014 13.0011ZM24.6439 11.3889C25.26 11.2429 25.938 11.5589 26.2341 12.117C26.5381 12.661 26.4361 13.4011 25.988 13.8371C25.906 13.9211 25.81 13.9931 25.714 14.0631C25.646 18.0215 25.596 19.9796 25.54 23.9399C25.15 23.8799 24.7559 23.8319 24.3619 23.8119C24.3039 19.8956 24.2539 17.9814 24.1899 14.0671C23.7599 13.7931 23.4758 13.3011 23.4918 12.789C23.4918 12.129 23.9999 11.5169 24.6439 11.3889Z" fill="#FEFEFF"/>
</svg>
