<svg width="45" height="51" viewBox="0 0 45 51" fill="none" xmlns="http://www.w3.org/2000/svg">
<path d="M49.0038 1.00006H1V49.0039H49.0038V1.00006Z" fill="#0071BC"/>
<path d="M0 0V50.002H50V0H0ZM1.99616 48.0058V1.99816H47.9998L48.0038 48.0058H1.99616ZM4.44436 11.6089L5.55844 14.3952L25.002 6.61853L44.4456 14.3932L45.5596 11.6069L24.998 3.38027L4.44436 11.6089Z" fill="#FEFEFF"/>
<path d="M12.5011 31.5485C13.5552 33.5447 14.4852 35.8409 16.6314 36.921C21.9398 39.8152 28.7344 39.8392 34.1748 37.271C36.681 36.1789 37.9231 33.6467 39.2032 31.4085C30.7085 34.6168 21.0418 34.6388 12.5011 31.5485ZM32.7927 19.1276C28.4764 16.5734 22.7759 16.5573 18.4896 19.1976C15.0793 21.1797 11.361 22.5298 7.88672 24.374C9.24483 26.4121 10.5889 28.5263 12.4611 30.1444C16.3034 31.4785 20.4477 31.4965 24.47 31.6846C29.2964 31.6526 34.2548 31.6306 38.8912 30.1764C40.8674 28.6443 42.1315 26.4041 43.4676 24.328C39.9533 22.4978 36.213 21.1397 32.7927 19.1276ZM29.5224 27.2122C29.4264 27.4942 29.2724 27.7542 29.0524 27.9523C28.8444 28.1363 28.5964 28.2643 28.3424 28.3643C27.8643 28.5563 27.3583 28.6663 26.8622 28.8063C26.3362 28.9763 25.9562 29.4064 25.6421 29.8424C25.3521 29.3824 24.9421 28.9603 24.41 28.8003C23.92 28.6663 23.42 28.5543 22.9459 28.3623C22.6759 28.2503 22.4119 28.1123 22.2079 27.9023C22.0078 27.7062 21.8758 27.4562 21.7898 27.1942C21.6398 26.7262 21.5718 26.2101 21.7178 25.7301C21.8358 25.3201 22.0839 24.964 22.2459 24.574C22.3919 24.226 22.3759 23.8319 22.2699 23.4759C22.1859 23.2059 21.9818 23.0099 21.8038 22.8039C22.1099 22.3798 22.4219 21.9578 22.7279 21.5337C23.2699 21.7258 23.87 21.8178 24.438 21.6818C24.8981 21.5758 25.3181 21.3197 25.6481 20.9817C26.0242 21.3377 26.4882 21.6118 27.0042 21.6958C27.5323 21.7858 28.0743 21.6938 28.5664 21.4997C28.8904 21.9218 29.2104 22.3478 29.5244 22.7758C29.3844 22.9419 29.2284 23.0979 29.1264 23.2959C29.0084 23.5259 28.9744 23.7899 28.9764 24.0459C28.9704 24.222 29.0124 24.396 29.0764 24.56C29.2484 24.982 29.5205 25.3601 29.6265 25.8101C29.7485 26.2741 29.6725 26.7642 29.5224 27.2122Z" fill="#FEFEFF"/>
</svg>
