<svg width="45" height="51" viewBox="0 0 45 51" fill="none" xmlns="http://www.w3.org/2000/svg">
<g clip-path="url(#clip0_216_1200)">
<path d="M49.0038 1.00006H1V49.0039H49.0038V1.00006Z" fill="#0071BC"/>
<path d="M0 0V50.002H50V0H0ZM1.99616 48.0058V1.99816H47.9998L48.0038 48.0058H1.99616ZM4.44436 11.6089L5.55844 14.3952L25.002 6.61853L44.4456 14.3932L45.5596 11.6069L24.998 3.38027L4.44436 11.6089Z" fill="#FEFEFF"/>
<path d="M36.1548 29.4444C35.2267 28.7163 34.0166 28.5523 32.8725 28.4583C30.6844 28.4603 28.4982 28.4603 26.316 28.4603C26.312 28.1963 26.316 27.9343 26.316 27.6702C26.9521 27.6682 27.5901 27.6722 28.2282 27.6682V25.106H26.316C26.31 23.8879 26.318 22.6658 26.31 21.4457C26.69 21.2377 27.1421 21.1497 27.5721 21.2457C28.1842 21.3517 28.6762 21.7618 29.2582 21.9418C29.8923 22.1398 30.6484 21.8538 30.9544 21.2537C31.3124 20.5577 31.3264 19.7116 31.0784 18.9795C30.8724 18.3775 30.2743 17.9135 29.6283 17.9575C28.7922 18.0535 28.0821 18.6195 27.2361 18.6435C26.436 18.6235 25.732 18.1695 24.9419 18.1075C23.9278 17.9475 23.0617 18.6915 22.0577 18.6435C21.3776 18.6755 20.8536 18.1635 20.2255 18.0095C19.7875 17.8715 19.3114 18.0075 18.9494 18.2615C17.9253 19.0195 17.8093 20.7577 18.8134 21.5778C19.3094 21.9918 20.0135 21.9258 20.5755 21.7058C21.2096 21.5137 21.8256 21.1217 22.5137 21.2297C22.8537 21.3317 22.9137 21.7358 22.9277 22.0418C22.9417 23.0639 22.9277 24.084 22.9357 25.102C22.3097 25.108 21.6876 25.104 21.0596 25.104C21.0596 25.9601 21.0616 26.8142 21.0596 27.6662C21.6896 27.6682 22.3257 27.6662 22.9577 27.6682V28.4583H17.4373C17.4333 27.6482 17.4473 26.8382 17.4333 26.0281C17.3213 25.7621 17.2813 25.4421 17.0413 25.25C16.7132 24.98 16.2572 25.002 15.8592 24.95C14.7051 24.926 13.549 24.96 12.3949 24.934C12.3749 25.06 12.3649 25.186 12.3589 25.3121V36.573C13.567 36.561 14.7751 36.601 15.9832 36.5529C16.5132 36.5289 17.1793 36.3729 17.3393 35.7869C17.5533 34.8728 17.4293 33.9247 17.4633 32.9967C18.8394 32.9967 20.2135 32.9967 21.5876 32.9967C21.7916 33.8887 22.1737 34.7928 22.9077 35.3729C23.9798 36.1889 25.6079 36.1489 26.65 35.2968C27.3521 34.7328 27.7441 33.8687 27.8981 32.9987C29.3702 33.0047 30.8424 32.9887 32.3125 33.0047C32.7765 33.0067 33.1466 33.3847 33.2746 33.8067C33.5726 34.6968 33.4466 35.6489 33.4746 36.571C34.8747 36.575 36.2768 36.573 37.6789 36.573C37.6729 35.3349 37.6929 34.0968 37.6669 32.8587C37.6029 31.5966 37.1989 30.2384 36.1548 29.4444Z" fill="#FEFEFF"/>
</g>
<defs>
<clipPath id="clip0_216_1200">
<rect width="50" height="50.002" fill="white"/>
</clipPath>
</defs>
</svg>
