<svg width="50" height="50" viewBox="0 0 50 50" fill="none" xmlns="http://www.w3.org/2000/svg">
<path d="M25 49C38.2548 49 49 38.2548 49 25C49 11.7452 38.2548 1 25 1C11.7452 1 1 11.7452 1 25C1 38.2548 11.7452 49 25 49Z" fill="#AEB0B5"/>
<path d="M0 25C0.002 11.192 11.196 0 25.002 0C38.808 0 50 11.192 50 25C50 38.804 38.808 49.996 25.002 50C11.196 49.996 0.002 38.804 0 25ZM2 25C2.024 37.706 12.3 47.974 25.002 47.998C37.704 47.974 47.978 37.706 48 25C47.978 12.296 37.704 2.022 25.002 1.998C12.3 2.022 2.026 12.296 2 25Z" fill="#FEFEFF"/>
<path d="M11.1899 14.192V17.836V23.302V26.946H14.8339V39.702H18.4779V34.236H31.2339V39.702H34.8779V26.946H38.5199V23.302V17.836V14.192H11.1899ZM27.5899 17.836L26.4959 23.302H22.8519L23.9459 17.836H27.5899ZM16.6559 17.836H20.2999L19.2059 23.302H15.5619L16.6559 17.836ZM31.2339 32.414H18.4779V26.948H22.1219H25.7659H29.4099H31.2319V32.414H31.2339ZM33.7859 23.302H30.1399L31.2339 17.836H34.8779L33.7859 23.302Z" fill="#FEFEFF"/>
</svg>
