<svg width="50" height="50" viewBox="0 0 50 50" fill="none" xmlns="http://www.w3.org/2000/svg">
<path d="M25 49C38.2548 49 49 38.2548 49 25C49 11.7452 38.2548 1 25 1C11.7452 1 1 11.7452 1 25C1 38.2548 11.7452 49 25 49Z" fill="#AEB0B5"/>
<path d="M0 25C0.002 11.192 11.196 0 25.002 0C38.808 0 50 11.192 50 25C50 38.804 38.808 49.996 25.002 50C11.196 49.996 0.002 38.804 0 25ZM2 25C2.024 37.706 12.3 47.974 25.002 47.998C37.704 47.974 47.978 37.706 48 25C47.978 12.296 37.704 2.022 25.002 1.998C12.3 2.022 2.026 12.296 2 25Z" fill="#FEFEFF"/>
<path d="M28.292 17.878C28.292 17.54 28.016 17.264 27.678 17.264H17.322C16.984 17.264 16.708 17.54 16.708 17.878C16.708 18.218 16.984 18.494 17.322 18.494H27.68C28.018 18.494 28.292 18.218 28.292 17.878ZM41.458 17.878C41.458 17.54 41.182 17.264 40.842 17.264H30.486C30.144 17.264 29.87 17.54 29.87 17.878C29.87 18.218 30.144 18.494 30.486 18.494H40.842C41.184 18.494 41.458 18.218 41.458 17.878ZM6.08999 21.294C6.73399 21.96 7.67399 22.14 8.50799 22.462C8.60799 22.836 8.70399 23.212 8.79999 23.588C9.40399 23.926 10.056 24.166 10.724 24.348C14.944 25.55 19.19 26.688 23.402 27.92C24.918 28.302 25.862 29.624 26.334 31.036C26.992 31.022 27.646 31.006 28.3 30.988C28.308 31.556 28.32 32.118 28.328 32.686C26.966 32.686 25.604 32.668 24.24 32.688C23.646 32.464 22.886 33.53 23.662 33.796C23.698 33.808 23.734 33.812 23.77 33.822H38.83C39.93 33.526 41.3 31.78 39.932 31.072C39.202 31.396 39.146 32.546 38.282 32.644C37.116 32.732 35.944 32.672 34.776 32.686C34.776 32.126 34.774 31.572 34.766 31.012C36.946 31.03 39.476 30.482 40.718 28.504C41.998 26.372 41.196 23.468 39.258 22.018C36.704 20.028 32.886 20.298 30.324 22.144C30.202 21.23 30.042 20.31 29.524 19.528C29.502 18.874 29.494 18.224 29.486 17.57C29.304 17.57 28.936 17.57 28.75 17.574C28.732 18.334 28.73 19.1 28.7 19.862C28.242 20.244 28.21 20.832 28.146 21.38C26.292 20.756 24.336 20.22 22.372 20.648C22.36 20.96 22.336 21.582 22.326 21.894C23.088 22.172 23.864 22.516 24.104 23.376C21.44 23.55 18.788 22.98 16.128 22.836C14.34 22.608 12.478 22.71 10.798 21.968C11.594 20.814 12.342 19.386 11.788 17.964C11.196 15.864 8.39399 14.912 6.64598 16.194C4.97198 17.246 4.60798 19.932 6.08999 21.294ZM30.8 28.56C30.628 26.786 30.44 25.01 30.342 23.226C32.758 21.134 36.83 20.778 39.156 23.176C40.596 24.572 40.708 26.858 39.724 28.54C36.754 28.594 33.778 28.548 30.8 28.56ZM29.29 32.686C29.298 32.124 29.308 31.56 29.31 30.996C30.798 31.006 32.282 31.004 33.766 31.004C33.776 31.564 33.786 32.118 33.794 32.678C32.292 32.682 30.788 32.678 29.29 32.686ZM6.38798 17.614C7.33198 15.81 10.206 16.282 10.808 18.12C11.336 19.204 10.728 20.304 10.034 21.134C9.40599 20.27 9.24999 18.82 8.03599 18.574C8.11999 19.578 8.28999 20.57 8.39399 21.572C6.54198 21.362 5.30598 19.236 6.38798 17.614Z" fill="#FEFEFF"/>
</svg>
