<svg width="50" height="50" viewBox="0 0 50 50" fill="none" xmlns="http://www.w3.org/2000/svg">
<path d="M25 49C38.2548 49 49 38.2548 49 25C49 11.7452 38.2548 1 25 1C11.7452 1 1 11.7452 1 25C1 38.2548 11.7452 49 25 49Z" fill="#AEB0B5"/>
<path d="M0 25C0.002 11.192 11.196 0 25.002 0C38.808 0 50 11.192 50 25C50 38.804 38.808 49.996 25.002 50C11.196 49.996 0.002 38.804 0 25ZM2 25C2.024 37.706 12.3 47.974 25.002 47.998C37.704 47.974 47.978 37.706 48 25C47.978 12.296 37.704 2.022 25.002 1.998C12.3 2.022 2.026 12.296 2 25Z" fill="#FEFEFF"/>
<path d="M39.9839 10.518C35.8819 12.608 30.8259 11.994 26.4939 10.962C22.0039 10.262 17.1339 9.80801 12.9499 11.936C12.9199 17.562 13.0239 23.184 12.8899 28.8C16.7299 28.338 20.6419 26.852 24.4999 28.1C28.5659 28.922 32.6779 29.858 36.8379 29.196C37.9539 28.846 39.0779 28.526 40.2039 28.24C40.2039 22.334 40.6359 16.386 39.9839 10.518ZM9.34595 12.228C9.24995 21.824 9.55395 31.43 9.62995 41.024C10.1979 40.996 11.3339 40.948 11.9099 40.93C11.9099 31.372 11.9759 21.816 11.8439 12.248C11.2919 12.248 9.89395 12.238 9.34595 12.228Z" fill="#FEFEFF"/>
</svg>
