<svg width="50" height="50" viewBox="0 0 50 50" fill="none" xmlns="http://www.w3.org/2000/svg">
<path d="M25 49C38.2548 49 49 38.2548 49 25C49 11.7452 38.2548 1 25 1C11.7452 1 1 11.7452 1 25C1 38.2548 11.7452 49 25 49Z" fill="#AEB0B5"/>
<path d="M0 25C0.002 11.192 11.196 0 25.002 0C38.808 0 50 11.192 50 25C50 38.804 38.808 49.996 25.002 50C11.196 49.996 0.002 38.804 0 25ZM2 25C2.024 37.706 12.3 47.974 25.002 47.998C37.704 47.974 47.978 37.706 48 25C47.978 12.296 37.704 2.022 25.002 1.998C12.3 2.022 2.026 12.296 2 25Z" fill="#FEFEFF"/>
<path d="M41.108 23.75C38.47 22.21 35.192 22.502 32.426 21.266C30.486 20.24 29.036 18.434 26.972 17.642C24.54 17.35 22.03 17.226 19.608 17.608C17.418 18.574 15.912 20.694 13.594 21.448C12.484 21.934 10.99 22.056 10.408 23.288C9.62198 25.418 10.032 27.974 12.152 29.124C12.446 26.822 13.97 24.294 16.61 24.488C19.106 24.48 20.432 26.882 20.676 29.074C24.418 29.122 28.154 29.182 31.898 29.206C32.202 26.934 33.752 24.53 36.328 24.722C38.824 24.718 40.052 27.148 40.55 29.248C41.928 27.792 42.672 25.368 41.108 23.75ZM16.906 21.072C18.076 20.298 19.09 19.146 20.482 18.774C22.446 18.578 24.444 18.578 26.402 18.868C27.788 19.356 28.86 20.43 30.052 21.246C25.674 21.24 21.292 21.166 16.906 21.072ZM15.494 25.858C13.482 26.474 12.934 29.452 14.636 30.706C16.044 32.038 18.566 31.238 19.082 29.42C19.922 27.35 17.56 25.008 15.494 25.858ZM17.394 29.686C15.986 31.248 13.706 28.302 15.594 27.276C17.01 26.056 18.908 28.564 17.394 29.686ZM35.218 26.104C33.244 26.788 32.688 29.698 34.418 30.96C36.002 32.422 38.806 31.226 39.006 29.13C39.314 27.15 37.092 25.308 35.218 26.104ZM37.13 29.946C35.67 31.394 33.62 28.704 35.226 27.504C36.772 26.334 38.768 28.802 37.13 29.946Z" fill="#FEFEFF"/>
</svg>
