<svg width="50" height="50" viewBox="0 0 50 50" fill="none" xmlns="http://www.w3.org/2000/svg">
<path d="M25 49C38.2548 49 49 38.2548 49 25C49 11.7452 38.2548 1 25 1C11.7452 1 1 11.7452 1 25C1 38.2548 11.7452 49 25 49Z" fill="#AEB0B5"/>
<path d="M0 25C0.002 11.192 11.196 0 25.002 0C38.808 0 50 11.192 50 25C50 38.804 38.808 49.996 25.002 50C11.196 49.996 0.002 38.804 0 25ZM2 25C2.024 37.706 12.3 47.974 25.002 47.998C37.704 47.974 47.978 37.706 48 25C47.978 12.296 37.704 2.022 25.002 1.998C12.3 2.022 2.026 12.296 2 25Z" fill="#FEFEFF"/>
<path d="M13.9399 30.784C13.2579 30.672 12.5319 30.874 11.9979 31.314C11.1679 31.97 10.8659 33.19 11.2839 34.16C11.5519 34.802 12.0999 35.32 12.7579 35.544C13.4839 35.796 14.3259 35.69 14.9579 35.252C15.4819 34.898 15.8559 34.336 15.9839 33.718C16.1259 33.072 15.9799 32.376 15.6079 31.832C15.2259 31.272 14.6139 30.878 13.9399 30.784ZM9.38993 30.702C8.71393 30.536 7.96393 30.952 7.74793 31.616C7.56393 32.132 7.72193 32.748 8.13193 33.112C8.50193 33.45 9.05193 33.57 9.52393 33.404C10.0419 33.238 10.4359 32.748 10.4819 32.202C10.5599 31.522 10.0619 30.84 9.38993 30.702ZM39.7339 30.712C39.3899 30.626 39.0179 30.666 38.7039 30.84C38.2259 31.096 37.9219 31.648 37.9819 32.19C38.0239 32.876 38.6439 33.46 39.3299 33.472C39.9879 33.512 40.6219 33.022 40.7579 32.376C40.9399 31.666 40.4499 30.878 39.7339 30.712ZM43.0799 31.678C42.6979 31.652 42.3119 31.642 41.9239 31.63C42.0719 32.302 42.3039 33.022 42.0599 33.7C41.8059 34.362 41.1659 34.758 40.5599 35.064C39.3579 35.634 38.1779 36.244 36.9779 36.824C36.7939 36.904 36.6139 37.02 36.4119 37.032C28.5679 37.036 20.7219 37.032 12.8739 37.036C12.6499 37.044 12.4519 36.918 12.2539 36.83C11.0519 36.25 9.86593 35.642 8.66193 35.07C8.05993 34.764 7.42593 34.372 7.16793 33.714C6.92193 33.032 7.15593 32.312 7.30393 31.636C6.91793 31.644 6.53393 31.664 6.14793 31.684C5.85593 32.408 5.78393 33.248 6.09793 33.98C6.46593 34.876 7.25593 35.504 8.07393 35.968C8.76193 36.38 9.46393 36.77 10.1779 37.136C11.0179 37.552 11.8559 37.988 12.7699 38.212H36.4079C36.8939 38.114 37.3559 37.922 37.8039 37.726C38.7799 37.29 39.7259 36.788 40.6519 36.258C41.1939 35.938 41.7539 35.636 42.2239 35.212C42.7219 34.768 43.1299 34.192 43.2699 33.53C43.4219 32.912 43.3079 32.262 43.0799 31.678ZM20.7579 30.654C19.5579 30.444 18.2999 31.266 18.0059 32.444C17.8379 33.052 17.9159 33.718 18.2179 34.268C18.5099 34.8 19.0019 35.218 19.5739 35.414C20.2679 35.66 21.0719 35.572 21.6959 35.178C22.2059 34.862 22.5919 34.358 22.7559 33.782C22.9699 33.076 22.8379 32.276 22.4099 31.674C22.0299 31.126 21.4179 30.748 20.7579 30.654ZM27.7599 30.654C27.1019 30.546 26.3979 30.734 25.8739 31.144C25.2919 31.592 24.9219 32.312 24.9219 33.05C24.9039 33.692 25.1599 34.336 25.6099 34.798C26.0779 35.284 26.7519 35.568 27.4279 35.548C28.1379 35.548 28.8339 35.208 29.2879 34.662C29.7419 34.124 29.9459 33.38 29.8279 32.686C29.6679 31.658 28.7919 30.792 27.7599 30.654ZM34.4159 30.656C33.6859 30.532 32.9099 30.772 32.3699 31.272C31.8719 31.72 31.5719 32.376 31.5679 33.046C31.5519 33.708 31.8219 34.372 32.2979 34.836C32.7919 35.332 33.5059 35.598 34.2039 35.544C35.2759 35.49 36.2459 34.65 36.4499 33.596C36.6139 32.854 36.3999 32.042 35.8979 31.472C35.5179 31.038 34.9859 30.74 34.4159 30.656ZM16.7019 24.252C13.0779 23.456 9.45193 22.666 5.82593 21.868V28.982C18.5979 28.964 31.3679 28.922 44.1379 28.914C44.4399 28.94 44.7079 28.704 44.7419 28.406V28.148C44.6719 27.782 44.4619 27.378 44.0739 27.28C40.3719 26.292 36.6699 25.31 32.9699 24.32C32.7439 24.264 32.5079 24.286 32.2739 24.282C27.3119 24.282 22.3439 24.282 17.3799 24.282C17.1519 24.278 16.9239 24.296 16.7019 24.252ZM44.7539 17.934C39.4079 17.932 35.0059 17.916 29.6599 17.91C29.6619 18.644 29.6599 19.376 29.6599 20.11C35.0059 19.926 39.4079 19.74 44.7519 19.568C44.7579 19.024 44.7579 18.478 44.7539 17.934ZM28.1599 17.174C22.5839 16.662 17.0099 16.152 11.4339 15.632C11.4399 17.35 11.4359 19.068 11.4359 20.788C13.3059 21.148 15.1739 21.514 17.0439 21.876C17.0439 22.088 17.0439 22.304 17.0419 22.518C19.8379 22.518 22.6339 22.516 25.4319 22.518C25.5999 22.528 25.7339 22.408 25.8799 22.34C26.6379 21.934 27.3919 21.524 28.1559 21.126C28.1699 19.81 28.1539 18.494 28.1599 17.174Z" fill="#FEFEFF"/>
</svg>
