<svg width="50" height="50" viewBox="0 0 50 50" fill="none" xmlns="http://www.w3.org/2000/svg">
<path d="M25 49C38.2548 49 49 38.2548 49 25C49 11.7452 38.2548 1 25 1C11.7452 1 1 11.7452 1 25C1 38.2548 11.7452 49 25 49Z" fill="#AEB0B5"/>
<path d="M0 25C0.002 11.192 11.196 0 25.002 0C38.808 0 50 11.192 50 25C50 38.804 38.808 49.996 25.002 50C11.196 49.996 0.002 38.804 0 25ZM2 25C2.024 37.706 12.3 47.974 25.002 47.998C37.704 47.974 47.978 37.706 48 25C47.978 12.296 37.704 2.022 25.002 1.998C12.3 2.022 2.026 12.296 2 25Z" fill="#FEFEFF"/>
<path d="M38.2579 27.754C37.8679 27.216 36.9339 26.332 36.3839 25.822C36.6499 25.09 37.0779 23.73 37.1719 22.322C37.1819 22.148 37.1859 21.972 37.1859 21.792C37.1839 20.614 36.9679 19.454 36.8019 18.728C37.0139 18.742 37.1659 18.756 37.1659 18.756C38.3899 18.808 38.3899 16.89 37.8599 16.696C37.8459 16.692 37.8279 16.692 37.8159 16.686C37.3319 16.296 35.7699 15.028 33.6139 13.232C32.0379 11.92 30.3219 10.816 29.5399 10.328C29.4319 10.192 29.3359 10.08 29.3359 10.08C29.3359 10.08 27.6039 8.50799 24.3999 8.53799C18.6379 8.59199 12.0419 11.66 11.1179 18.336C13.7439 10.986 22.0959 10.12 23.7439 10.142C26.5139 10.182 27.8779 12.334 27.8779 12.334C27.8779 12.334 28.3919 11.678 28.7299 11.288C28.7479 11.268 29.0139 11.232 29.2959 11.2C30.1199 11.716 31.6679 12.732 33.0939 13.92C34.4699 15.066 36.5039 16.67 37.2779 17.302C36.0139 17.458 34.0419 17.878 32.5899 18.458C30.4619 19.312 26.2899 22.07 25.1519 22.708C24.0159 23.348 23.7919 21.592 25.1419 19.96C26.4919 18.326 28.1939 15.7 28.0539 14.634C27.9119 13.568 26.4919 10.656 22.2999 11.366C12.7139 12.86 10.9399 18.754 10.9399 23.3C10.9399 27.846 12.2179 27.188 12.5019 29.036C12.7859 30.882 11.8639 31.752 11.9339 33.1C12.7859 34.096 16.7699 34.938 18.8939 35.09C19.8879 35.16 20.2419 34.948 20.8099 34.806C21.3779 34.664 22.4439 34.592 22.5879 33.456C22.7039 32.53 22.6099 33.962 22.5879 31.518C24.2779 32.586 27.7539 34.56 30.8959 34.72C31.1879 34.73 31.4619 34.736 31.7359 34.736C35.5139 34.736 37.4859 33.66 37.5839 33.598L37.9159 33.414L38.6819 29.738C38.6959 29.656 38.7139 29.52 38.7139 29.318C38.7079 28.954 38.6639 28.352 38.2579 27.754ZM17.1899 27.468C15.5639 27.468 14.2479 26.094 14.2479 24.4C14.2479 22.706 15.5639 21.332 17.1899 21.332C18.8159 21.332 20.1319 22.706 20.1319 24.4C20.1299 26.094 18.8139 27.468 17.1899 27.468ZM31.3519 30.64C31.0679 30.678 30.7779 30.698 30.4799 30.698C28.5459 30.706 26.3539 29.906 24.6539 29.102C23.9519 28.772 23.3419 28.446 22.8579 28.174L22.8379 26.198C22.9039 25.898 22.9839 25.636 23.0779 25.406L29.4979 21.48L35.2179 19.334C35.3559 19.988 35.5099 20.916 35.5059 21.788C35.5099 21.928 35.5039 22.072 35.4959 22.222C35.3999 23.88 34.6179 25.712 34.6239 25.718L34.5819 25.816L34.5799 25.8C32.8339 26.166 33.0979 26.6 31.2959 27.082C31.0999 27.136 30.8119 27.166 30.4699 27.166C29.3179 27.17 27.6339 26.842 26.2399 26.514C24.8539 26.186 23.7539 25.858 23.7539 25.86L23.6859 26.128C26.0339 26.826 27.9279 28 30.4719 28.006C30.8599 28.006 31.2139 27.97 31.5199 27.89C33.5599 27.308 33.2899 26.892 34.7439 26.618L34.7379 26.582L34.8339 26.67C34.8399 26.664 36.6279 28.316 36.8799 28.71C36.9719 28.832 37.0079 29.026 37.0219 29.194C36.1419 29.566 34.2619 30.236 31.3519 30.64Z" fill="#FEFEFF"/>
</svg>
