<svg width="50" height="50" viewBox="0 0 50 50" fill="none" xmlns="http://www.w3.org/2000/svg">
<path d="M25 49C38.2548 49 49 38.2548 49 25C49 11.7452 38.2548 1 25 1C11.7452 1 1 11.7452 1 25C1 38.2548 11.7452 49 25 49Z" fill="#AEB0B5"/>
<path d="M0 25C0.002 11.192 11.196 0 25.002 0C38.808 0 50 11.192 50 25C50 38.804 38.808 49.996 25.002 50C11.196 49.996 0.002 38.804 0 25ZM2 25C2.024 37.706 12.3 47.974 25.002 47.998C37.704 47.974 47.978 37.706 48 25C47.978 12.296 37.704 2.022 25.002 1.998C12.3 2.022 2.026 12.296 2 25Z" fill="#FEFEFF"/>
<path d="M26.648 20.438C26.954 20.116 27.15 19.686 27.15 19.206C27.15 18.214 26.346 17.41 25.354 17.41C25.334 17.41 25.318 17.42 25.3 17.42L25.268 17.35L25.236 17.434C24.302 17.498 23.556 18.256 23.556 19.208C23.556 19.694 23.752 20.13 24.064 20.454L18.064 35.92V35.922C18.064 35.922 18.064 35.924 18.062 35.924L17.13 38.33C16.93 38.848 17.182 39.424 17.7 39.624C17.818 39.67 17.94 39.692 18.062 39.692C18.462 39.692 18.842 39.45 18.994 39.054L19.57 37.57L24.334 39.402V41.312C24.334 41.862 24.784 42.31 25.336 42.31C25.884 42.31 26.332 41.862 26.332 41.312V39.592L32.124 37.588L32.458 38.334C32.68 38.838 33.27 39.068 33.776 38.842C34.282 38.614 34.508 38.024 34.282 37.518L26.648 20.438ZM24.334 37.258L20.292 35.706L21.792 31.838L24.334 32.94V37.258ZM24.334 30.76L22.518 29.968L24.334 25.278V30.76ZM26.332 24.626L28.744 30.022L26.332 30.872V24.626ZM26.332 37.474V32.988L29.56 31.85L31.306 35.754L26.332 37.474ZM30.662 19.206C30.662 20.134 30.426 21 30.006 21.762C29.74 22.242 29.916 22.852 30.4 23.122C30.552 23.206 30.718 23.246 30.88 23.246C31.234 23.246 31.576 23.06 31.758 22.728C32.332 21.682 32.658 20.48 32.658 19.208C32.658 17.698 32.2 16.29 31.414 15.122C31.1 14.666 30.48 14.544 30.024 14.858C29.566 15.166 29.446 15.786 29.756 16.246C30.328 17.088 30.662 18.102 30.662 19.206ZM18.944 22.724C19.128 23.054 19.468 23.242 19.822 23.242C19.986 23.242 20.15 23.202 20.302 23.12C20.782 22.852 20.962 22.244 20.696 21.76C20.278 21 20.042 20.134 20.042 19.206C20.042 18.104 20.376 17.086 20.95 16.236C21.258 15.778 21.136 15.158 20.68 14.85C20.22 14.54 19.6 14.658 19.294 15.118H19.292C18.506 16.282 18.042 17.694 18.042 19.206C18.042 20.476 18.372 21.68 18.944 22.724ZM34.416 13.486C34.108 13.026 33.482 12.908 33.028 13.218C32.57 13.528 32.45 14.146 32.758 14.606C33.642 15.922 34.158 17.496 34.158 19.206C34.158 20.644 33.79 21.992 33.146 23.164C32.88 23.648 33.056 24.258 33.54 24.524C33.692 24.61 33.856 24.65 34.02 24.65C34.372 24.65 34.716 24.464 34.898 24.134H34.894C35.698 22.672 36.16 20.986 36.156 19.208C36.162 17.09 35.514 15.12 34.416 13.486ZM17.558 23.166C16.912 21.99 16.54 20.644 16.54 19.204C16.54 17.496 17.058 15.918 17.948 14.6C18.258 14.14 18.136 13.522 17.68 13.212C17.22 12.906 16.6 13.024 16.294 13.482H16.292C15.188 15.114 14.542 17.09 14.542 19.206C14.542 20.988 15.002 22.672 15.808 24.132C15.988 24.464 16.328 24.652 16.684 24.652C16.848 24.652 17.012 24.612 17.166 24.526C17.644 24.26 17.822 23.65 17.558 23.166ZM38.236 10.522C37.928 10.066 37.304 9.944 36.85 10.254C36.392 10.564 36.272 11.186 36.58 11.642C38.038 13.802 38.884 16.398 38.888 19.206C38.884 21.568 38.282 23.788 37.218 25.718C36.95 26.202 37.13 26.812 37.614 27.078C37.764 27.162 37.93 27.202 38.092 27.202C38.446 27.202 38.788 27.016 38.968 26.684C40.19 24.464 40.886 21.914 40.886 19.206C40.888 15.992 39.908 13.002 38.236 10.522ZM12.47 10.518C10.794 12.996 9.81396 15.992 9.81396 19.204C9.81396 21.912 10.51 24.466 11.728 26.682C11.914 27.014 12.256 27.202 12.61 27.202C12.77 27.202 12.934 27.162 13.086 27.08C13.57 26.812 13.748 26.202 13.484 25.722C12.418 23.786 11.812 21.57 11.812 19.204C11.812 16.398 12.668 13.8 14.126 11.636C14.434 11.18 14.312 10.558 13.858 10.25C13.4 9.942 12.78 10.058 12.47 10.518Z" fill="#FEFEFF"/>
</svg>
