<svg width="48" height="48" viewBox="0 0 48 48" fill="none" xmlns="http://www.w3.org/2000/svg">
<g opacity="0.5" filter="url(#filter0_bd_138_1501)">
<circle cx="24" cy="20" r="20" fill="#AEB0B5"/>
</g>
<path fill-rule="evenodd" clip-rule="evenodd" d="M24 30C18.475 30 14 25.525 14 20C14 14.475 18.475 10 24 10C29.525 10 34 14.475 34 20C34 25.525 29.525 30 24 30ZM24 15.625C22.8625 15.625 20.5625 16.2 20.5625 17.35V23.125H22.4375V28.75H25.5625V23.125H27.4375V17.35C27.4375 16.2125 25.1375 15.625 24 15.625ZM25.8752 13.125C25.8752 14.1606 25.0357 15 24.0002 15C22.9647 15 22.1252 14.1606 22.1252 13.125C22.1252 12.0895 22.9647 11.25 24.0002 11.25C25.0357 11.25 25.8752 12.0895 25.8752 13.125Z" fill="#FEFEFF"/>
<defs>
<filter id="filter0_bd_138_1501" x="-6" y="-10" width="60" height="60" filterUnits="userSpaceOnUse" color-interpolation-filters="sRGB">
<feFlood flood-opacity="0" result="BackgroundImageFix"/>
<feGaussianBlur in="BackgroundImage" stdDeviation="5"/>
<feComposite in2="SourceAlpha" operator="in" result="effect1_backgroundBlur_138_1501"/>
<feColorMatrix in="SourceAlpha" type="matrix" values="0 0 0 0 0 0 0 0 0 0 0 0 0 0 0 0 0 0 127 0" result="hardAlpha"/>
<feOffset dy="4"/>
<feGaussianBlur stdDeviation="2"/>
<feComposite in2="hardAlpha" operator="out"/>
<feColorMatrix type="matrix" values="0 0 0 0 0 0 0 0 0 0 0 0 0 0 0 0 0 0 0.25 0"/>
<feBlend mode="normal" in2="effect1_backgroundBlur_138_1501" result="effect2_dropShadow_138_1501"/>
<feBlend mode="normal" in="SourceGraphic" in2="effect2_dropShadow_138_1501" result="shape"/>
</filter>
</defs>
</svg>
