<svg width="45" height="51" viewBox="0 0 45 51" fill="none" xmlns="http://www.w3.org/2000/svg">
<path d="M49.0038 1.00006H1V49.0039H49.0038V1.00006Z" fill="#0071BC"/>
<path d="M0 0V50.002H50V0H0ZM1.99616 48.0058V1.99816H47.9998L48.0038 48.0058H1.99616ZM4.44436 11.6089L5.55844 14.3952L25.002 6.61853L44.4456 14.3932L45.5596 11.6069L24.998 3.38027L4.44436 11.6089Z" fill="#FEFEFF"/>
<path d="M13.653 31.4025C12.9709 31.2905 12.2449 31.4925 11.7108 31.9325C10.8808 32.5886 10.5787 33.8087 10.9968 34.7788C11.2648 35.4208 11.8128 35.9389 12.4709 36.1629C13.1969 36.4149 14.039 36.3089 14.6711 35.8709C15.1951 35.5168 15.5691 34.9548 15.6971 34.3367C15.8392 33.6907 15.6931 32.9946 15.3211 32.4506C14.9391 31.8925 14.327 31.4985 13.653 31.4025ZM9.10262 31.3205C8.42656 31.1545 7.6765 31.5705 7.46048 32.2346C7.27647 32.7506 7.43448 33.3667 7.84451 33.7307C8.21454 34.0687 8.76459 34.1887 9.23663 34.0227C9.75467 33.8567 10.1487 33.3667 10.1947 32.8206C10.2727 32.1406 9.77467 31.4605 9.10262 31.3205ZM39.449 31.3325C39.105 31.2465 38.733 31.2865 38.419 31.4605C37.9409 31.7165 37.6369 32.2686 37.6969 32.8106C37.7389 33.4967 38.359 34.0807 39.045 34.0927C39.7031 34.1327 40.3371 33.6427 40.4731 32.9966C40.6551 32.2866 40.1651 31.4985 39.449 31.3325ZM42.7953 32.2986C42.4133 32.2726 42.0273 32.2626 41.6392 32.2506C41.7872 32.9226 42.0193 33.6427 41.7752 34.3207C41.5212 34.9828 40.8812 35.3788 40.2751 35.6848C39.073 36.2549 37.8929 36.8649 36.6928 37.445C36.5088 37.525 36.3288 37.641 36.1268 37.653C28.2822 37.657 20.4355 37.653 12.5869 37.657C12.3629 37.665 12.1649 37.539 11.9668 37.451C10.7647 36.8709 9.57865 36.2629 8.37456 35.6908C7.77251 35.3848 7.13846 34.9928 6.88044 34.3347C6.63442 33.6527 6.86844 32.9326 7.01645 32.2566C6.63042 32.2646 6.24639 32.2846 5.86036 32.3046C5.56833 33.0286 5.49633 33.8687 5.81035 34.6007C6.17838 35.4968 6.96844 36.1249 7.78651 36.5889C8.47457 37.0009 9.17662 37.391 9.89068 37.757C10.7307 38.173 11.5688 38.6091 12.4829 38.8331H36.1228C36.6088 38.7351 37.0709 38.5431 37.5189 38.3471C38.495 37.911 39.441 37.409 40.3671 36.8789C40.9092 36.5589 41.4692 36.2569 41.9392 35.8328C42.4373 35.3888 42.8453 34.8128 42.9853 34.1507C43.1373 33.5307 43.0233 32.8826 42.7953 32.2986ZM20.4715 31.2725C19.2714 31.0625 18.0133 31.8845 17.7193 33.0626C17.5513 33.6707 17.6293 34.3367 17.9313 34.8868C18.2233 35.4188 18.7154 35.8368 19.2874 36.0329C19.9815 36.2789 20.7856 36.1909 21.4096 35.7968C21.9196 35.4808 22.3057 34.9768 22.4697 34.4007C22.6837 33.6947 22.5517 32.8946 22.1237 32.2926C21.7436 31.7465 21.1316 31.3685 20.4715 31.2725ZM27.4741 31.2725C26.816 31.1645 26.112 31.3525 25.5879 31.7625C25.0059 32.2106 24.6359 32.9306 24.6359 33.6687C24.6179 34.3107 24.8739 34.9548 25.3239 35.4168C25.792 35.9029 26.466 36.1869 27.1421 36.1669C27.8521 36.1669 28.5482 35.8268 29.0022 35.2808C29.4562 34.7428 29.6603 33.9987 29.5423 33.3046C29.3822 32.2766 28.5062 31.4125 27.4741 31.2725ZM34.1306 31.2745C33.4006 31.1505 32.6245 31.3905 32.0845 31.8905C31.5864 32.3386 31.2864 32.9946 31.2824 33.6647C31.2664 34.3267 31.5364 34.9908 32.0124 35.4548C32.5065 35.9509 33.2205 36.2169 33.9186 36.1629C34.9907 36.1089 35.9608 35.2688 36.1648 34.2147C36.3288 33.4727 36.1148 32.6606 35.6127 32.0905C35.2327 31.6565 34.7007 31.3605 34.1306 31.2745ZM16.4152 24.872C12.7909 24.0759 9.16462 23.2858 5.53833 22.4878V29.6024C18.3114 29.5843 31.0824 29.5423 43.8534 29.5343C44.1554 29.5603 44.4234 29.3243 44.4574 29.0263V28.7683C44.3874 28.4023 44.1774 27.9982 43.7894 27.9002C40.0871 26.9121 36.3848 25.9301 32.6845 24.94C32.4585 24.884 32.2225 24.906 31.9884 24.902C27.0261 24.902 22.0577 24.902 17.0933 24.902C16.8652 24.898 16.6372 24.916 16.4152 24.872ZM44.4694 18.5535C39.123 18.5515 34.7207 18.5355 29.3742 18.5295C29.3762 19.2635 29.3742 19.9956 29.3742 20.7296C34.7207 20.5456 39.123 20.3596 44.4674 20.1876C44.4734 19.6436 44.4734 19.0975 44.4694 18.5535ZM27.8741 17.7934C22.2977 17.2814 16.7232 16.7713 11.1468 16.2513C11.1528 17.9694 11.1488 19.6876 11.1488 21.4077C13.0189 21.7677 14.8871 22.1338 16.7572 22.4958C16.7572 22.7078 16.7572 22.9238 16.7552 23.1378C19.5515 23.1378 22.3477 23.1358 25.1459 23.1378C25.3139 23.1478 25.4479 23.0278 25.5939 22.9598C26.352 22.5538 27.1061 22.1438 27.8701 21.7457C27.8841 20.4296 27.8681 19.1115 27.8741 17.7934Z" fill="#FEFEFF"/>
</svg>
